<svg width="129" height="40" viewBox="0 0 129 40" fill="none" xmlns="http://www.w3.org/2000/svg">
<path fill-rule="evenodd" clip-rule="evenodd" d="M63.8095 6.44128C65.0163 5.23458 66.9729 5.23458 68.1796 6.44128C69.3864 7.64806 69.3864 9.60461 68.1796 10.8114L60.8223 18.1687C58.71 15.3377 58.9395 11.3115 61.5108 8.74017L63.8095 6.44128Z" fill="#4F9E91"/>
<path fill-rule="evenodd" clip-rule="evenodd" d="M74.3271 23.0406C75.5341 24.2473 75.5341 26.2039 74.3271 27.4106C73.1211 28.6174 71.1642 28.6174 69.9574 27.4106L62.6001 20.0534C65.4311 17.941 69.4573 18.1704 72.0286 20.7417L74.3271 23.0406Z" fill="#EBE1C5"/>
<path fill-rule="evenodd" clip-rule="evenodd" d="M57.7282 33.5586C56.5215 34.7654 54.5649 34.7654 53.3582 33.5586C52.1514 32.3518 52.1514 30.3953 53.3582 29.1885L60.7154 21.8313C62.8278 24.6623 62.5984 28.6885 60.0271 31.2597L57.7282 33.5586Z" fill="#EBCC6E"/>
<path fill-rule="evenodd" clip-rule="evenodd" d="M47.2103 16.9593C46.0035 15.7525 46.0035 13.796 47.2103 12.5892C48.417 11.3824 50.3736 11.3824 51.5803 12.5892L58.9377 19.9465C56.1067 22.0589 52.0804 21.8294 49.5091 19.2582L47.2103 16.9593Z" fill="#ED834E"/>
<path fill-rule="evenodd" clip-rule="evenodd" d="M62.1653 32.6575C63.9447 30.6791 64.7717 28.1476 64.6462 25.655L68.1796 29.1884C68.1884 29.1972 68.1973 29.206 68.2062 29.2148V31.7374C68.2062 33.444 66.8227 34.8275 65.1161 34.8275C63.7299 34.8275 62.5569 33.9148 62.1653 32.6575Z" fill="#ED834E"/>
<path fill-rule="evenodd" clip-rule="evenodd" d="M48.1111 21.3964C50.0894 23.1758 52.621 24.0029 55.1135 23.8774L51.5802 27.4108C51.5713 27.4196 51.5626 27.4284 51.5539 27.4372H49.0312C47.3246 27.4373 45.9412 26.0538 45.9412 24.3471C45.9412 22.9611 46.8539 21.788 48.1111 21.3964Z" fill="#4F9E91"/>
<path fill-rule="evenodd" clip-rule="evenodd" d="M73.4263 18.6036C71.4482 16.8242 68.9166 15.9971 66.4241 16.1225L69.9574 12.5892C69.9662 12.5804 69.9749 12.5716 69.9837 12.5627H72.5064C74.2133 12.5627 75.5968 13.9462 75.5968 15.6529C75.5968 17.039 74.6837 18.212 73.4263 18.6036Z" fill="#EBCC6E"/>
<path fill-rule="evenodd" clip-rule="evenodd" d="M59.3724 7.3423C57.5929 9.32067 56.766 11.8522 56.8914 14.3448L53.3581 10.8115C53.3492 10.8027 53.3404 10.7939 53.3315 10.7851V8.26248C53.3315 6.55587 54.715 5.1723 56.4216 5.1723C57.8078 5.1723 58.9808 6.08508 59.3724 7.3423Z" fill="#EBE1C5"/>
<path fill-rule="evenodd" clip-rule="evenodd" d="M56.4218 2.65826C53.3266 2.65826 50.8175 5.16739 50.8175 8.26253V9.35252C48.9554 8.86599 46.8918 9.35226 45.4325 10.8115C43.2439 13.0001 43.2439 16.5485 45.4325 18.7371L46.2032 19.5078C44.5426 20.4805 43.4272 22.2836 43.4272 24.3471C43.4272 27.4423 45.9364 29.9514 49.0315 29.9514H50.1214C49.6349 31.8135 50.1212 33.8771 51.5804 35.3363C53.769 37.5249 57.3174 37.5249 59.506 35.3363L61.8048 33.0375C63.8327 31.0096 64.7799 28.3101 64.6462 25.655L68.1797 29.1883C70.3683 31.377 73.9168 31.377 76.1055 29.1883C78.2942 26.9997 78.2942 23.4513 76.1055 21.2628L75.3351 20.4922C76.9951 19.5195 78.1107 17.7164 78.1107 15.6529C78.1107 12.5577 75.6012 10.0486 72.5064 10.0486H71.4164C71.903 8.18644 71.4166 6.12279 69.9574 4.66357C67.7689 2.47496 64.2205 2.47496 62.0319 4.66357L59.733 6.96244C57.7051 8.99034 56.7579 11.6897 56.8916 14.3449L53.3582 10.8115C53.3493 10.8027 53.3406 10.7939 53.3317 10.7851V8.26253C53.3317 6.55592 54.7152 5.17244 56.4218 5.17244C57.8079 5.17244 58.9809 6.08513 59.3725 7.34235C59.4886 7.21331 59.6088 7.08661 59.733 6.96244L61.2611 5.43426C60.2884 3.77357 58.4853 2.65826 56.4218 2.65826ZM69.9838 12.5628C69.975 12.5716 69.9663 12.5804 69.9574 12.5892L66.4241 16.1225C68.9167 15.9971 71.4482 16.8241 73.4264 18.6036C74.6838 18.212 75.5968 17.0389 75.5968 15.6529C75.5968 13.9463 74.2133 12.5628 72.5064 12.5628H69.9838ZM51.5539 27.4372C51.5627 27.4283 51.5715 27.4195 51.5804 27.4107L55.1137 23.8773C52.6212 24.0028 50.0897 23.1757 48.1113 21.3963C46.8541 21.788 45.9413 22.961 45.9413 24.3471C45.9413 26.0537 47.3249 27.4372 49.0315 27.4372H51.5539ZM65.1161 37.3417C63.0525 37.3417 61.2494 36.2263 60.2767 34.5656L61.8048 33.0375C61.9291 32.9133 62.0492 32.7866 62.1652 32.6576C62.5569 33.9148 63.7299 34.8276 65.1161 34.8276C66.8227 34.8276 68.2062 33.4441 68.2062 31.7375V29.2149C68.9304 29.9296 69.8008 30.4071 70.7204 30.6474V31.7375C70.7204 34.8326 68.2112 37.3417 65.1161 37.3417ZM68.1797 6.44131C66.9729 5.23461 65.0164 5.23461 63.8096 6.44131L61.5107 8.74017C58.9395 11.3115 58.71 15.3377 60.8224 18.1687L68.1797 10.8114C69.3865 9.6046 69.3865 7.64809 68.1797 6.44131ZM74.3272 27.4106C75.5342 26.2038 75.5342 24.2473 74.3272 23.0405L72.0286 20.7416C69.4574 18.1704 65.4311 17.941 62.6001 20.0533L69.9574 27.4106C71.1642 28.6174 73.1212 28.6174 74.3272 27.4106ZM57.7282 33.5585C56.5214 34.7653 54.5649 34.7653 53.3581 33.5585C52.1514 32.3517 52.1514 30.3952 53.3581 29.1884L60.7154 21.8311C62.8278 24.6621 62.5983 28.6884 60.0271 31.2596L57.7282 33.5585ZM47.2103 12.5892C46.0036 13.796 46.0036 15.7525 47.2103 16.9593L49.5092 19.2582C52.0805 21.8294 56.1067 22.0589 58.9377 19.9465L51.5804 12.5892C50.3736 11.3825 48.4171 11.3825 47.2103 12.5892Z" fill="#3D3A2C"/>
<path d="M1.94604 13.9911H4.69439V22.5313H9.41473V24.8449H1.94604V13.9911Z" fill="#3D3A2C"/>
<path d="M14.4048 25.0778C13.4835 25.0778 12.676 24.9121 11.9824 24.5809C11.2889 24.2393 10.7506 23.7734 10.3675 23.1834C9.99494 22.583 9.80859 21.8947 9.80859 21.1182C9.80859 20.3419 9.99494 19.6587 10.3675 19.0687C10.7506 18.4682 11.2889 18.0024 11.9824 17.6712C12.676 17.3295 13.4835 17.1588 14.4048 17.1588C15.3261 17.1588 16.1335 17.3295 16.827 17.6712C17.5206 18.0024 18.0537 18.4682 18.4263 19.0687C18.8094 19.6587 19.0009 20.3419 19.0009 21.1182C19.0009 21.8947 18.8094 22.583 18.4263 23.1834C18.0537 23.7734 17.5206 24.2393 16.827 24.5809C16.1335 24.9121 15.3261 25.0778 14.4048 25.0778ZM14.4048 22.9505C14.9534 22.9505 15.3882 22.7901 15.709 22.4692C16.0403 22.1379 16.2059 21.6876 16.2059 21.1182C16.2059 20.5489 16.0403 20.1038 15.709 19.7829C15.3882 19.4516 14.9534 19.2861 14.4048 19.2861C13.8561 19.2861 13.4162 19.4516 13.0849 19.7829C12.764 20.1038 12.6036 20.5489 12.6036 21.1182C12.6036 21.6876 12.764 22.1379 13.0849 22.4692C13.4162 22.7901 13.8561 22.9505 14.4048 22.9505Z" fill="#3D3A2C"/>
<path d="M24.1342 28.4162C23.6373 28.4162 23.1353 28.3696 22.628 28.2765C22.1312 28.1833 21.7015 28.0591 21.3393 27.9038V26.0094C22.157 26.3614 23.0886 26.5374 24.1342 26.5374C24.8899 26.5374 25.4333 26.3821 25.7646 26.0715C26.1062 25.761 26.277 25.3055 26.277 24.7051V24.2548C25.9768 24.5136 25.6041 24.7154 25.159 24.8604C24.7242 25.0054 24.2584 25.0778 23.7615 25.0778C22.9748 25.0778 22.2813 24.9121 21.6808 24.5809C21.0805 24.2496 20.6094 23.7838 20.2679 23.1834C19.9366 22.583 19.771 21.8947 19.771 21.1182C19.771 20.3315 19.9366 19.638 20.2679 19.0376C20.5991 18.4372 21.0649 17.9765 21.6653 17.6556C22.2657 17.3244 22.9541 17.1588 23.7305 17.1588C24.7967 17.1588 25.6766 17.4848 26.3701 18.137V17.3916H29.0099V24.3325C29.0099 25.6264 28.6113 26.6306 27.8142 27.3448C27.0275 28.0591 25.8008 28.4162 24.1342 28.4162ZM24.4447 22.9661C24.8692 22.9661 25.247 22.8574 25.5782 22.64C25.9095 22.4226 26.1424 22.1328 26.277 21.7704V20.4661C26.132 20.1038 25.894 19.8191 25.5627 19.6121C25.2314 19.3948 24.8588 19.2861 24.4447 19.2861C23.8858 19.2861 23.4354 19.4516 23.0939 19.7829C22.7522 20.1038 22.5814 20.5437 22.5814 21.1028C22.5814 21.6721 22.7522 22.1275 23.0939 22.4692C23.4354 22.8004 23.8858 22.9661 24.4447 22.9661Z" fill="#3D3A2C"/>
<path d="M34.2993 25.0778C33.378 25.0778 32.5706 24.9121 31.877 24.5809C31.1835 24.2393 30.6451 23.7734 30.2622 23.1834C29.8895 22.583 29.7031 21.8947 29.7031 21.1182C29.7031 20.3419 29.8895 19.6587 30.2622 19.0687C30.6451 18.4682 31.1835 18.0024 31.877 17.6712C32.5706 17.3295 33.378 17.1588 34.2993 17.1588C35.2206 17.1588 36.028 17.3295 36.7216 17.6712C37.4151 18.0024 37.9483 18.4682 38.321 19.0687C38.7039 19.6587 38.8955 20.3419 38.8955 21.1182C38.8955 21.8947 38.7039 22.583 38.321 23.1834C37.9483 23.7734 37.4151 24.2393 36.7216 24.5809C36.028 24.9121 35.2206 25.0778 34.2993 25.0778ZM34.2993 22.9505C34.8479 22.9505 35.2827 22.7901 35.6036 22.4692C35.9349 22.1379 36.1005 21.6876 36.1005 21.1182C36.1005 20.5489 35.9349 20.1038 35.6036 19.7829C35.2827 19.4516 34.8479 19.2861 34.2993 19.2861C33.7507 19.2861 33.3107 19.4516 32.9795 19.7829C32.6585 20.1038 32.4981 20.5489 32.4981 21.1182C32.4981 21.6876 32.6585 22.1379 32.9795 22.4692C33.3107 22.7901 33.7507 22.9505 34.2993 22.9505Z" fill="#3D3A2C"/>
<path d="M82.728 13.9911H85.4767V24.8449H82.728V13.9911Z" fill="#3D3A2C"/>
<path d="M86.8682 17.3916H89.5081V18.137C90.2011 17.4848 91.0811 17.1588 92.1472 17.1588C92.9237 17.1588 93.6124 17.3244 94.2124 17.6556C94.8133 17.9765 95.2785 18.4372 95.6098 19.0376C95.9411 19.6276 96.1072 20.3161 96.1072 21.1028C96.1072 21.8791 95.9411 22.5727 95.6098 23.1834C95.2785 23.7838 94.8133 24.2496 94.2124 24.5809C93.6229 24.9121 92.9342 25.0778 92.1472 25.0778C91.6507 25.0778 91.1742 25.0001 90.7194 24.8448C90.2742 24.7 89.9011 24.4981 89.6011 24.2393V28.2454H86.8682V17.3916ZM91.4333 22.9505C91.9924 22.9505 92.4429 22.7849 92.7837 22.4536C93.1255 22.1224 93.2968 21.6721 93.2968 21.1028C93.2968 20.5334 93.1255 20.0883 92.7837 19.7674C92.4429 19.4361 91.9924 19.2705 91.4333 19.2705C91.0194 19.2705 90.6463 19.3792 90.315 19.5966C89.9837 19.8036 89.7463 20.0883 89.6011 20.4506V21.7704C89.7463 22.1328 89.9837 22.4226 90.315 22.64C90.6463 22.847 91.0194 22.9505 91.4333 22.9505Z" fill="#3D3A2C"/>
<path d="M100.181 25.0778C99.5811 25.0778 98.955 25.0157 98.3028 24.8914C97.6507 24.7776 97.1324 24.612 96.7498 24.3946V22.3915C97.1741 22.64 97.6811 22.847 98.2715 23.0127C98.8715 23.1679 99.4202 23.2455 99.9176 23.2455C100.279 23.2455 100.544 23.2196 100.709 23.1679C100.875 23.1161 100.958 23.0127 100.958 22.8574C100.958 22.7331 100.901 22.6348 100.787 22.5623C100.684 22.4795 100.486 22.3967 100.197 22.3139C99.9176 22.2208 99.5915 22.1224 99.2185 22.0188C98.5872 21.8325 98.0907 21.641 97.728 21.4443C97.3654 21.2476 97.0967 20.9992 96.9202 20.699C96.7446 20.3988 96.6567 20.021 96.6567 19.5655C96.6567 18.7581 96.9724 18.1577 97.6037 17.7643C98.2454 17.3606 99.1202 17.1588 100.228 17.1588C100.766 17.1588 101.331 17.2157 101.92 17.3295C102.521 17.4434 102.971 17.5935 103.272 17.7799V19.7519C102.961 19.5448 102.546 19.374 102.029 19.2394C101.522 19.1048 101.045 19.0376 100.6 19.0376C100.249 19.0376 99.9741 19.0738 99.7776 19.1462C99.5811 19.2084 99.4828 19.3222 99.4828 19.4879C99.4828 19.6432 99.5811 19.7622 99.7776 19.845C99.9741 19.9278 100.326 20.0314 100.833 20.1555C101.165 20.2384 101.305 20.2746 101.252 20.2642C101.915 20.4402 102.427 20.6369 102.79 20.8543C103.152 21.0717 103.405 21.3305 103.551 21.6307C103.706 21.9205 103.784 22.2932 103.784 22.7487C103.784 23.4629 103.473 24.0322 102.852 24.4567C102.241 24.8708 101.351 25.0778 100.181 25.0778Z" fill="#3D3A2C"/>
<path d="M107.864 25.0778C106.839 25.0778 106.068 24.7931 105.551 24.2238C105.044 23.6544 104.79 22.904 104.79 21.9724V17.3917H107.523V21.6617C107.523 22.521 107.911 22.9505 108.687 22.9505C109.039 22.9505 109.36 22.8677 109.65 22.7021C109.939 22.5364 110.178 22.2932 110.364 21.9724V17.3917H113.097V24.8449H110.458V24.0375C110.137 24.3791 109.748 24.6378 109.292 24.8138C108.838 24.9898 108.361 25.0778 107.864 25.0778Z" fill="#3D3A2C"/>
<path d="M114.496 17.3916H117.027V18.1991C117.338 17.8679 117.695 17.6142 118.098 17.4382C118.502 17.2519 118.932 17.1588 119.387 17.1588C119.946 17.1588 120.392 17.2415 120.723 17.4072C121.065 17.5728 121.338 17.8213 121.545 18.1525C121.856 17.842 122.234 17.5987 122.679 17.4228C123.125 17.2468 123.575 17.1588 124.03 17.1588C125.013 17.1588 125.712 17.4124 126.126 17.9196C126.54 18.4165 126.747 19.1359 126.747 20.0779V24.8448H124.138V20.4661C124.138 20.0521 124.061 19.7519 123.905 19.5655C123.751 19.3792 123.492 19.2861 123.13 19.2861C122.664 19.2861 122.285 19.4516 121.996 19.7829C122.006 19.9588 122.012 20.2281 122.012 20.5903V24.8448H119.403V20.3574C119.403 19.9744 119.336 19.7001 119.201 19.5345C119.066 19.3688 118.828 19.2861 118.487 19.2861C117.958 19.2861 117.504 19.581 117.12 20.1711V24.8448H114.496V17.3916Z" fill="#3D3A2C"/>
</svg>
