<svg width="203" height="40" viewBox="0 0 203 40" fill="none" xmlns="http://www.w3.org/2000/svg">
<g clip-path="url(#clip0_290_57038)">
<path fill-rule="evenodd" clip-rule="evenodd" d="M26.1162 11.6853C24.4717 10.5865 22.5383 10 20.5605 10V0C24.5161 0 28.3829 1.17298 31.6719 3.37061C34.9609 5.56823 37.5243 8.69181 39.0381 12.3463C40.5518 16.0008 40.9479 20.0222 40.1762 23.9018C39.4045 27.7814 37.4997 31.3451 34.7026 34.1421C31.9056 36.9392 28.3419 38.844 24.4623 39.6157C20.5827 40.3874 16.5613 39.9913 12.9068 38.4776C9.25235 36.9638 6.12878 34.4004 3.93116 31.1114C1.73353 27.8224 0.560547 23.9556 0.560547 20H10.5605C10.5605 21.9778 11.147 23.9112 12.2458 25.5557C13.3446 27.2002 14.9064 28.4819 16.7337 29.2388C18.5609 29.9957 20.5716 30.1937 22.5114 29.8078C24.4512 29.422 26.233 28.4696 27.6316 27.0711C29.0301 25.6725 29.9825 23.8907 30.3683 21.9509C30.7542 20.0111 30.5562 18.0004 29.7993 16.1732C29.0424 14.3459 27.7607 12.7841 26.1162 11.6853Z" fill="#007DFC"/>
<path fill-rule="evenodd" clip-rule="evenodd" d="M10.5605 5.28493e-06C10.5605 1.31322 10.3019 2.61358 9.79934 3.82684C9.29679 5.04009 8.5602 6.14248 7.63161 7.07107C6.70303 7.99966 5.60064 8.73625 4.38738 9.2388C3.17412 9.74134 1.87376 10 0.560547 10L0.560547 20C3.18698 20 5.7877 19.4827 8.21422 18.4776C10.6407 17.4725 12.8455 15.9993 14.7026 14.1421C16.5598 12.285 18.033 10.0802 19.0381 7.65367C20.0432 5.22715 20.5605 2.62643 20.5605 0L10.5605 5.28493e-06Z" fill="#007DFC"/>
<path d="M126.18 14.4525H121.328V29.8648H126.18V14.4525Z" fill="#007DFC"/>
<path d="M121.867 11.5666C122.374 12.074 123.008 12.3277 123.769 12.3277C124.53 12.3277 125.154 12.074 125.64 11.5666C126.127 11.0381 126.37 10.4038 126.37 9.66385C126.37 8.90277 126.127 8.26849 125.64 7.76111C125.154 7.25369 124.53 7 123.769 7C123.008 7 122.374 7.25369 121.867 7.76111C121.38 8.26849 121.137 8.90277 121.137 9.66385C121.137 10.4038 121.38 11.0381 121.867 11.5666Z" fill="#007DFC"/>
<path d="M51.7168 29.8648V7.47571H56.6957V25.4885H66.6218V29.8648H51.7168Z" fill="#007DFC"/>
<path fill-rule="evenodd" clip-rule="evenodd" d="M75.5878 30.2136C74.0022 30.2136 72.5646 29.8648 71.2749 29.1671C70.0064 28.4483 69.0022 27.4758 68.2622 26.2495C67.5223 25.0233 67.1523 23.6491 67.1523 22.1269C67.1523 20.6047 67.5223 19.2411 68.2622 18.036C69.0022 16.8309 70.0064 15.8795 71.2749 15.1819C72.5434 14.463 73.9811 14.1036 75.5878 14.1036C77.1946 14.1036 78.6322 14.4525 79.9007 15.1501C81.1692 15.8478 82.1735 16.8098 82.9134 18.036C83.6534 19.2411 84.0234 20.6047 84.0234 22.1269C84.0234 23.6491 83.6534 25.0233 82.9134 26.2495C82.1735 27.4758 81.1692 28.4483 79.9007 29.1671C78.6322 29.8648 77.1946 30.2136 75.5878 30.2136ZM75.5878 25.8056C76.2855 25.8056 76.8986 25.6576 77.4272 25.3616C77.9557 25.0445 78.3574 24.6111 78.6322 24.0614C78.9282 23.4906 79.0762 22.8457 79.0762 22.1269C79.0762 21.4081 78.9282 20.7844 78.6322 20.2559C78.3362 19.7062 77.924 19.2834 77.3954 18.9874C76.888 18.6702 76.2855 18.5117 75.5878 18.5117C74.9113 18.5117 74.3088 18.6702 73.7802 18.9874C73.2517 19.2834 72.8394 19.7062 72.5434 20.2559C72.2474 20.8056 72.0995 21.4398 72.0995 22.1586C72.0995 22.8563 72.2474 23.4906 72.5434 24.0614C72.8394 24.6111 73.2517 25.0445 73.7802 25.3616C74.3088 25.6576 74.9113 25.8056 75.5878 25.8056Z" fill="#007DFC"/>
<path fill-rule="evenodd" clip-rule="evenodd" d="M87.8661 35.8902C89.1557 36.4821 90.6462 36.7781 92.3376 36.7781C93.9866 36.7781 95.456 36.4504 96.7456 35.795C98.0353 35.1396 99.05 34.2306 99.79 33.0678C100.53 31.905 100.9 30.5308 100.9 28.9451V14.4525H96.143V15.488C95.7892 15.1902 95.3874 14.9402 94.938 14.7379C94.1134 14.3362 93.1726 14.1353 92.1156 14.1353C90.6991 14.1353 89.4411 14.4736 88.3418 15.1501C87.2423 15.8055 86.3756 16.7146 85.7413 17.8774C85.107 19.0191 84.79 20.3087 84.79 21.7464C84.79 23.1629 85.107 24.4525 85.7413 25.6153C86.3756 26.7781 87.2423 27.6978 88.3418 28.3743C89.4411 29.0508 90.6991 29.3891 92.1156 29.3891C93.1515 29.3891 94.0923 29.1883 94.938 28.7866C95.3476 28.592 95.7176 28.3627 96.0479 28.0986V29.072C96.0479 30.1502 95.6991 30.9853 95.0014 31.5773C94.3249 32.1693 93.3841 32.4652 92.179 32.4652C91.2065 32.4652 90.3714 32.2961 89.6737 31.9578C88.9972 31.6196 88.384 31.1227 87.8343 30.4673L84.8534 33.4483C85.5933 34.5054 86.5976 35.3194 87.8661 35.8902ZM94.7794 24.6322C94.2931 24.9282 93.7118 25.0762 93.0352 25.0762C92.3587 25.0762 91.7667 24.9282 91.2593 24.6322C90.773 24.3362 90.3925 23.9345 90.1177 23.4271C89.8428 22.8986 89.7054 22.3383 89.7054 21.7464C89.7054 21.1121 89.8428 20.5413 90.1177 20.0339C90.3925 19.5265 90.7836 19.1248 91.291 18.8288C91.7984 18.5328 92.3798 18.3848 93.0352 18.3848C93.7118 18.3848 94.2931 18.5328 94.7794 18.8288C95.2868 19.1248 95.6673 19.5265 95.9211 20.0339C96.1959 20.5413 96.3333 21.1121 96.3333 21.7464C96.3333 22.3806 96.1959 22.9514 95.9211 23.4588C95.6673 23.9451 95.2868 24.3362 94.7794 24.6322Z" fill="#007DFC"/>
<path fill-rule="evenodd" clip-rule="evenodd" d="M111.112 30.2136C109.526 30.2136 108.088 29.8648 106.799 29.1671C105.53 28.4483 104.526 27.4758 103.786 26.2495C103.046 25.0233 102.676 23.6491 102.676 22.1269C102.676 20.6047 103.046 19.2411 103.786 18.036C104.526 16.8309 105.53 15.8795 106.799 15.1819C108.067 14.463 109.505 14.1036 111.112 14.1036C112.718 14.1036 114.156 14.4525 115.424 15.1501C116.693 15.8478 117.697 16.8098 118.437 18.036C119.177 19.2411 119.547 20.6047 119.547 22.1269C119.547 23.6491 119.177 25.0233 118.437 26.2495C117.697 27.4758 116.693 28.4483 115.424 29.1671C114.156 29.8648 112.718 30.2136 111.112 30.2136ZM111.112 25.8056C111.809 25.8056 112.422 25.6576 112.951 25.3616C113.479 25.0445 113.881 24.6111 114.156 24.0614C114.452 23.4906 114.6 22.8457 114.6 22.1269C114.6 21.4081 114.452 20.7844 114.156 20.2559C113.86 19.7062 113.448 19.2834 112.919 18.9874C112.412 18.6702 111.809 18.5117 111.112 18.5117C110.435 18.5117 109.832 18.6702 109.304 18.9874C108.775 19.2834 108.363 19.7062 108.067 20.2559C107.771 20.8056 107.623 21.4398 107.623 22.1586C107.623 22.8563 107.771 23.4906 108.067 24.0614C108.363 24.6111 108.775 25.0445 109.304 25.3616C109.832 25.6576 110.435 25.8056 111.112 25.8056Z" fill="#007DFC"/>
<path fill-rule="evenodd" clip-rule="evenodd" d="M137.842 30.1819C136.807 30.1819 135.855 29.9811 134.988 29.5794C134.532 29.368 134.12 29.1156 133.752 28.8222V36.3659H128.963V14.4525H133.815V15.5162C134.167 15.2283 134.558 14.9794 134.988 14.7696C135.855 14.3467 136.807 14.1353 137.842 14.1353C139.301 14.1353 140.591 14.4842 141.711 15.1819C142.853 15.8795 143.741 16.8309 144.375 18.036C145.031 19.2411 145.358 20.6153 145.358 22.1586C145.358 23.702 145.031 25.0762 144.375 26.2813C143.741 27.4864 142.853 28.4377 141.711 29.1354C140.591 29.8331 139.301 30.1819 137.842 30.1819ZM136.955 25.8056C137.652 25.8056 138.255 25.647 138.762 25.3299C139.291 25.0128 139.703 24.5793 139.999 24.0297C140.295 23.48 140.443 22.8563 140.443 22.1586C140.443 21.4398 140.295 20.8056 139.999 20.2559C139.703 19.7062 139.291 19.2834 138.762 18.9874C138.255 18.6702 137.663 18.5117 136.986 18.5117C136.31 18.5117 135.707 18.6702 135.179 18.9874C134.671 19.2834 134.27 19.7062 133.974 20.2559C133.678 20.8056 133.53 21.4398 133.53 22.1586C133.53 22.8563 133.667 23.48 133.942 24.0297C134.238 24.5793 134.65 25.0128 135.179 25.3299C135.707 25.647 136.299 25.8056 136.955 25.8056Z" fill="#007DFC"/>
<path d="M150.106 29.8965C150.994 30.1291 151.892 30.2453 152.801 30.2453C154.725 30.2453 156.247 29.8014 157.368 28.9134C158.509 28.0255 159.08 26.831 159.08 25.3299C159.08 24.3574 158.901 23.5751 158.541 22.9832C158.182 22.3701 157.717 21.8838 157.146 21.5244C156.575 21.165 155.972 20.8795 155.338 20.6681C154.704 20.4567 154.101 20.277 153.531 20.129C152.96 19.981 152.495 19.8119 152.135 19.6216C151.776 19.4313 151.596 19.1776 151.596 18.8605C151.596 18.5645 151.734 18.3425 152.008 18.1945C152.283 18.0254 152.695 17.9409 153.245 17.9409C153.816 17.9409 154.397 18.0571 154.989 18.2897C155.602 18.5222 156.152 18.924 156.638 19.4948L159.397 16.7041C158.7 15.8161 157.791 15.1501 156.67 14.7062C155.571 14.2411 154.366 14.0085 153.055 14.0085C151.808 14.0085 150.719 14.2199 149.789 14.6427C148.858 15.0656 148.139 15.647 147.632 16.3869C147.125 17.1057 146.871 17.962 146.871 18.9557C146.871 19.8859 147.051 20.6576 147.41 21.2707C147.769 21.8626 148.235 22.3278 148.805 22.666C149.376 23.0043 149.979 23.2686 150.613 23.4588C151.247 23.6491 151.85 23.8288 152.421 23.998C152.991 24.146 153.457 24.3257 153.816 24.5371C154.197 24.7274 154.387 25.0128 154.387 25.3933C154.387 25.6893 154.228 25.9218 153.911 26.091C153.615 26.2601 153.182 26.3447 152.611 26.3447C151.786 26.3447 151.025 26.1967 150.328 25.9007C149.63 25.5836 149.027 25.1502 148.52 24.6005L145.761 27.3912C146.29 27.962 146.924 28.4695 147.664 28.9134C148.425 29.3362 149.239 29.6639 150.106 29.8965Z" fill="#007DFC"/>
<path d="M167.928 30.2136C166.512 30.2136 165.254 29.9282 164.155 29.3574C163.076 28.7654 162.231 27.962 161.618 26.9472C161.004 25.9113 160.698 24.7274 160.698 23.3954V14.4525H165.55V23.332C165.55 23.8605 165.634 24.3151 165.804 24.6956C165.994 25.0762 166.269 25.3722 166.628 25.5836C166.988 25.795 167.421 25.9007 167.928 25.9007C168.647 25.9007 169.218 25.6787 169.641 25.2347C170.064 24.7696 170.275 24.1354 170.275 23.332V14.4525H175.127V23.3637C175.127 24.7168 174.821 25.9113 174.207 26.9472C173.594 27.962 172.749 28.7654 171.67 29.3574C170.592 29.9282 169.345 30.2136 167.928 30.2136Z" fill="#007DFC"/>
<path d="M182.392 14.4525H177.54V29.8648H182.392V20.8584C182.392 20.3299 182.498 19.8859 182.709 19.5265C182.942 19.1671 183.249 18.8922 183.629 18.702C184.01 18.4905 184.443 18.3848 184.929 18.3848C185.627 18.3848 186.208 18.6068 186.673 19.0508C187.16 19.4736 187.403 20.0762 187.403 20.8584V29.8648H192.255V20.8584C192.255 20.3299 192.361 19.8859 192.572 19.5265C192.805 19.1671 193.111 18.8922 193.492 18.702C193.872 18.4905 194.306 18.3848 194.792 18.3848C195.49 18.3848 196.071 18.6068 196.536 19.0508C197.022 19.4736 197.265 20.0762 197.265 20.8584V29.8648H202.118V20.3193C202.118 19.0297 201.843 17.9303 201.293 17.0212C200.764 16.0909 200.035 15.3827 199.105 14.8965C198.196 14.389 197.149 14.1353 195.965 14.1353C194.76 14.1353 193.671 14.3996 192.699 14.9282C192.067 15.2649 191.515 15.6995 191.042 16.2319C190.601 15.675 190.065 15.2193 189.432 14.8647C188.587 14.3785 187.625 14.1353 186.547 14.1353C185.405 14.1353 184.38 14.3785 183.471 14.8647C183.075 15.067 182.716 15.3093 182.392 15.5916V14.4525Z" fill="#007DFC"/>
</g>
<defs>
<clipPath id="clip0_290_57038">
<rect width="202" height="40" fill="white" transform="translate(0.560547)"/>
</clipPath>
</defs>
</svg>
