<svg width="201" height="40" viewBox="0 0 201 40" fill="none" xmlns="http://www.w3.org/2000/svg">
<g clip-path="url(#clip0_290_57094)">
<path d="M60.6516 30.2976V9.93768H64.4909V26.8074H73.7982V30.2976H60.6516Z" fill="#3A5088"/>
<path d="M82.0874 30.7049C80.6525 30.7049 79.363 30.414 78.219 29.8322C77.0749 29.2506 76.1733 28.4071 75.514 27.3019C74.8548 26.1966 74.5251 24.8684 74.5251 23.3171V22.8517C74.5251 21.3005 74.8548 19.9722 75.514 18.867C76.1733 17.7617 77.0749 16.9182 78.219 16.3365C79.363 15.7549 80.6525 15.464 82.0874 15.464C83.5223 15.464 84.8118 15.7549 85.9558 16.3365C87.0998 16.9182 88.0014 17.7617 88.6608 18.867C89.32 19.9722 89.6497 21.3005 89.6497 22.8517V23.3171C89.6497 24.8684 89.32 26.1966 88.6608 27.3019C88.0014 28.4071 87.0998 29.2506 85.9558 29.8322C84.8118 30.414 83.5223 30.7049 82.0874 30.7049ZM82.0874 27.4472C83.212 27.4472 84.1428 27.0885 84.8796 26.3711C85.6164 25.6342 85.9849 24.5871 85.9849 23.2299V22.939C85.9849 21.5816 85.6164 20.5442 84.8796 19.8267C84.1621 19.09 83.2314 18.7215 82.0874 18.7215C80.9628 18.7215 80.032 19.09 79.2951 19.8267C78.5583 20.5442 78.1899 21.5816 78.1899 22.939V23.2299C78.1899 24.5871 78.5583 25.6342 79.2951 26.3711C80.032 27.0885 80.9628 27.4472 82.0874 27.4472Z" fill="#3A5088"/>
<path d="M91.0256 23.1426V22.6772C91.0256 21.1647 91.3261 19.8752 91.9273 18.8087C92.5284 17.723 93.3234 16.8989 94.3123 16.3365C95.3206 15.7549 96.4161 15.464 97.599 15.464C98.9175 15.464 99.9161 15.6966 100.595 16.162C101.274 16.6274 101.768 17.1121 102.078 17.6162H102.602V15.8711H106.208V32.8571C106.208 33.8461 105.918 34.6314 105.336 35.2131C104.754 35.8142 103.979 36.1147 103.009 36.1147H93.3525V32.9154H101.729C102.272 32.9154 102.544 32.6245 102.544 32.0427V28.2907H102.02C101.826 28.601 101.555 28.9209 101.206 29.2506C100.857 29.5607 100.391 29.8226 99.8095 30.0359C99.2278 30.2491 98.491 30.3559 97.599 30.3559C96.4161 30.3559 95.3206 30.0746 94.3123 29.5124C93.3234 28.9306 92.5284 28.1065 91.9273 27.04C91.3261 25.9542 91.0256 24.655 91.0256 23.1426ZM98.6461 27.1564C99.7708 27.1564 100.711 26.7976 101.467 26.0802C102.224 25.3627 102.602 24.3545 102.602 23.0554V22.7645C102.602 21.4459 102.224 20.4376 101.467 19.7395C100.731 19.0221 99.7901 18.6634 98.6461 18.6634C97.5214 18.6634 96.581 19.0221 95.8248 19.7395C95.0685 20.4376 94.6904 21.4459 94.6904 22.7645V23.0554C94.6904 24.3545 95.0685 25.3627 95.8248 26.0802C96.581 26.7976 97.5214 27.1564 98.6461 27.1564Z" fill="#3A5088"/>
<path d="M115.827 30.7049C114.392 30.7049 113.102 30.414 111.958 29.8322C110.814 29.2506 109.913 28.4071 109.253 27.3019C108.594 26.1966 108.264 24.8684 108.264 23.3171V22.8517C108.264 21.3005 108.594 19.9722 109.253 18.867C109.913 17.7617 110.814 16.9182 111.958 16.3365C113.102 15.7549 114.392 15.464 115.827 15.464C117.262 15.464 118.551 15.7549 119.695 16.3365C120.839 16.9182 121.741 17.7617 122.4 18.867C123.059 19.9722 123.389 21.3005 123.389 22.8517V23.3171C123.389 24.8684 123.059 26.1966 122.4 27.3019C121.741 28.4071 120.839 29.2506 119.695 29.8322C118.551 30.414 117.262 30.7049 115.827 30.7049ZM115.827 27.4472C116.951 27.4472 117.882 27.0885 118.619 26.3711C119.356 25.6342 119.724 24.5871 119.724 23.2299V22.939C119.724 21.5816 119.356 20.5442 118.619 19.8267C117.902 19.09 116.971 18.7215 115.827 18.7215C114.702 18.7215 113.771 19.09 113.035 19.8267C112.298 20.5442 111.929 21.5816 111.929 22.939V23.2299C111.929 24.5871 112.298 25.6342 113.035 26.3711C113.771 27.0885 114.702 27.4472 115.827 27.4472Z" fill="#3A5088"/>
<path d="M125.463 30.2977V15.8712H129.128V30.2977H125.463ZM127.296 14.1843C126.636 14.1843 126.074 13.9709 125.608 13.5443C125.162 13.1178 124.939 12.5554 124.939 11.8574C124.939 11.1593 125.162 10.597 125.608 10.1704C126.074 9.74382 126.636 9.53052 127.296 9.53052C127.974 9.53052 128.537 9.74382 128.982 10.1704C129.428 10.597 129.652 11.1593 129.652 11.8574C129.652 12.5554 129.428 13.1178 128.982 13.5443C128.537 13.9709 127.974 14.1843 127.296 14.1843Z" fill="#3A5088"/>
<path d="M131.881 36.1147V15.8711H135.487V17.6162H136.011C136.339 17.054 136.853 16.5595 137.552 16.1329C138.249 15.687 139.248 15.464 140.548 15.464C141.711 15.464 142.787 15.7549 143.776 16.3365C144.766 16.8989 145.561 17.7326 146.161 18.8379C146.762 19.9431 147.063 21.2811 147.063 22.8517V23.3171C147.063 24.8877 146.762 26.2256 146.161 27.3309C145.561 28.4361 144.766 29.2796 143.776 29.8614C142.787 30.4236 141.711 30.7049 140.548 30.7049C139.676 30.7049 138.938 30.5982 138.337 30.3849C137.756 30.191 137.281 29.9389 136.912 29.6286C136.563 29.299 136.282 28.9694 136.068 28.6397H135.544V36.1147H131.881ZM139.442 27.5054C140.587 27.5054 141.527 27.1467 142.263 26.4292C143.019 25.6924 143.398 24.626 143.398 23.2299V22.939C143.398 21.5429 143.019 20.4861 142.263 19.7686C141.507 19.0317 140.567 18.6634 139.442 18.6634C138.318 18.6634 137.377 19.0317 136.621 19.7686C135.864 20.4861 135.487 21.5429 135.487 22.939V23.2299C135.487 24.626 135.864 25.6924 136.621 26.4292C137.377 27.1467 138.318 27.5054 139.442 27.5054Z" fill="#3A5088"/>
<path d="M155.11 30.7049C153.229 30.7049 151.688 30.2976 150.485 29.4832C149.284 28.6689 148.557 27.5054 148.304 25.993L151.678 25.1204C151.814 25.7991 152.037 26.3322 152.348 26.7201C152.677 27.1079 153.074 27.3891 153.54 27.5636C154.024 27.7187 154.548 27.7962 155.11 27.7962C155.964 27.7962 156.594 27.6509 157 27.36C157.408 27.0497 157.612 26.6716 157.612 26.2256C157.612 25.7796 157.418 25.4404 157.03 25.2076C156.642 24.9556 156.022 24.752 155.169 24.5969L154.354 24.4514C153.345 24.2575 152.425 23.9957 151.592 23.6661C150.757 23.3171 150.088 22.842 149.584 22.2409C149.08 21.6399 148.828 20.8642 148.828 19.9141C148.828 18.4791 149.352 17.3836 150.399 16.6274C151.445 15.8517 152.823 15.464 154.529 15.464C156.138 15.464 157.477 15.8226 158.543 16.5401C159.609 17.2576 160.307 18.198 160.637 19.3615L157.234 20.4085C157.079 19.6717 156.759 19.1481 156.274 18.8379C155.808 18.5276 155.227 18.3725 154.529 18.3725C153.83 18.3725 153.298 18.4986 152.929 18.7506C152.56 18.9834 152.377 19.313 152.377 19.7395C152.377 20.2049 152.57 20.554 152.958 20.7866C153.345 20.9999 153.869 21.1647 154.529 21.2811L155.343 21.4265C156.429 21.6204 157.408 21.8822 158.28 22.2119C159.173 22.5221 159.87 22.9777 160.375 23.5789C160.898 24.1606 161.16 24.9556 161.16 25.9639C161.16 27.4764 160.608 28.6495 159.503 29.4832C158.417 30.2976 156.953 30.7049 155.11 30.7049Z" fill="#3A5088"/>
<path d="M168.561 30.5304C167.436 30.5304 166.447 30.2783 165.593 29.7742C164.759 29.2507 164.111 28.5332 163.644 27.6218C163.179 26.7104 162.947 25.6634 162.947 24.4805V15.8712H166.612V24.1897C166.612 25.2755 166.873 26.0899 167.397 26.6329C167.939 27.1758 168.706 27.4473 169.694 27.4473C170.819 27.4473 171.692 27.0789 172.312 26.342C172.933 25.5858 173.243 24.5387 173.243 23.2008V15.8712H176.908V30.2977H173.301V28.4072H172.778C172.546 28.8919 172.108 29.3669 171.469 29.8323C170.829 30.2977 169.859 30.5304 168.561 30.5304Z" fill="#3A5088"/>
<path d="M179.677 30.2976V15.8711H183.283V17.4417H183.807C184.059 16.957 184.477 16.5401 185.058 16.1911C185.639 15.8226 186.406 15.6385 187.356 15.6385C188.383 15.6385 189.208 15.8421 189.828 16.2492C190.448 16.6371 190.923 17.1509 191.253 17.7909H191.777C192.107 17.1704 192.572 16.6565 193.173 16.2492C193.774 15.8421 194.627 15.6385 195.732 15.6385C196.624 15.6385 197.429 15.8324 198.147 16.2202C198.883 16.5886 199.466 17.1606 199.892 17.9362C200.338 18.6925 200.561 19.6522 200.561 20.8157V30.2976H196.896V21.0775C196.896 20.2825 196.692 19.6911 196.286 19.3032C195.878 18.8961 195.306 18.6925 194.569 18.6925C193.736 18.6925 193.086 18.9639 192.621 19.5069C192.174 20.0304 191.952 20.7866 191.952 21.7755V30.2976H188.287V21.0775C188.287 20.2825 188.083 19.6911 187.676 19.3032C187.268 18.8961 186.697 18.6925 185.959 18.6925C185.126 18.6925 184.476 18.9639 184.011 19.5069C183.564 20.0304 183.342 20.7866 183.342 21.7755V30.2976H179.677Z" fill="#3A5088"/>
<path d="M49.0366 19.3909C49.0366 14.2481 46.9936 9.31594 43.3571 5.67945C39.7206 2.04296 34.7885 6.74394e-07 29.6457 0C24.503 -6.74392e-07 19.5709 2.04296 15.9344 5.67945C12.2978 9.31594 10.2549 14.2481 10.2549 19.3909H16.3146C18.3226 19.3909 19.8886 17.7081 20.6241 15.8396C21.107 14.6129 21.8397 13.4855 22.79 12.5351C24.6082 10.7169 27.0744 9.69543 29.6457 9.69543C32.2171 9.69543 34.6832 10.7169 36.5015 12.5351C38.3197 14.3534 39.3411 16.8195 39.3411 19.3909H49.0366Z" fill="url(#paint0_linear_290_57094)"/>
<path d="M37.8661 26.8114C38.8406 24.4587 39.3422 21.9372 39.3422 19.3909H49.0366C49.0366 30.1001 40.3549 38.7816 29.6457 38.7816C27.9686 38.7816 26.3411 38.5687 24.7891 38.1685C25.6672 37.9422 26.5303 37.6541 27.3718 37.3056C29.7244 36.3311 31.8621 34.9029 33.6627 33.1022C35.4633 31.3016 36.8917 29.164 37.8661 26.8114Z" fill="#FBCF8E"/>
<path d="M0.560547 19.3907C0.560547 21.9372 1.06211 24.4587 2.03658 26.8114C3.01107 29.164 4.43938 31.3016 6.24 33.1022C8.0406 34.9027 10.1782 36.3311 12.5308 37.3056C14.8834 38.2801 17.4049 38.7816 19.9514 38.7816C22.4978 38.7816 25.0193 38.2801 27.3719 37.3056C29.7245 36.3311 31.8622 34.9027 33.6628 33.1022C35.4634 31.3016 36.8917 29.164 37.8662 26.8114C38.8407 24.4587 39.3423 21.9372 39.3423 19.3907H33.2825C31.2745 19.3907 29.7085 21.0735 28.973 22.9419C28.9522 22.9951 28.9307 23.0481 28.9088 23.1011C28.4215 24.2774 27.7074 25.3462 26.807 26.2465C25.9068 27.1467 24.8379 27.861 23.6617 28.3482C22.4854 28.8355 21.2247 29.0862 19.9514 29.0862C18.6782 29.0862 17.4174 28.8355 16.2412 28.3482C15.0648 27.861 13.996 27.1467 13.0957 26.2465C12.1954 25.3462 11.4812 24.2774 10.994 23.1011C10.5067 21.9247 10.256 20.664 10.256 19.3907H0.560547Z" fill="url(#paint1_linear_290_57094)"/>
<path d="M0.562744 19.3909C0.562744 8.68155 9.2443 0 19.9535 0C21.6303 0 23.2573 0.212808 24.8091 0.612904C21.4793 1.47071 18.4075 3.20669 15.9346 5.67946C12.2982 9.31591 10.2552 14.2481 10.2552 19.3909H0.562744Z" fill="#73E5E2"/>
</g>
<defs>
<linearGradient id="paint0_linear_290_57094" x1="49.0366" y1="9.69542" x2="10.2549" y2="9.69542" gradientUnits="userSpaceOnUse">
<stop stop-color="#73E5E2"/>
<stop offset="1" stop-color="#394F87"/>
</linearGradient>
<linearGradient id="paint1_linear_290_57094" x1="0.560548" y1="29.0862" x2="39.3423" y2="29.0862" gradientUnits="userSpaceOnUse">
<stop stop-color="#FBDC8E"/>
<stop offset="1" stop-color="#FB958E"/>
</linearGradient>
<clipPath id="clip0_290_57094">
<rect width="200" height="40" fill="white" transform="translate(0.560547)"/>
</clipPath>
</defs>
</svg>
