<svg width="162" height="40" viewBox="0 0 162 40" fill="none" xmlns="http://www.w3.org/2000/svg">
<path d="M1.4856 29.6651L1.4856 9.88837L11.3739 15.3819V24.2264L19.2847 28.6762L27.1953 24.2264V15.3819L37.0837 9.88837V29.6651L19.2847 39.5534L1.4856 29.6651Z" fill="#192657"/>
<path fill-rule="evenodd" clip-rule="evenodd" d="M6.42978 12.6352L1.4856 9.88836L19.2847 0L37.0837 9.88836L32.1395 12.6352V27.1929L19.2847 34.6093L6.42977 27.1929L6.42978 12.6352ZM31.6039 12.9327L27.1953 15.3819V15.3269L19.2847 10.8772L11.3739 15.3269V15.3819L6.96539 12.9327V26.8887L19.2847 33.996L31.6039 26.8887V12.9327Z" fill="url(#paint0_linear_290_57063)"/>
<path d="M46.5605 28.1021V11.4897H49.6932V25.2542H57.2875V28.1021H46.5605Z" fill="#192657"/>
<path d="M64.0509 28.4343C62.8802 28.4343 61.8281 28.197 60.8946 27.7223C59.9611 27.2477 59.2255 26.5595 58.6876 25.6577C58.1496 24.7559 57.8806 23.6721 57.8806 22.4064V22.0266C57.8806 20.7609 58.1496 19.6771 58.6876 18.7753C59.2255 17.8736 59.9611 17.1854 60.8946 16.7107C61.8281 16.236 62.8802 15.9987 64.0509 15.9987C65.2218 15.9987 66.2739 16.236 67.2073 16.7107C68.1408 17.1854 68.8765 17.8736 69.4144 18.7753C69.9523 19.6771 70.2214 20.7609 70.2214 22.0266V22.4064C70.2214 23.6721 69.9523 24.7559 69.4144 25.6577C68.8765 26.5595 68.1408 27.2477 67.2073 27.7223C66.2739 28.197 65.2218 28.4343 64.0509 28.4343ZM64.0509 25.7763C64.9686 25.7763 65.7281 25.4837 66.3292 24.8982C66.9305 24.297 67.231 23.4426 67.231 22.3351V22.0979C67.231 20.9904 66.9305 20.1439 66.3292 19.5585C65.7439 18.9574 64.9844 18.6567 64.0509 18.6567C63.1333 18.6567 62.3739 18.9574 61.7727 19.5585C61.1715 20.1439 60.8709 20.9904 60.8709 22.0979V22.3351C60.8709 23.4426 61.1715 24.297 61.7727 24.8982C62.3739 25.4837 63.1333 25.7763 64.0509 25.7763Z" fill="#192657"/>
<path d="M71.344 22.264V21.8843C71.344 20.6502 71.5892 19.5981 72.0797 18.7279C72.5701 17.8419 73.2188 17.1695 74.0257 16.7107C74.8484 16.236 75.7423 15.9987 76.7074 15.9987C77.7833 15.9987 78.5981 16.1886 79.1518 16.5683C79.7056 16.948 80.109 17.3436 80.3621 17.7549H80.7894V16.3309H83.7321V30.1905C83.7321 30.9973 83.4947 31.6381 83.0201 32.1128C82.5455 32.6032 81.9126 32.8485 81.1216 32.8485H73.2425V30.238H80.0774C80.5203 30.238 80.7419 30.0006 80.7419 29.526V26.4645H80.3146C80.1564 26.7177 79.9349 26.9787 79.6502 27.2477C79.3654 27.5008 78.9857 27.7144 78.511 27.8885C78.0364 28.0625 77.4352 28.1496 76.7074 28.1496C75.7423 28.1496 74.8484 27.9201 74.0257 27.4612C73.2188 26.9866 72.5701 26.3142 72.0797 25.4441C71.5892 24.5581 71.344 23.4981 71.344 22.264ZM77.5618 25.539C78.4794 25.539 79.2467 25.2463 79.8638 24.6609C80.4808 24.0756 80.7894 23.2528 80.7894 22.1928V21.9555C80.7894 20.8796 80.4808 20.0569 79.8638 19.4874C79.2625 18.902 78.4953 18.6092 77.5618 18.6092C76.6441 18.6092 75.8767 18.902 75.2598 19.4874C74.6427 20.0569 74.3342 20.8796 74.3342 21.9555V22.1928C74.3342 23.2528 74.6427 24.0756 75.2598 24.6609C75.8767 25.2463 76.6441 25.539 77.5618 25.539Z" fill="#192657"/>
<path d="M91.5802 28.4343C90.4094 28.4343 89.3573 28.197 88.4238 27.7223C87.4903 27.2477 86.7546 26.5595 86.2167 25.6577C85.6789 24.7559 85.4099 23.6721 85.4099 22.4064V22.0266C85.4099 20.7609 85.6789 19.6771 86.2167 18.7753C86.7546 17.8736 87.4903 17.1854 88.4238 16.7107C89.3573 16.236 90.4094 15.9987 91.5802 15.9987C92.751 15.9987 93.8031 16.236 94.7365 16.7107C95.67 17.1854 96.4057 17.8736 96.9436 18.7753C97.4816 19.6771 97.7505 20.7609 97.7505 22.0266V22.4064C97.7505 23.6721 97.4816 24.7559 96.9436 25.6577C96.4057 26.5595 95.67 27.2477 94.7365 27.7223C93.8031 28.197 92.751 28.4343 91.5802 28.4343ZM91.5802 25.7763C92.4978 25.7763 93.2573 25.4837 93.8584 24.8982C94.4597 24.297 94.7603 23.4426 94.7603 22.3351V22.0979C94.7603 20.9904 94.4597 20.1439 93.8584 19.5585C93.2731 18.9574 92.5137 18.6567 91.5802 18.6567C90.6625 18.6567 89.9032 18.9574 89.3019 19.5585C88.7007 20.1439 88.4001 20.9904 88.4001 22.0979V22.3351C88.4001 23.4426 88.7007 24.297 89.3019 24.8982C89.9032 25.4837 90.6625 25.7763 91.5802 25.7763Z" fill="#192657"/>
<path d="M99.4428 28.1021V16.3309H102.433V28.1021H99.4428ZM100.938 14.9545C100.4 14.9545 99.9411 14.7805 99.5614 14.4324C99.1975 14.0843 99.0156 13.6255 99.0156 13.056C99.0156 12.4864 99.1975 12.0276 99.5614 11.6795C99.9411 11.3315 100.4 11.1573 100.938 11.1573C101.492 11.1573 101.95 11.3315 102.314 11.6795C102.678 12.0276 102.86 12.4864 102.86 13.056C102.86 13.6255 102.678 14.0843 102.314 14.4324C101.95 14.7805 101.492 14.9545 100.938 14.9545Z" fill="#192657"/>
<path d="M104.679 32.8485V16.3309H107.622V17.7549H108.049C108.317 17.2961 108.736 16.8926 109.307 16.5445C109.876 16.1806 110.691 15.9987 111.751 15.9987C112.701 15.9987 113.579 16.236 114.385 16.7107C115.192 17.1695 115.841 17.8498 116.331 18.7517C116.822 19.6535 117.067 20.7451 117.067 22.0266V22.4064C117.067 23.6879 116.822 24.7796 116.331 25.6814C115.841 26.5832 115.192 27.2715 114.385 27.7461C113.579 28.2049 112.701 28.4343 111.751 28.4343C111.038 28.4343 110.437 28.3472 109.947 28.1732C109.472 28.015 109.085 27.8094 108.785 27.5562C108.5 27.2872 108.27 27.0183 108.096 26.7493H107.669V32.8485H104.679ZM110.849 25.8238C111.783 25.8238 112.55 25.531 113.151 24.9457C113.768 24.3445 114.076 23.4743 114.076 22.3351V22.0979C114.076 20.9587 113.768 20.0964 113.151 19.511C112.534 18.9099 111.767 18.6092 110.849 18.6092C109.931 18.6092 109.164 18.9099 108.547 19.511C107.93 20.0964 107.622 20.9587 107.622 22.0979V22.3351C107.622 23.4743 107.93 24.3445 108.547 24.9457C109.164 25.531 109.931 25.8238 110.849 25.8238Z" fill="#192657"/>
<path d="M123.633 28.4343C122.099 28.4343 120.841 28.1021 119.86 27.4376C118.88 26.773 118.286 25.8238 118.08 24.5897L120.833 23.8778C120.944 24.4315 121.126 24.8666 121.379 25.183C121.648 25.4995 121.972 25.7288 122.352 25.8712C122.747 25.9978 123.174 26.0611 123.633 26.0611C124.329 26.0611 124.844 25.9424 125.176 25.7051C125.508 25.452 125.674 25.1435 125.674 24.7796C125.674 24.4157 125.516 24.1388 125.2 23.9489C124.884 23.7432 124.377 23.5771 123.681 23.4506L123.016 23.3319C122.193 23.1737 121.442 22.9601 120.762 22.6911C120.082 22.4064 119.535 22.0187 119.124 21.5283C118.713 21.0378 118.507 20.4049 118.507 19.6297C118.507 18.4589 118.934 17.565 119.789 16.948C120.643 16.3151 121.767 15.9987 123.159 15.9987C124.472 15.9987 125.564 16.2915 126.433 16.8768C127.304 17.4622 127.873 18.2296 128.143 19.1788L125.366 20.0331C125.24 19.432 124.979 19.0047 124.583 18.7517C124.203 18.4985 123.728 18.3719 123.159 18.3719C122.589 18.3719 122.154 18.4747 121.853 18.6804C121.553 18.8703 121.403 19.1392 121.403 19.4874C121.403 19.867 121.561 20.1518 121.877 20.3417C122.193 20.5157 122.621 20.6502 123.159 20.7451L123.823 20.8638C124.709 21.022 125.508 21.2356 126.221 21.5045C126.948 21.7577 127.517 22.1295 127.929 22.62C128.356 23.0946 128.57 23.7432 128.57 24.566C128.57 25.8001 128.119 26.7572 127.216 27.4376C126.331 28.1021 125.136 28.4343 123.633 28.4343Z" fill="#192657"/>
<path d="M134.607 28.2919C133.69 28.2919 132.883 28.0862 132.187 27.6749C131.507 27.2477 130.976 26.6623 130.596 25.9187C130.217 25.1751 130.027 24.3207 130.027 23.3557V16.3309H133.017V23.1183C133.017 24.0043 133.231 24.6688 133.658 25.1118C134.101 25.5548 134.726 25.7763 135.533 25.7763C136.45 25.7763 137.163 25.4757 137.669 24.8745C138.175 24.2575 138.428 23.4031 138.428 22.3115V16.3309H141.418V28.1021H138.475V26.5595H138.049C137.858 26.955 137.503 27.3426 136.981 27.7223C136.458 28.1021 135.667 28.2919 134.607 28.2919Z" fill="#192657"/>
<path d="M143.678 28.1021V16.331H146.621V17.6125H147.048C147.253 17.217 147.594 16.8769 148.068 16.592C148.543 16.2915 149.168 16.1412 149.944 16.1412C150.782 16.1412 151.454 16.3073 151.961 16.6395C152.467 16.9559 152.854 17.3752 153.124 17.8973H153.55C153.82 17.3911 154.2 16.9718 154.69 16.6395C155.181 16.3073 155.876 16.1412 156.778 16.1412C157.506 16.1412 158.163 16.2994 158.748 16.6158C159.349 16.9163 159.824 17.3831 160.172 18.016C160.535 18.633 160.717 19.4161 160.717 20.3655V28.1021H157.727V20.5791C157.727 19.9303 157.562 19.4478 157.229 19.1314C156.896 18.7992 156.43 18.633 155.829 18.633C155.149 18.633 154.618 18.8545 154.238 19.2975C153.875 19.7246 153.693 20.3417 153.693 21.1486V28.1021H150.703V20.5791C150.703 19.9303 150.536 19.4478 150.205 19.1314C149.872 18.7992 149.406 18.633 148.804 18.633C148.124 18.633 147.594 18.8545 147.214 19.2975C146.85 19.7246 146.668 20.3417 146.668 21.1486V28.1021H143.678Z" fill="#192657"/>
<defs>
<linearGradient id="paint0_linear_290_57063" x1="6.42977" y1="7.69093" x2="33.1283" y2="7.69094" gradientUnits="userSpaceOnUse">
<stop stop-color="#64C2DB"/>
<stop offset="0.307292" stop-color="#7476ED"/>
<stop offset="0.604167" stop-color="#C994DF"/>
<stop offset="1" stop-color="#E56F8C"/>
</linearGradient>
</defs>
</svg>
