<svg width="219" height="40" viewBox="0 0 219 40" fill="none" xmlns="http://www.w3.org/2000/svg">
<g clip-path="url(#clip0_290_57051)">
<path d="M122.916 29.5238H127.579V11.9352H122.916V29.5238ZM122.916 9.19238H127.579V5.00952H122.916V9.19238Z" fill="black"/>
<path d="M130.583 35.2838H135.247V27.5352H135.314C136.308 29.0438 137.921 30.0381 140.389 30.0381C144.915 30.0381 148.001 26.4381 148.001 20.7467C148.001 15.2609 145.018 11.4552 140.355 11.4552C137.955 11.4552 136.309 12.5867 135.178 14.1295H135.075V11.9352H130.583V35.2838ZM139.395 26.1638C136.618 26.1638 135.143 24.0724 135.143 20.8838C135.143 17.7295 136.308 15.2267 139.223 15.2267C142.103 15.2267 143.268 17.5581 143.268 20.8838C143.268 24.2095 141.761 26.1638 139.395 26.1638Z" fill="black"/>
<path d="M157.301 30.0381C161.69 30.0381 164.707 27.9124 164.707 24.3809C164.707 20.2667 161.45 19.4438 158.501 18.8267C155.998 18.3124 153.667 18.1752 153.667 16.6667C153.667 15.3981 154.867 14.7124 156.684 14.7124C158.673 14.7124 159.873 15.3981 160.078 17.2838H164.295C163.953 13.7524 161.381 11.4552 156.753 11.4552C152.741 11.4552 149.587 13.2724 149.587 17.0781C149.587 20.9181 152.673 21.7752 155.827 22.3924C158.227 22.8724 160.455 23.0438 160.455 24.7238C160.455 25.9581 159.29 26.7467 157.233 26.7467C155.141 26.7467 153.701 25.8552 153.393 23.8324H149.073C149.347 27.5695 152.193 30.0381 157.301 30.0381Z" fill="black"/>
<path d="M182.411 29.5238V11.9352H177.748V22.0838C177.748 24.4152 176.411 26.0609 174.217 26.0609C172.228 26.0609 171.303 24.9295 171.303 22.8724V11.9352H166.674V23.6609C166.674 27.5009 168.868 30.0038 172.777 30.0038C175.246 30.0038 176.617 29.0781 177.817 27.4667H177.92V29.5238H182.411Z" fill="black"/>
<path d="M185.427 29.5238H190.09V19.3067C190.09 16.9752 191.359 15.4667 193.245 15.4667C194.959 15.4667 195.953 16.4952 195.953 18.4838V29.5238H200.616V19.3067C200.616 16.9752 201.816 15.4667 203.77 15.4667C205.485 15.4667 206.479 16.4952 206.479 18.4838V29.5238H211.142V17.6952C211.142 13.8552 209.05 11.4552 205.347 11.4552C203.119 11.4552 201.267 12.6209 200.067 14.5409H199.999C199.142 12.6895 197.359 11.4552 195.13 11.4552C192.696 11.4552 190.982 12.6895 190.022 14.3009H189.919V11.9352H185.427V29.5238Z" fill="black"/>
<path d="M1.38477 29.5238H6.04762V5.00952H1.38477V29.5238Z" fill="black"/>
<path d="M17.4489 30.0381C22.9003 30.0381 26.6374 25.9924 26.6374 20.7467C26.6374 15.5009 22.9003 11.4552 17.4489 11.4552C11.9974 11.4552 8.26025 15.5009 8.26025 20.7467C8.26025 25.9924 11.9974 30.0381 17.4489 30.0381ZM17.4489 26.4724C14.5689 26.4724 12.9917 24.1752 12.9917 20.7467C12.9917 17.3181 14.5689 14.9867 17.4489 14.9867C20.2946 14.9867 21.906 17.3181 21.906 20.7467C21.906 24.1752 20.2946 26.4724 17.4489 26.4724Z" fill="black"/>
<path d="M36.5535 35.5238C39.1592 35.5238 41.4221 34.9067 42.8963 33.5352C44.1992 32.3352 44.9878 30.6552 44.9878 28.1867V11.9352H40.4964V13.7867H40.4278C39.3649 12.3124 37.7535 11.4552 35.5592 11.4552C31.1021 11.4552 27.9478 14.8152 27.9478 20.0609C27.9478 25.3752 31.7878 28.4609 35.6964 28.4609C37.9249 28.4609 39.2621 27.5695 40.2906 26.4038H40.3935V28.3238C40.3935 30.7238 39.1249 31.9924 36.4849 31.9924C34.3249 31.9924 33.3306 31.1352 32.9535 30.0381H28.3249C28.8049 33.4667 31.7535 35.5238 36.5535 35.5238ZM36.4849 24.7238C34.0849 24.7238 32.5078 22.9752 32.5078 19.9924C32.5078 17.0438 34.0849 15.1924 36.4506 15.1924C39.2621 15.1924 40.6335 17.3867 40.6335 19.9581C40.6335 22.5638 39.4335 24.7238 36.4849 24.7238Z" fill="black"/>
<path d="M56.3217 30.0381C61.7731 30.0381 65.5103 25.9924 65.5103 20.7467C65.5103 15.5009 61.7731 11.4552 56.3217 11.4552C50.8703 11.4552 47.1331 15.5009 47.1331 20.7467C47.1331 25.9924 50.8703 30.0381 56.3217 30.0381ZM56.3217 26.4724C53.4417 26.4724 51.8646 24.1752 51.8646 20.7467C51.8646 17.3181 53.4417 14.9867 56.3217 14.9867C59.1674 14.9867 60.7789 17.3181 60.7789 20.7467C60.7789 24.1752 59.1674 26.4724 56.3217 26.4724Z" fill="black"/>
<path d="M212.835 9.04765C212.835 8.25867 213.475 7.61908 214.264 7.61908H217.121C217.91 7.61908 218.55 8.25867 218.55 9.04765C218.55 9.83663 217.91 10.4762 217.121 10.4762H214.264C213.475 10.4762 212.835 9.83663 212.835 9.04765Z" fill="black"/>
<path fill-rule="evenodd" clip-rule="evenodd" d="M93.7883 0C104.834 0 113.789 8.95431 113.789 20C113.789 31.0457 104.834 40 93.7883 40C82.7426 40 73.7883 31.0457 73.7883 20C73.7883 8.95431 82.7426 0 93.7883 0ZM93.0654 1.49659C90.7837 1.81769 88.6111 3.65108 86.9246 6.7174C86.4354 7.60683 85.994 8.58946 85.6094 9.65044C87.9026 9.07417 90.4217 8.73442 93.0654 8.68187V1.49659ZM83.919 10.1308C84.3974 8.62958 84.9825 7.2484 85.6578 6.02065C86.4938 4.50059 87.486 3.18795 88.6039 2.17977C82.525 3.94523 77.7335 8.73679 75.968 14.8157C76.9762 13.6978 78.2888 12.7056 79.8089 11.8696C81.0367 11.1943 82.4178 10.6091 83.919 10.1308ZM83.4387 11.8211C82.8624 14.1143 82.5227 16.6334 82.4701 19.2771H75.2848C75.6059 16.9954 77.4393 14.8228 80.5057 13.1364C81.3951 12.6472 82.3777 12.2058 83.4387 11.8211ZM83.9162 19.2771C83.9759 16.392 84.3913 13.6834 85.0785 11.2902C87.4717 10.603 90.1803 10.1876 93.0654 10.1279V13.2508C91.9891 16.0062 89.7939 18.2012 87.0384 19.2771H83.9162ZM82.4701 20.7229H75.2848C75.6059 23.0046 77.4393 25.1771 80.5057 26.8636C81.3951 27.3528 82.3777 27.7942 83.4387 28.1789C82.8624 25.8857 82.5227 23.3666 82.4701 20.7229ZM85.0785 28.7098C84.3913 26.3166 83.9759 23.608 83.9162 20.7229H87.0384C89.7939 21.7988 91.9891 23.9938 93.0654 26.7492V29.8721C90.1803 29.8124 87.4717 29.397 85.0785 28.7098ZM83.919 29.8692C82.4178 29.3909 81.0367 28.8057 79.8089 28.1304C78.2888 27.2944 76.9762 26.3022 75.968 25.1843C77.7335 31.2632 82.525 36.0548 88.6039 37.8202C87.486 36.812 86.4938 35.4994 85.6578 33.9793C84.9825 32.7516 84.3974 31.3704 83.919 29.8692ZM93.0654 38.5034C90.7837 38.1823 88.6111 36.3489 86.9246 33.2826C86.4354 32.3932 85.994 31.4105 85.6094 30.3496C87.9026 30.9258 90.4217 31.2656 93.0654 31.3181V38.5034ZM98.9726 37.8202C100.091 36.812 101.083 35.4994 101.919 33.9793C102.594 32.7516 103.18 31.3704 103.658 29.8692C105.159 29.3909 106.54 28.8057 107.768 28.1304C109.288 27.2944 110.601 26.3022 111.609 25.1843C109.843 31.2632 105.052 36.0548 98.9726 37.8202ZM101.968 30.3496C101.583 31.4105 101.141 32.3932 100.652 33.2826C98.9654 36.3489 96.7928 38.1823 94.5111 38.5034V31.3181C97.1548 31.2656 99.6739 30.9258 101.968 30.3496ZM104.138 28.1789C105.199 27.7942 106.182 27.3528 107.071 26.8636C110.138 25.1772 111.971 23.0046 112.292 20.7229H105.107C105.054 23.3666 104.714 25.8857 104.138 28.1789ZM103.661 20.7229C103.601 23.608 103.186 26.3166 102.498 28.7098C100.105 29.397 97.3962 29.8124 94.5111 29.8721V26.7515C95.5871 23.9951 97.7828 21.7991 100.539 20.7229H103.661ZM105.107 19.2771H112.292C111.971 16.9954 110.138 14.8228 107.071 13.1364C106.182 12.6472 105.199 12.2058 104.138 11.8211C104.714 14.1143 105.054 16.6334 105.107 19.2771ZM102.498 11.2902C103.186 13.6834 103.601 16.392 103.661 19.2771H100.539C97.7828 18.2009 95.5871 16.0049 94.5111 13.2485V10.1279C97.3962 10.1876 100.105 10.603 102.498 11.2902ZM103.658 10.1308C105.159 10.6091 106.54 11.1943 107.768 11.8696C109.288 12.7056 110.601 13.6978 111.609 14.8157C109.843 8.73679 105.052 3.94523 98.9726 2.17977C100.091 3.18795 101.083 4.50059 101.919 6.02065C102.594 7.2484 103.18 8.62958 103.658 10.1308ZM94.5111 1.49659C96.7928 1.81769 98.9654 3.65108 100.652 6.7174C101.141 7.60684 101.583 8.58946 101.968 9.65044C99.6739 9.07417 97.1548 8.73442 94.5111 8.68187V1.49659Z" fill="black"/>
</g>
<defs>
<clipPath id="clip0_290_57051">
<rect width="218" height="40" fill="white" transform="translate(0.560547)"/>
</clipPath>
</defs>
</svg>
