<svg width="20" height="22" viewBox="0 0 20 22" fill="none" xmlns="http://www.w3.org/2000/svg">
<g clip-path="url(#clip0_345_58533)">
<path d="M8.50026 10.984L-1.25317 21.0896L-1.25174 21.0954C-1.09447 21.6475 -0.760415 22.1328 -0.300817 22.4769C0.158781 22.8209 0.718549 23.0047 1.29264 23C1.77995 23 2.23708 22.8707 2.62951 22.6464L2.66114 22.6277L13.6393 16.445L8.50026 10.984Z" fill="#EA4335"/>
<path d="M18.3686 9.2632L18.3586 9.25745L13.6191 6.57507L8.27881 11.2124L13.6378 16.4421L18.3528 13.787C19.1794 13.3514 19.74 12.5019 19.74 11.5201C19.74 10.5469 19.1866 9.7002 18.3686 9.2632Z" fill="#FBBC04"/>
<path d="M-1.25463 1.91187C-1.31213 2.12174 -1.34375 2.34312 -1.34375 2.57312V20.4269C-1.34375 20.6569 -1.31356 20.8797 -1.25463 21.0881L8.83662 11.2427L-1.25463 1.91187Z" fill="#4285F4"/>
<path d="M8.57214 11.5L13.6206 6.57369L2.65251 0.368001C2.23997 0.126688 1.77058 -0.000336894 1.29264 6.71052e-07C0.0736387 6.71052e-07 -0.955611 0.809313 -1.25317 1.90756V1.91044L8.57214 11.5Z" fill="#34A853"/>
</g>
<defs>
<clipPath id="clip0_345_58533">
<rect width="24" height="23" fill="white" transform="translate(-4)"/>
</clipPath>
</defs>
</svg>
