<svg width="1186" height="563" viewBox="0 0 1186 563" fill="none" xmlns="http://www.w3.org/2000/svg">
<g clip-path="url(#clip0_387_56067)">
<g clip-path="url(#clip1_387_56067)">
<rect width="1185" height="622" transform="translate(1.5 -20)" fill="#121212" fill-opacity="0.25"/>
<path d="M1186.5 15.2047V567.954C1186.5 581.21 1168.2 592.663 1141.65 598.216C1130.61 600.559 1118.18 601.841 1104.98 601.841H715.704C715.548 601.941 715.392 601.97 715.236 602L712.992 601.841H83.0238C38.0141 601.841 1.51196 586.694 1.51196 567.954V15.2047C1.51196 13.4413 1.82395 11.6729 2.51991 9.97381C3.68385 6.76393 5.91574 3.68283 8.99958 0.829596V0.799876C11.3875 -1.34996 14.2433 -3.371 17.4952 -5.2682C18.5751 -5.91216 19.739 -6.52144 20.963 -7.13073C22.5829 -8.02732 24.4428 -8.86446 26.4467 -9.63226C27.3707 -10.0186 28.3786 -10.4347 29.3746 -10.8211C32.3864 -11.9456 35.6262 -13.0007 39.0221 -13.9666C41.266 -14.6106 43.5818 -15.1852 46.0417 -15.7301C49.5935 -16.5622 53.3733 -17.2706 57.3091 -17.8502C66.4287 -19.2272 76.3042 -20 86.5757 -20H1101.44C1113.63 -20 1125.21 -18.9399 1135.71 -17.013C1137.17 -16.7257 1138.63 -16.4335 1140.11 -16.1164C1146.75 -14.7344 1152.93 -12.9709 1158.41 -10.9202C1159.49 -10.5041 1160.57 -10.088 1161.58 -9.66693C1163.74 -8.83474 1165.67 -7.9332 1167.44 -6.97221C1168.61 -6.36293 1169.76 -5.75365 1170.77 -5.14436C1172.86 -3.92579 1174.78 -2.64283 1176.55 -1.29547C1178.26 0.0518916 1179.79 1.46365 1181.11 2.87541C1183.12 5.02524 1184.51 7.26919 1185.43 9.61716C1185.66 10.2264 1185.9 10.8704 1186.04 11.5094C1186.36 12.7329 1186.5 13.9515 1186.5 15.2047Z" fill="#ACADBC" fill-opacity="0.2"/>
<path d="M949.836 309.41L822.75 331.839C818.539 332.582 813.679 331.765 811.891 330.017L805.651 323.904C803.863 322.155 805.831 320.129 810.043 319.386L937.129 296.957C941.34 296.214 946.2 297.031 947.988 298.78L954.228 304.892C956.016 306.646 954.048 308.667 949.836 309.41Z" fill="#ACADBC" fill-opacity="0.2"/>
<path d="M1012.23 320.738L885.147 343.168C880.935 343.911 876.076 343.094 874.288 341.345L868.048 335.232C866.26 333.484 868.228 331.458 872.44 330.715L999.525 308.285C1003.74 307.542 1008.6 308.36 1010.38 310.108L1016.62 316.221C1018.4 317.974 1016.44 319.995 1012.23 320.738Z" fill="#ACADBC" fill-opacity="0.2"/>
<path d="M1074.15 332.86L947.064 355.289C942.852 356.032 937.993 355.215 936.205 353.467L929.965 347.354C928.177 345.605 930.145 343.579 934.357 342.836L1061.44 320.407C1065.65 319.664 1070.51 320.481 1072.3 322.23L1078.54 328.342C1080.33 330.096 1078.36 332.117 1074.15 332.86Z" fill="#ACADBC" fill-opacity="0.2"/>
<path d="M184.635 38.0455L48.3216 47.1451C43.8099 47.4473 39.5501 46.1693 38.8301 44.2919L36.2982 37.7334C35.5783 35.856 38.6501 34.0876 43.1619 33.7854L179.475 24.6858C183.987 24.3836 188.247 25.6617 188.966 27.539L191.498 34.0975C192.23 35.9799 189.146 37.7433 184.635 38.0455Z" fill="#ACADBC" fill-opacity="0.2"/>
<path d="M204.554 13.4016L68.2406 22.5013C63.7288 22.8035 59.469 21.5254 58.7491 19.6481L56.2172 13.0896C55.4972 11.2122 58.5691 9.44378 63.0808 9.14161L199.394 0.0419751C203.906 -0.26019 208.165 1.01782 208.885 2.89521L211.417 9.45368C212.149 11.336 209.077 13.0995 204.554 13.4016Z" fill="#ACADBC" fill-opacity="0.2"/>
<path d="M662.655 485.914L567.271 482.234C563.372 482.085 560.504 480.648 560.864 479.024L562.556 471.425C562.916 469.805 566.371 468.611 570.271 468.76L665.654 472.44C669.554 472.589 672.422 474.026 672.062 475.65L670.37 483.249C670.01 484.874 666.554 486.068 662.655 485.914Z" fill="#ACADBC" fill-opacity="0.2"/>
<path d="M287.194 477.434L197.174 463.821C193.49 463.266 191.594 461.572 192.938 460.042L199.214 452.869C200.558 451.338 204.626 450.551 208.31 451.106L298.329 464.718C302.013 465.273 303.909 466.967 302.565 468.497L296.289 475.67C294.945 477.201 290.877 477.988 287.194 477.434Z" fill="#ACADBC" fill-opacity="0.2"/>
<path d="M1158.93 516.235L1087.33 513.47C1083.91 513.337 1081.4 512.079 1081.71 510.657L1083.57 502.33C1083.88 500.908 1086.92 499.863 1090.34 499.997L1161.94 502.761C1165.36 502.895 1167.87 504.153 1167.55 505.575L1165.69 513.901C1165.37 515.323 1162.35 516.368 1158.93 516.235Z" fill="#ACADBC" fill-opacity="0.2"/>
<path d="M708.192 305.135L642.004 316.815C638.848 317.375 635.2 316.761 633.856 315.448L625.996 307.75C624.652 306.438 626.128 304.922 629.284 304.362L695.473 292.682C698.629 292.122 702.276 292.736 703.62 294.049L711.48 301.747C712.824 303.064 711.348 304.58 708.192 305.135Z" fill="#ACADBC" fill-opacity="0.2"/>
<path d="M548.96 333.964L520.87 306.448C519.526 305.135 521.002 303.619 524.157 303.059L542.673 299.79C545.828 299.23 549.476 299.845 550.82 301.157L578.911 328.674C580.255 329.987 578.779 331.502 575.623 332.062L557.108 335.332C553.952 335.891 550.304 335.277 548.96 333.964Z" fill="#ACADBC" fill-opacity="0.2"/>
<path d="M103.195 358.262L61.677 333.855C59.6971 332.691 60.3571 331.077 63.1649 330.254L79.5921 325.425C82.3999 324.602 86.2757 324.88 88.2556 326.044L129.774 350.45C131.753 351.614 131.093 353.229 128.286 354.051L111.858 358.881C109.051 359.703 105.175 359.431 103.195 358.262Z" fill="#ACADBC" fill-opacity="0.2"/>
<path d="M589.974 104.457L527.709 89.5127C524.733 88.7994 523.714 87.2192 525.429 85.9808L535.485 78.7387C537.201 77.5053 541.005 77.0793 543.98 77.7926L606.245 92.7374C609.221 93.4507 610.241 95.0309 608.525 96.2693L598.47 103.511C596.754 104.75 592.95 105.171 589.974 104.457Z" fill="#ACADBC" fill-opacity="0.2"/>
<path d="M500.843 86.3919L438.578 71.4471C435.602 70.7338 434.582 69.1536 436.298 67.9152L446.354 60.6732C448.069 59.4398 451.873 59.0137 454.849 59.7271L517.114 74.6719C520.09 75.3852 521.11 76.9653 519.394 78.2037L509.338 85.4458C507.622 86.6842 503.819 87.1052 500.843 86.3919Z" fill="#ACADBC" fill-opacity="0.2"/>
<path d="M319.424 27.6678L291.957 0.0419825C290.649 -1.27566 292.149 -2.78648 295.329 -3.33137L313.916 -6.5264C317.084 -7.07129 320.72 -6.44219 322.04 -5.12455L349.506 22.5013C350.814 23.8189 349.314 25.3298 346.135 25.8746L327.548 29.0697C324.368 29.6146 320.732 28.9904 319.424 27.6678Z" fill="#ACADBC" fill-opacity="0.2"/>
<path d="M408.711 24.7551L381.245 -2.8707C379.937 -4.18834 381.437 -5.69917 384.617 -6.24406L403.204 -9.43909C406.371 -9.98398 410.007 -9.35488 411.327 -8.03724L438.794 19.5886C440.102 20.9062 438.602 22.4171 435.422 22.962L416.835 26.157C413.667 26.7019 410.031 26.0728 408.711 24.7551Z" fill="#ACADBC" fill-opacity="0.2"/>
<path d="M52.6534 361.293L11.1355 336.887C9.15559 335.723 9.81555 334.108 12.6234 333.286L29.0506 328.456C31.8584 327.634 35.7342 327.911 37.7141 329.075L79.232 353.481C81.2119 354.645 80.552 356.26 77.7441 357.083L61.3169 361.912C58.5211 362.735 54.6453 362.457 52.6534 361.293Z" fill="#ACADBC" fill-opacity="0.2"/>
<path d="M156.46 325.34L129.366 298.804C127.746 297.219 129.522 295.391 133.337 294.718L161.8 289.695C165.616 289.021 170.007 289.759 171.627 291.344L198.722 317.88C200.342 319.465 198.566 321.293 194.75 321.967L166.288 326.99C162.484 327.664 158.08 326.925 156.46 325.34Z" fill="#ACADBC" fill-opacity="0.2"/>
<path d="M263.087 95.2587L223.057 71.7245C220.669 70.3177 221.473 68.3759 224.845 67.3802L250.091 59.9599C253.475 58.9642 258.155 59.301 260.543 60.7029L300.573 84.2371C302.961 85.6439 302.157 87.5857 298.785 88.5814L273.538 96.0017C270.154 96.9974 265.475 96.6655 263.087 95.2587Z" fill="#ACADBC" fill-opacity="0.2"/>
<path d="M129.882 494.335L102.787 467.799C101.167 466.214 102.943 464.386 106.759 463.712L135.221 458.689C139.037 458.016 143.429 458.754 145.049 460.339L172.143 486.875C173.763 488.46 171.987 490.288 168.172 490.962L139.709 495.985C135.905 496.658 131.501 495.92 129.882 494.335Z" fill="#ACADBC" fill-opacity="0.2"/>
<path d="M769.857 267.226L667.382 285.311C663.422 286.009 658.851 285.242 657.159 283.597L650.535 277.108C648.855 275.458 650.703 273.561 654.663 272.858L757.138 254.772C761.098 254.074 765.669 254.842 767.361 256.486L773.985 262.975C775.665 264.625 773.817 266.527 769.857 267.226Z" fill="#ACADBC" fill-opacity="0.2"/>
<path d="M422.799 107.682L331.903 134.402C328.387 135.437 323.528 135.09 321.044 133.629L311.252 127.873C308.768 126.412 309.596 124.39 313.112 123.355L404.008 96.6358C407.523 95.6006 412.383 95.9473 414.867 97.4086L424.659 103.165C427.154 104.626 426.314 106.647 422.799 107.682Z" fill="#ACADBC" fill-opacity="0.2"/>
<path d="M876.34 534.092L780.957 530.411C777.057 530.263 774.189 528.826 774.549 527.202L776.241 519.603C776.601 517.983 780.057 516.789 783.956 516.938L879.34 520.618C883.239 520.767 886.107 522.203 885.747 523.828L884.055 531.427C883.695 533.052 880.239 534.241 876.34 534.092Z" fill="#ACADBC" fill-opacity="0.2"/>
<path d="M884.367 513.738L788.984 510.057C785.084 509.909 782.216 508.472 782.576 506.848L784.268 499.249C784.628 497.629 788.084 496.435 791.984 496.584L887.367 500.264C891.267 500.413 894.135 501.849 893.775 503.474L892.083 511.073C891.723 512.693 888.267 513.887 884.367 513.738Z" fill="#ACADBC" fill-opacity="0.2"/>
<path d="M608.753 532.968L585.678 494.315C584.73 492.735 587.046 491.135 590.85 490.744L608.669 488.906C612.473 488.515 616.325 489.476 617.261 491.056L640.336 529.708C641.284 531.288 638.968 532.888 635.164 533.28L617.345 535.117C613.541 535.514 609.701 534.548 608.753 532.968Z" fill="#ACADBC" fill-opacity="0.2"/>
<path d="M239.568 99.7714C239.568 99.7714 278.362 104.527 286.653 116.856C294.945 129.19 260.603 138.751 252.851 142.813C245.1 146.875 158.152 143.224 158.152 143.224C158.152 143.224 72.3443 126.53 70.8324 116.856C69.3205 107.182 0.623973 105.656 81.4399 93.951C162.256 82.2458 123.87 76.1381 162.256 82.2458C200.654 88.3535 239.568 99.7714 239.568 99.7714Z" fill="#60D394"/>
<path d="M1029.42 63.2292C1029.42 63.2292 1068.21 67.9846 1076.5 80.3139C1084.79 92.6433 1050.45 102.209 1042.7 106.27C1034.95 110.332 948 106.682 948 106.682C948 106.682 862.193 89.9882 860.681 80.3139C859.169 70.6397 790.472 69.114 871.288 57.4088C952.104 45.7036 913.718 39.5959 952.104 45.7036C990.49 51.8163 1029.42 63.2292 1029.42 63.2292Z" fill="#FFD97D"/>
<path d="M327.224 277.311C327.224 277.311 320.468 285.346 299.313 287.728C278.158 290.116 260.147 283.82 252.767 282.512C245.388 281.204 248.328 263.614 248.328 263.614C248.328 263.614 274.03 245.48 290.817 244.608C307.605 243.731 307.569 229.916 331.123 245.371C354.69 260.826 363.81 252.796 354.69 260.826C345.571 268.86 327.224 277.311 327.224 277.311Z" fill="#FFD97D"/>
<path d="M1.5 182.684C66.6087 172.931 218.305 159.596 253.235 169.295C288.165 178.989 422.151 178.409 422.151 178.409L544.808 147.578C544.808 147.578 728.879 166.56 727.175 127.328C725.471 88.0914 781.425 26.2812 852.569 11.7377C923.713 -2.80592 929.293 -19.9897 929.293 -19.9897H867.376C867.376 -19.9897 834.102 7.28938 803.107 9.71661C772.113 12.1389 681.59 46.4025 689.917 64.8246C698.257 83.2468 689.917 115.519 689.917 115.519L612.353 126.006L511.666 119.353C511.666 119.353 467.268 143.234 461.281 147.578C455.293 151.923 402.22 160.349 370.613 155.965C339.007 151.576 245.4 151.923 245.4 151.923C245.4 151.923 141.593 169.309 123.162 159.051C104.719 148.797 53.3254 153.537 53.3254 153.537L1.5 159.051V182.684Z" fill="#FFD97D"/>
<path d="M1186.5 298.671V333.553C1179.62 336.184 1169.44 339.616 1158.1 341.642C1149.45 343.247 1140.11 343.951 1131.23 342.861C1127.45 342.41 1123.2 342.638 1118.64 343.441C1104.68 345.848 1088 353.387 1073.79 360.897C1065.99 365.038 1058.97 369.209 1053.64 372.483C1047.39 376.367 1043.53 378.997 1043.53 378.997C1043.53 378.997 968.963 402.551 937.309 406.885C925.729 408.461 914.378 412.151 904.658 416.386C902.414 417.382 900.255 418.378 898.251 419.403C896.007 420.493 893.931 421.617 891.999 422.707C882.123 428.389 876.016 433.842 876.712 436.121C878.176 441.094 876.94 471.291 876.94 471.291L876.496 471.39L863.452 474.248L848.549 477.488L786.644 491.001L739.631 518.662C739.631 518.662 752.758 527.935 770.349 538.208C779.457 543.633 789.956 549.344 800.228 554.124H800.3C804.391 556.016 808.483 557.78 812.491 559.32C831.018 566.379 831.942 585.059 825.378 601.841H769.881C767.877 594.139 764.169 586.119 759.07 578.094C756.214 573.443 752.818 568.821 749.11 564.264C746.098 560.638 742.858 557.042 739.463 553.545C734.291 548.249 728.579 543.112 722.555 538.268C713.364 530.852 703.261 524.116 692.761 518.469C659.643 500.725 702.793 483.135 745.714 471.326C749.962 470.137 754.21 469.047 758.446 467.987C762.538 466.962 766.545 465.966 770.493 465.07C792.416 459.938 809.779 456.916 809.779 456.916L863.74 401.684C863.74 401.684 863.896 401.654 864.124 401.555C864.28 401.526 864.436 401.461 864.664 401.397C865.828 401.01 868.288 400.272 871.684 399.247C873.772 398.573 876.244 397.835 879.1 396.968C887.511 394.467 898.779 391.158 911.366 387.631C945.252 378.259 988.786 367.51 1012.26 366.995C1034.25 366.514 1072.93 352.936 1110.29 336.669C1119.33 332.756 1128.28 328.644 1136.92 324.538C1156.09 315.423 1173.54 306.244 1186.5 298.671Z" fill="#FFD97D"/>
<path d="M397.816 593.242C397.204 595.872 396.112 598.409 394.732 600.881C394.504 601.202 394.348 601.524 394.12 601.841H113.286C113.214 601.841 113.214 601.812 113.214 601.812C109.122 599.627 105.343 597.477 101.863 595.328C92.2153 589.23 85.8076 583.325 85.3397 578.253C83.1798 555.209 -15.9352 551.583 100.627 523.695C103.711 522.956 106.651 522.218 109.506 521.51C115.29 520.034 120.618 518.622 125.562 517.24C209.089 493.651 166.396 482.422 217.273 495.801C232.02 499.65 246.755 504.435 260.579 509.31C265.283 511.009 269.914 512.742 274.402 514.441C305.661 526.315 328.819 537.55 328.819 537.55C328.819 537.55 384.785 548.844 396.748 578.243C398.896 583.454 399.052 588.457 397.816 593.242Z" fill="#60D394"/>
<path d="M883.563 150.436C792.524 177.542 650.175 178.042 727.187 217.18C804.187 256.318 901.046 299.8 970.691 273.819C1040.34 247.837 1024.45 251.136 1061.54 214.337C1098.64 177.537 1134.91 147.177 1016.12 137.542C897.327 127.912 883.563 150.436 883.563 150.436Z" fill="#60D394"/>
<path d="M633.46 385.516C575.527 397.924 484.932 398.152 533.937 416.069C582.943 433.986 644.583 453.889 688.897 441.996C733.211 430.103 723.107 431.613 746.71 414.766C770.313 397.92 793.412 384.02 717.816 379.611C642.22 375.208 633.46 385.516 633.46 385.516Z" fill="#60D394"/>
<path d="M372.281 532.7C399.544 550.463 396.148 577.054 441.302 563.784C486.456 550.513 536.937 533.656 510.31 519.92C483.684 506.184 486.875 509.245 447.457 501.275C408.039 493.31 375.677 485.676 361.794 507.586C347.911 529.49 372.281 532.7 372.281 532.7Z" fill="#FFD97D"/>
<path d="M1186.49 364.701V398.38L1137.51 358.713L1129.01 351.817L1022.86 265.888L1005.97 252.227L932.785 192.972L924.337 186.122L839.13 117.129L830.634 110.253L764.505 56.6909L755.902 49.7312L674.126 -16.4777C672.722 -17.5972 672.05 -18.8058 672.11 -19.9897H711.396L791 44.4755L799.496 51.351L905.798 137.429L914.294 144.304L1039.26 245.485L1056.15 259.147L1186.49 364.701Z" fill="white"/>
<path d="M1186.49 215.62V232.704L1056.14 259.141L1022.86 265.883L773.265 316.543L756.574 319.906L571.135 357.528L554.552 360.892L534.705 364.919L391.66 393.942L353.826 401.61L207.722 431.257L185.751 435.715L150.196 442.912C149.776 442.997 149.321 443.086 148.853 443.17L76.9162 457.778L60.225 461.161L9.58759 471.44C6.99572 471.98 4.19986 472.217 1.5 472.217V455.97L120.294 431.881L154.552 424.941L346.471 386.006C346.938 385.897 347.406 385.813 347.874 385.729L499.787 354.918L533.169 348.132L616.037 331.324L632.62 327.961L876.88 278.425L893.463 275.042L1005.98 252.226L1039.26 245.48L1186.49 215.62Z" fill="white"/>
<path d="M588.714 601.841H551.744C555.992 558.067 540.477 522.704 516.31 494.528C513.382 491.061 510.286 487.727 507.046 484.517C456.481 433.233 378.521 408.46 353.814 401.625C349.11 400.307 346.326 399.633 346.014 399.569C337.135 397.548 333.823 392.862 338.755 389.171C340.843 387.567 344.155 386.412 347.862 385.739C352.806 384.872 358.674 384.936 363.846 386.09C364.926 386.348 375.581 388.82 391.636 393.952C418.503 402.521 460.645 418.536 499.247 444.111C500.099 444.691 500.951 445.265 501.875 445.845C507.274 449.535 512.758 453.513 518.158 457.753C545.408 479.093 570.655 507.462 582.379 543.697C583.998 548.64 585.39 553.743 586.47 559.003C589.182 572.318 590.19 586.565 588.714 601.841Z" fill="white"/>
<path d="M1186.49 91.1275V99.1225L1143 106.34L914.294 144.304L896.211 147.301C895.119 147.494 893.931 147.583 892.791 147.583C889.107 147.583 885.639 146.676 884.235 145.171C882.315 143.189 884.655 140.97 889.371 140.172L905.798 137.438L1126.64 100.787L1143.89 97.9188L1183.07 91.4099C1184.21 91.2117 1185.35 91.1275 1186.49 91.1275Z" fill="white"/>
<path d="M1144.09 106.122C1143.73 106.206 1143.37 106.271 1143 106.335C1141.91 106.509 1140.83 106.593 1139.69 106.593C1136.43 106.593 1133.26 105.86 1131.55 104.567L1126.64 100.777L1013.85 14.1401L1004.99 7.32901L971.819 -18.1569C971.039 -18.7365 970.679 -19.3606 970.679 -19.9897H990.478L1022.14 4.35689L1031.01 11.163L1143.89 97.9093L1147.83 100.926C1150.26 102.784 1148.61 105.107 1144.09 106.122Z" fill="white"/>
<path d="M535.737 497.644C534.525 497.644 533.289 497.545 532.101 497.337L170.655 433.015C165.964 432.178 163.792 429.924 165.796 427.968C167.8 426.021 173.223 425.114 177.927 425.947L539.373 490.268C544.065 491.105 546.236 493.359 544.233 495.316C542.745 496.772 539.325 497.644 535.737 497.644Z" fill="white"/>
<path d="M362.31 466.863L361.926 467.056L274.39 514.456L175.047 568.306L162.844 574.919L113.202 601.812L113.13 601.841H89.8154L101.863 595.328L148.948 569.812L162.46 562.461L260.579 509.319L344.407 463.94L347.646 462.206C350.73 460.507 356.526 460.185 360.534 461.468C364.626 462.791 365.394 465.193 362.31 466.863Z" fill="white"/>
<path d="M696.781 468.373C693.469 468.373 690.265 467.63 688.597 466.328L546.057 354.209C543.669 352.337 545.397 350.009 549.908 349.018C554.42 348.023 560.012 348.741 562.4 350.618L704.94 462.736C707.328 464.609 705.6 466.937 701.089 467.928C699.709 468.23 698.233 468.373 696.781 468.373Z" fill="white"/>
<path d="M941.58 456.173C938.317 456.173 935.149 455.45 933.469 454.177L747.922 313.323C745.474 311.461 747.118 309.127 751.594 308.107C756.07 307.087 761.686 307.77 764.133 309.633L949.68 450.486C952.128 452.344 950.484 454.682 946.008 455.702C944.604 456.019 943.092 456.173 941.58 456.173Z" fill="white"/>
<path d="M870.664 402.343C866.98 402.343 863.512 401.422 862.072 399.916C860.189 397.944 862.516 395.71 867.256 394.928L1147.12 348.845C1151.86 348.067 1157.23 349.028 1159.12 351.005C1161 352.976 1158.67 355.21 1153.93 355.993L874.072 402.075C872.956 402.254 871.804 402.343 870.664 402.343Z" fill="white"/>
<path d="M1186.49 489.907V497.644C1186.02 497.644 1185.66 497.644 1185.19 497.599L1066.35 490.511V490.491L1047.95 489.391L909.314 481.119L890.919 480.019L695.533 468.339L518.182 457.758V457.738L488.075 455.95C484.451 455.737 481.44 454.613 480.456 453.127C479.52 451.621 480.816 450.045 483.768 449.099L499.259 444.121L613.697 407.405L619.865 405.424C623.908 404.131 629.716 404.453 632.824 406.137C633.136 406.311 633.448 406.504 633.652 406.697C635.728 408.312 634.792 410.358 631.168 411.522L622.456 414.321L512.374 449.634L680.09 459.655L702.792 461.013L893.523 472.411L911.978 473.51L1050.62 481.783L1068.97 482.882L1186.49 489.907Z" fill="white"/>
<path d="M1158.41 -10.9202L1031.04 11.1627L1013.82 14.1447L799.46 51.3408L781.701 54.4219C781.473 54.4516 781.233 54.4862 781.005 54.516C780.081 54.6745 774.909 55.3482 766.725 56.4082C766.029 56.5023 765.261 56.6014 764.481 56.6955C747.574 58.8454 719.868 62.1494 689.917 64.8144C664.983 67.0583 638.512 68.8911 615.581 69.2131C613.037 69.2428 610.565 69.2775 608.093 69.2775C602.85 69.2775 597.75 69.1834 593.046 68.9902C591.882 68.9258 590.658 68.8317 589.578 68.7673C561.632 66.5233 538.317 51.5339 520.486 34.4938C518.014 32.0864 515.626 29.6492 513.31 27.1774C494.015 6.54102 482.664 -14.8285 480.348 -19.1975C480.192 -19.4551 480.12 -19.7424 480.12 -20H498.875C506.363 -5.6199 519.022 12.6685 534.381 28.2672C534.693 28.4901 534.921 28.718 535.077 28.9756C552.752 46.4962 573.751 60.4553 594.906 61.3221C620.693 62.4119 657.663 59.9401 691.477 56.7995C716.796 54.4268 740.267 51.6627 755.938 49.7408C766.437 48.4231 773.385 47.4968 774.933 47.269L778.173 46.7241L790.988 44.4801L1005.02 7.34349L1022.16 4.36147L1140.11 -16.1115C1146.75 -14.7344 1152.93 -12.9709 1158.41 -10.9202Z" fill="white"/>
<path d="M632.644 340.354C629.296 340.354 626.056 339.597 624.424 338.269C519.046 253.093 517.522 195.434 619.793 161.983C646.179 153.354 660.339 142.867 661.886 130.815C665.834 100.059 588.33 68.2273 587.538 67.9054C583.891 66.4243 583.818 63.9921 587.382 62.4713C590.946 60.9556 596.802 60.9209 600.45 62.402C603.893 63.7989 684.721 96.9479 680.354 131.197C678.53 145.562 661.995 157.951 631.228 168.016C537.021 198.827 540.177 253.366 640.864 334.747C643.203 336.634 641.416 338.948 636.868 339.924C635.5 340.216 634.06 340.354 632.644 340.354Z" fill="white"/>
<path d="M559.136 258.582C555.536 258.582 552.116 257.705 550.628 256.244C548.636 254.287 550.82 252.033 555.524 251.206L942.036 182.996C946.74 182.163 952.164 183.08 954.156 185.032C956.148 186.988 953.964 189.242 949.26 190.069L562.748 258.279C561.572 258.487 560.348 258.582 559.136 258.582Z" fill="white"/>
<path d="M855.569 114.221L839.142 117.129L671.942 146.647L668.414 147.271C667.226 147.464 666.026 147.573 664.79 147.573C663.135 147.573 661.479 147.38 659.967 147.014L653.127 145.29L489.971 104.071L472.968 99.7867L278.722 50.7021L275.77 49.969C273.91 49.5182 272.506 48.7851 271.834 47.9232L268.307 43.6136L217.105 -18.7414C216.745 -19.1526 216.589 -19.5835 216.589 -19.9897H235.56L286.762 42.3851L288.213 44.1288L306.825 48.8247L494.387 96.2052L659.403 137.874L665.522 139.425L678.686 137.097L830.646 110.249L848.369 107.123C853.037 106.306 858.473 107.207 860.501 109.169C862.468 111.12 860.285 113.384 855.569 114.221Z" fill="white"/>
<path d="M645.879 243.602C643.96 241.13 641.572 238.758 638.536 236.543C623.957 225.537 596.622 217.898 564.8 217.061H564.704C562.868 217.031 561.032 216.997 559.112 216.997C557.648 216.997 556.172 216.997 554.708 217.061C551.768 217.096 548.744 217.22 545.901 217.413H545.817C510.226 219.592 481.428 230.346 471.804 244.464V244.494C469.512 247.733 468.408 251.201 468.408 254.733C468.408 257.299 468.96 259.835 470.148 262.242C478.584 279.446 515.278 292.474 559.112 292.474C564.428 292.474 569.839 292.28 574.891 291.894C577.915 291.671 580.855 291.414 583.699 291.062C586.818 290.71 589.842 290.294 592.686 289.779H592.782C626.164 284.196 649.923 270.589 649.923 254.733C649.923 250.854 648.543 247.134 645.879 243.602ZM586.722 282.532H586.626C583.687 283.047 580.663 283.463 577.639 283.785H577.543C574.603 284.107 571.759 284.365 568.735 284.523C565.52 284.716 562.4 284.811 559.1 284.811C519.202 284.811 486.828 271.332 486.828 254.743C486.828 240.239 511.414 228.202 544.341 225.314H544.437C547.376 225.056 550.22 224.898 553.244 224.799C555.176 224.734 557.096 224.704 559.112 224.704C560.492 224.704 561.764 224.704 563.06 224.734H563.156C588.006 225.314 609.569 231.119 621.485 239.56C624.605 241.745 627.076 244.117 628.732 246.619V246.653C630.472 249.219 631.396 251.949 631.396 254.743C631.396 267.255 612.869 278.004 586.722 282.532Z" fill="white"/>
<path d="M941.58 456.178C938.281 456.178 935.161 455.44 933.505 454.187L931.213 452.423C931.213 452.423 931.213 452.423 931.213 452.393L929.281 450.982H929.185C911.666 456.084 898.827 463.593 893.511 472.421L897.183 472.643L911.954 473.51C917.186 465.872 929.473 459.487 945.984 455.697C944.616 456.019 943.056 456.178 941.58 456.178ZM941.58 456.178C938.281 456.178 935.161 455.44 933.505 454.187L931.213 452.423C931.213 452.423 931.213 452.423 931.213 452.393L929.281 450.982H929.185C911.666 456.084 898.827 463.593 893.511 472.421L897.183 472.643L911.954 473.51C917.186 465.872 929.473 459.487 945.984 455.697C944.616 456.019 943.056 456.178 941.58 456.178ZM941.58 456.178C938.281 456.178 935.161 455.44 933.505 454.187L931.213 452.423L929.281 450.977H929.185C911.666 456.079 898.827 463.588 893.511 472.416L897.183 472.639L911.954 473.505C917.186 465.867 929.473 459.482 945.984 455.692C944.616 456.019 943.056 456.178 941.58 456.178ZM979.918 444.398C967.811 444.398 956.076 445.424 945.528 447.286H945.432C942.588 447.802 939.744 448.346 937.177 448.956C935.521 449.342 933.877 449.723 932.317 450.145C931.309 450.402 930.301 450.689 929.293 450.977H929.197C911.678 456.079 898.839 463.588 893.523 472.416C893.247 472.866 892.971 473.312 892.791 473.763C892.419 474.466 892.059 475.204 891.879 475.943C891.327 477.29 891.051 478.637 890.955 480.019C890.775 480.5 890.775 480.951 890.775 481.461C890.775 501.869 930.853 518.528 979.93 518.528C1021.57 518.528 1056.61 506.59 1066.42 490.511V490.481C1067.89 488.044 1068.71 485.508 1068.99 482.877V481.466C1068.98 461.022 1029.08 444.398 979.918 444.398ZM979.918 510.83C940.932 510.83 909.29 497.639 909.29 481.466V481.114C909.47 478.484 910.298 475.918 911.954 473.51C917.186 465.872 929.473 459.487 945.984 455.697H946.08C956.076 453.419 967.631 452.101 979.918 452.101C1018.9 452.101 1050.55 465.292 1050.55 481.466V481.788C1050.55 484.418 1049.63 486.984 1047.98 489.391C1039.63 501.745 1012.3 510.83 979.918 510.83ZM941.58 456.178C938.281 456.178 935.161 455.44 933.505 454.187L931.213 452.423C931.213 452.423 931.213 452.423 931.213 452.393L929.281 450.982H929.185C911.666 456.084 898.827 463.593 893.511 472.421L897.183 472.643L911.954 473.51C917.186 465.872 929.473 459.487 945.984 455.697C944.616 456.019 943.056 456.178 941.58 456.178ZM941.58 456.178C938.281 456.178 935.161 455.44 933.505 454.187L931.213 452.423C931.213 452.423 931.213 452.423 931.213 452.393L929.281 450.982H929.185C911.666 456.084 898.827 463.593 893.511 472.421L897.183 472.643L911.954 473.51C917.186 465.872 929.473 459.487 945.984 455.697C944.616 456.019 943.056 456.178 941.58 456.178Z" fill="white"/>
<path d="M892.803 287.58C889.287 287.58 885.927 286.742 884.379 285.326L803.935 211.637C801.823 209.705 803.887 207.427 808.531 206.55C813.175 205.673 818.659 206.53 820.759 208.462L901.202 282.151C903.314 284.082 901.251 286.361 896.607 287.238C895.371 287.471 894.075 287.58 892.803 287.58Z" fill="white"/>
<path d="M1141.66 598.215C1130.62 600.558 1118.19 601.841 1104.99 601.841H1100.9C1056.28 581.69 992.362 567.761 909.302 560.157C903.278 559.612 897.111 559.097 890.775 558.582C876.112 557.458 860.98 556.497 845.225 555.724C830.094 554.986 815.047 554.441 800.3 554.119H800.228C789.812 553.861 779.541 553.668 769.425 553.604C763.173 553.539 756.922 553.51 750.826 553.51C746.962 553.51 743.182 553.51 739.475 553.539C670.538 553.827 613.109 557.195 586.482 558.993C576.451 559.702 570.739 560.148 570.499 560.182C560.54 561.049 550.736 558.384 548.648 554.213C546.56 550.072 552.968 545.995 563.012 545.133C564.175 545.039 570.967 544.46 582.391 543.692C608.873 541.864 660.051 538.912 722.579 538.268C737.867 538.075 753.922 538.045 770.361 538.203C795.836 538.461 822.462 539.135 849.485 540.447C981.946 546.931 1080.59 566.607 1141.66 598.215Z" fill="white"/>
<path d="M397.816 593.242L474.468 601.841H403.456L394.732 600.881L162.844 574.919L156.904 574.245C153.892 573.894 151.505 572.962 150.569 571.774L148.949 569.817L109.495 521.515L60.1771 461.151L53.8534 453.384C52.2335 451.363 54.7774 449.179 59.6372 448.505C64.4249 447.797 69.6686 448.891 71.3726 450.912L77.0123 457.778L125.562 517.245L162.46 562.461L166.48 567.34L175.047 568.301L397.816 593.242Z" fill="white"/>
<path d="M759.082 578.094C754.762 582.587 748.738 587.174 740.399 591.637C733.295 595.422 725.04 598.859 715.692 601.841C715.536 601.941 715.38 601.97 715.224 602L712.98 601.841H681.638C682.874 601.554 684.11 601.297 685.346 601.009C685.886 600.881 686.425 600.752 686.965 600.593C687.121 600.593 687.277 600.563 687.349 600.529C702.865 596.873 715.608 592.346 725.639 586.986C739.847 579.442 746.326 571.263 749.11 564.264C750.658 560.158 751.042 556.432 750.814 553.515C750.586 549.344 749.35 546.709 749.35 546.615C748.27 544.559 751.51 542.508 756.454 542.092C761.47 541.641 766.329 542.959 767.421 545.044C767.649 545.396 769.197 548.641 769.425 553.614C769.809 559.801 768.117 568.722 759.082 578.094Z" fill="white"/>
<path d="M909.302 551.524V601.841H890.775V551.524C890.775 549.403 894.939 547.704 900.11 547.704C905.138 547.704 909.302 549.403 909.302 551.524Z" fill="white"/>
<path d="M527.817 33.9836L520.51 34.4789L306.825 48.8293L278.782 50.7017H278.734L162.64 58.5036L142.421 59.8608L45.6097 66.3698L27.2147 67.5982L2.96389 69.2379C2.44792 69.2577 2.02794 69.2824 1.51196 69.2824V61.5252L32.8664 59.4348L268.318 43.6182L286.774 42.3897L513.31 27.1774L524.865 26.3997C529.893 26.0777 534.657 27.4994 535.437 29.5898C536.265 31.6802 532.845 33.6368 527.817 33.9836Z" fill="white"/>
<path d="M141.785 443.759C133.937 443.759 126.666 441.669 124.17 438.39C123.51 437.518 60.0211 350.787 256.919 317.375C453.805 283.973 541.941 353.883 542.805 354.591C547.424 358.375 543.789 362.997 534.693 364.919C525.586 366.841 514.462 365.33 509.842 361.546C506.914 359.188 435.77 303.619 270.886 331.602C201.422 343.391 161.56 364.032 152.392 392.951C145.409 415.009 159.268 433.565 159.412 433.748C162.496 437.79 157.096 442.11 147.377 443.393C145.517 443.646 143.633 443.759 141.785 443.759Z" fill="white"/>
<path d="M280.582 325.727C277.906 325.727 275.254 325.246 273.43 324.32C270.19 322.68 270.766 320.258 274.714 318.911L465.145 254.01L139.109 57.8646C136.205 56.116 137.261 53.7234 141.461 52.5197C145.661 51.316 151.42 51.7519 154.312 53.4956L485.196 252.558C487.931 254.203 487.175 256.447 483.456 257.715L286.438 324.855C284.722 325.439 282.646 325.727 280.582 325.727Z" fill="white"/>
<path d="M312.164 159.05C309.368 159.05 306.609 158.525 304.785 157.525C301.701 155.83 302.505 153.423 306.573 152.14L483.816 96.3683C487.883 95.0903 493.679 95.4222 496.763 97.1113C499.847 98.8055 499.043 101.213 494.975 102.496L317.732 158.273C316.064 158.798 314.096 159.05 312.164 159.05Z" fill="white"/>
<path d="M138.689 105.631C117.918 105.631 99.307 103.705 82.9878 99.8556C34.9303 88.517 25.5467 64.8193 25.1748 63.8138C24.3828 61.7184 27.8386 59.7519 32.8784 59.4249C37.9181 59.098 42.6339 60.5296 43.4258 62.6249C43.5218 62.8627 51.9934 83.7468 92.2394 93.203C121.47 100.069 160.612 99.4693 208.585 91.4198C213.325 90.6223 218.701 91.5733 220.609 93.5448C222.517 95.5114 220.237 97.7553 215.497 98.5479C187.371 103.269 161.704 105.631 138.689 105.631Z" fill="white"/>
<path d="M254.675 123.098L248.555 123.702L160.504 132.232L142.421 134L96.1872 138.483L78.0441 140.227L3.57589 147.469C2.85593 147.553 2.23196 147.578 1.5 147.578V139.776L82.1479 131.955C82.3519 131.935 82.5079 131.935 82.6639 131.91L237.264 116.916L250.475 115.623C254.363 115.236 258.251 115.945 260.327 117.282C260.903 117.649 261.311 118.06 261.575 118.491C262.715 120.556 259.655 122.627 254.675 123.098Z" fill="white"/>
<path d="M322.952 229.103C304.485 229.103 289.629 219.216 275.194 209.606C262.919 201.438 247.631 191.283 236.532 192.497C195.95 196.975 153.496 147.9 141.449 132.757C139.853 130.741 142.481 128.571 147.316 127.902C152.152 127.244 157.384 128.333 158.992 130.345C183.435 161.081 217.477 186.617 231.792 185.071C256.091 182.396 273.766 194.161 290.865 205.534C301.797 212.811 316.784 222.787 325.303 221.158C356.286 215.273 395.584 205.351 395.98 205.247C400.336 204.147 406.023 204.722 408.675 206.53C411.327 208.343 409.947 210.706 405.591 211.81C403.948 212.226 364.973 222.069 332.983 228.147C329.515 228.801 326.179 229.103 322.952 229.103Z" fill="white"/>
<path d="M143.357 380.904L119.622 382.608L3.05992 390.945C2.54395 390.989 2.02797 391.009 1.5 391.009V383.272L124.746 374.44L140.237 373.32C145.217 372.973 150.028 374.375 150.916 376.466C151.744 378.556 148.385 380.538 143.357 380.904Z" fill="white"/>
<path d="M172.071 358.643C170.415 359.119 168.604 359.351 166.732 359.351C163.828 359.351 160.984 358.792 159.16 357.717L149.777 352.223L55.5093 296.763C55.1493 296.59 54.8373 296.417 54.5733 296.224L1.5 265.026V254.51C4.40385 254.51 7.19971 255.089 9.01162 256.149L59.1331 285.603L72.5004 293.469L161.332 345.699L174.231 353.303C177.195 355.027 176.211 357.414 172.071 358.643Z" fill="white"/>
<path d="M243.996 332.112C240.156 332.112 236.58 331.116 235.26 329.526L75.3563 136.968C73.6883 134.961 76.2562 132.772 81.08 132.083C85.9157 131.39 91.1715 132.455 92.8274 134.461L252.731 327.015C254.399 329.021 251.831 331.21 247.008 331.899C246.012 332.043 244.992 332.112 243.996 332.112Z" fill="white"/>
<path d="M62.589 298.121C62.097 298.121 61.605 298.106 61.113 298.071C56.0853 297.734 52.6535 295.778 53.4454 293.682C53.7334 292.939 60.7891 275.344 97.0872 265.457C122.346 258.577 154.912 257.224 193.898 261.435C198.842 261.965 201.806 264.065 200.522 266.121C199.238 268.177 194.186 269.41 189.255 268.875C155.62 265.249 128.058 266.245 107.371 271.847C77.9242 279.817 71.7565 294.747 71.6965 294.896C70.9645 296.778 67.0407 298.121 62.589 298.121Z" fill="white"/>
<path d="M140.549 204.544L132.209 205.47L3.88788 219.716C3.05992 219.8 2.32796 219.845 1.5 219.845V212.043L126.198 198.188L135.785 197.113C140.237 196.638 144.749 197.564 146.561 199.223C146.765 199.417 146.921 199.635 147.077 199.848C148.433 201.893 145.481 204.009 140.549 204.544Z" fill="white"/>
<path opacity="0.5" d="M563.5 373C578.964 373 591.5 360.464 591.5 345C591.5 329.536 578.964 317 563.5 317C548.036 317 535.5 329.536 535.5 345C535.5 360.464 548.036 373 563.5 373Z" fill="#FF9B85"/>
<path d="M574.746 347.676C576.211 341.474 572.37 335.258 566.167 333.794C559.965 332.329 553.75 336.17 552.285 342.372C550.821 348.575 554.661 354.79 560.864 356.255C567.066 357.719 573.281 353.878 574.746 347.676Z" fill="#FF9B85"/>
<g clip-path="url(#clip2_387_56067)">
<path d="M1003.5 460.487C1003.5 471.808 975.494 496 975.494 496C975.494 496 947.5 471.812 947.5 460.487C947.5 449.187 960.03 440 975.488 440C990.97 440 1003.5 449.192 1003.5 460.487Z" fill="#F49406"/>
<path d="M984.731 466.558C989.83 462.828 989.83 456.78 984.731 453.049C979.631 449.319 971.364 449.319 966.264 453.049C961.165 456.78 961.165 462.828 966.264 466.558C971.364 470.288 979.631 470.288 984.731 466.558Z" fill="white"/>
</g>
<g clip-path="url(#clip3_387_56067)">
<path d="M575.5 205.487C575.5 216.808 547.494 241 547.494 241C547.494 241 519.5 216.812 519.5 205.487C519.5 194.187 532.03 185 547.488 185C562.97 185 575.5 194.192 575.5 205.487Z" fill="#F49406"/>
<path d="M556.731 211.558C561.83 207.828 561.83 201.78 556.731 198.049C551.631 194.319 543.364 194.319 538.264 198.049C533.165 201.78 533.165 207.828 538.264 211.558C543.364 215.288 551.631 215.288 556.731 211.558Z" fill="white"/>
</g>
<g clip-path="url(#clip4_387_56067)">
<path d="M413.5 243.487C413.5 254.808 385.494 279 385.494 279C385.494 279 357.5 254.812 357.5 243.487C357.5 232.187 370.03 223 385.488 223C400.97 223 413.5 232.192 413.5 243.487Z" fill="#F49406"/>
<path d="M394.731 249.558C399.83 245.828 399.83 239.78 394.731 236.049C389.631 232.319 381.364 232.319 376.264 236.049C371.165 239.78 371.165 245.828 376.264 249.558C381.364 253.288 389.631 253.288 394.731 249.558Z" fill="white"/>
</g>
<g clip-path="url(#clip5_387_56067)">
<path d="M109.5 356.487C109.5 367.808 81.4941 392 81.4941 392C81.4941 392 53.5 367.812 53.5 356.487C53.5 345.187 66.0299 336 81.4883 336C96.9701 336 109.5 345.192 109.5 356.487Z" fill="#F49406"/>
<path d="M90.7308 362.558C95.8303 358.828 95.8303 352.78 90.7308 349.049C85.6314 345.319 77.3636 345.319 72.2641 349.049C67.1647 352.78 67.1647 358.828 72.2641 362.558C77.3636 366.288 85.6314 366.288 90.7308 362.558Z" fill="white"/>
</g>
<g clip-path="url(#clip6_387_56067)">
<path d="M1059.5 142.487C1059.5 153.808 1031.49 178 1031.49 178C1031.49 178 1003.5 153.812 1003.5 142.487C1003.5 131.187 1016.03 122 1031.49 122C1046.97 122 1059.5 131.192 1059.5 142.487Z" fill="#F49406"/>
<path d="M1040.73 148.558C1045.83 144.828 1045.83 138.78 1040.73 135.049C1035.63 131.319 1027.36 131.319 1022.26 135.049C1017.16 138.78 1017.16 144.828 1022.26 148.558C1027.36 152.288 1035.63 152.288 1040.73 148.558Z" fill="white"/>
</g>
<g clip-path="url(#clip7_387_56067)">
<path d="M1026.5 364.487C1026.5 375.808 998.494 400 998.494 400C998.494 400 970.5 375.812 970.5 364.487C970.5 353.187 983.03 344 998.488 344C1013.97 344 1026.5 353.192 1026.5 364.487Z" fill="#F49406"/>
<path d="M1007.73 370.558C1012.83 366.828 1012.83 360.78 1007.73 357.049C1002.63 353.319 994.364 353.319 989.264 357.049C984.165 360.78 984.165 366.828 989.264 370.558C994.364 374.288 1002.63 374.288 1007.73 370.558Z" fill="white"/>
</g>
<g clip-path="url(#clip8_387_56067)">
<path d="M365.5 440.487C365.5 451.808 337.494 476 337.494 476C337.494 476 309.5 451.812 309.5 440.487C309.5 429.187 322.03 420 337.488 420C352.97 420 365.5 429.192 365.5 440.487Z" fill="#F49406"/>
<path d="M346.731 446.558C351.83 442.828 351.83 436.78 346.731 433.049C341.631 429.319 333.364 429.319 328.264 433.049C323.165 436.78 323.165 442.828 328.264 446.558C333.364 450.288 341.631 450.288 346.731 446.558Z" fill="white"/>
</g>
<g clip-path="url(#clip9_387_56067)">
<path d="M179.5 98.487C179.5 109.808 151.494 134 151.494 134C151.494 134 123.5 109.812 123.5 98.487C123.5 87.1874 136.03 78 151.488 78C166.97 78 179.5 87.1917 179.5 98.487Z" fill="#F49406"/>
<path d="M160.731 104.558C165.83 100.828 165.83 94.7796 160.731 91.0492C155.631 87.3189 147.364 87.3189 142.264 91.0492C137.165 94.7796 137.165 100.828 142.264 104.558C147.364 108.288 155.631 108.288 160.731 104.558Z" fill="white"/>
</g>
<g clip-path="url(#clip10_387_56067)">
<path d="M412.5 35.487C412.5 46.808 384.494 71 384.494 71C384.494 71 356.5 46.8123 356.5 35.487C356.5 24.1874 369.03 15 384.488 15C399.97 15 412.5 24.1917 412.5 35.487Z" fill="#F49406"/>
<path d="M393.731 41.5581C398.83 37.8277 398.83 31.7796 393.731 28.0492C388.631 24.3189 380.364 24.3189 375.264 28.0492C370.165 31.7796 370.165 37.8277 375.264 41.5581C380.364 45.2884 388.631 45.2884 393.731 41.5581Z" fill="white"/>
</g>
<g clip-path="url(#clip11_387_56067)">
<path d="M545.574 263.949L539.326 276.034V282H534.929V276.034L528.68 263.949H533.669L537.166 271.509L540.637 263.949H545.574ZM546.472 274.8C546.472 273.326 546.746 272.031 547.295 270.917C547.86 269.803 548.623 268.946 549.583 268.346C550.543 267.746 551.615 267.446 552.797 267.446C553.809 267.446 554.692 267.651 555.446 268.063C556.217 268.474 556.809 269.014 557.22 269.683V267.651H561.617V282H557.22V279.969C556.792 280.637 556.192 281.177 555.42 281.589C554.666 282 553.783 282.206 552.772 282.206C551.606 282.206 550.543 281.906 549.583 281.306C548.623 280.689 547.86 279.823 547.295 278.709C546.746 277.577 546.472 276.274 546.472 274.8ZM557.22 274.826C557.22 273.729 556.912 272.863 556.295 272.229C555.695 271.594 554.957 271.277 554.083 271.277C553.209 271.277 552.463 271.594 551.846 272.229C551.246 272.846 550.946 273.703 550.946 274.8C550.946 275.897 551.246 276.771 551.846 277.423C552.463 278.057 553.209 278.374 554.083 278.374C554.957 278.374 555.695 278.057 556.295 277.423C556.912 276.789 557.22 275.923 557.22 274.826ZM569.196 269.683C569.607 269.014 570.199 268.474 570.97 268.063C571.741 267.651 572.624 267.446 573.619 267.446C574.801 267.446 575.873 267.746 576.833 268.346C577.793 268.946 578.547 269.803 579.096 270.917C579.661 272.031 579.944 273.326 579.944 274.8C579.944 276.274 579.661 277.577 579.096 278.709C578.547 279.823 577.793 280.689 576.833 281.306C575.873 281.906 574.801 282.206 573.619 282.206C572.607 282.206 571.724 282.009 570.97 281.614C570.216 281.203 569.624 280.663 569.196 279.994V282H564.799V262.971H569.196V269.683ZM575.47 274.8C575.47 273.703 575.161 272.846 574.544 272.229C573.944 271.594 573.199 271.277 572.307 271.277C571.433 271.277 570.687 271.594 570.07 272.229C569.47 272.863 569.17 273.729 569.17 274.826C569.17 275.923 569.47 276.789 570.07 277.423C570.687 278.057 571.433 278.374 572.307 278.374C573.181 278.374 573.927 278.057 574.544 277.423C575.161 276.771 575.47 275.897 575.47 274.8ZM581.377 274.8C581.377 273.326 581.651 272.031 582.2 270.917C582.765 269.803 583.528 268.946 584.488 268.346C585.448 267.746 586.52 267.446 587.703 267.446C588.714 267.446 589.597 267.651 590.351 268.063C591.123 268.474 591.714 269.014 592.125 269.683V267.651H596.523V282H592.125V279.969C591.697 280.637 591.097 281.177 590.325 281.589C589.571 282 588.688 282.206 587.677 282.206C586.511 282.206 585.448 281.906 584.488 281.306C583.528 280.689 582.765 279.823 582.2 278.709C581.651 277.577 581.377 276.274 581.377 274.8ZM592.125 274.826C592.125 273.729 591.817 272.863 591.2 272.229C590.6 271.594 589.863 271.277 588.988 271.277C588.114 271.277 587.368 271.594 586.751 272.229C586.151 272.846 585.851 273.703 585.851 274.8C585.851 275.897 586.151 276.771 586.751 277.423C587.368 278.057 588.114 278.374 588.988 278.374C589.863 278.374 590.6 278.057 591.2 277.423C591.817 276.789 592.125 275.923 592.125 274.826Z" fill="#121212"/>
</g>
<g clip-path="url(#clip12_387_56067)">
<path opacity="0.5" d="M626.063 333.861L624.145 342.492L625.136 346.24L622.374 346.97L621.382 343.222L615.449 336.668L618.583 335.839L622.036 340.007L622.961 334.681L626.063 333.861ZM628.429 340.529C628.184 339.603 628.142 338.744 628.301 337.953C628.471 337.159 628.808 336.494 629.312 335.957C629.815 335.421 630.438 335.055 631.181 334.858C631.817 334.69 632.406 334.673 632.948 334.806C633.501 334.936 633.962 335.177 634.332 335.529L633.994 334.252L636.757 333.522L639.14 342.536L636.378 343.267L636.041 341.991C635.882 342.482 635.595 342.921 635.179 343.307C634.773 343.691 634.253 343.967 633.617 344.135C632.885 344.329 632.168 344.317 631.465 344.099C630.759 343.871 630.136 343.454 629.595 342.848C629.063 342.228 628.674 341.455 628.429 340.529ZM635.186 338.76C635.004 338.07 634.666 337.578 634.173 337.282C633.691 336.983 633.175 336.906 632.626 337.051C632.076 337.197 631.661 337.52 631.378 338.021C631.104 338.508 631.058 339.097 631.24 339.786C631.422 340.475 631.756 340.975 632.241 341.284C632.734 341.58 633.256 341.655 633.805 341.51C634.354 341.365 634.764 341.043 635.036 340.545C635.318 340.044 635.368 339.449 635.186 338.76ZM641.855 333.539C642.003 333.051 642.284 332.613 642.701 332.227C643.117 331.84 643.637 331.564 644.262 331.399C645.005 331.202 645.728 331.213 646.431 331.43C647.134 331.648 647.75 332.061 648.28 332.67C648.82 333.276 649.213 334.042 649.458 334.968C649.703 335.894 649.742 336.76 649.574 337.565C649.415 338.356 649.085 339.025 648.584 339.572C648.081 340.109 647.457 340.475 646.714 340.672C646.079 340.84 645.491 340.863 644.952 340.74C644.41 340.607 643.949 340.366 643.568 340.017L643.901 341.277L641.139 342.008L637.978 330.053L640.74 329.323L641.855 333.539ZM646.647 335.712C646.465 335.022 646.128 334.535 645.638 334.25C645.156 333.951 644.635 333.876 644.075 334.024C643.525 334.169 643.11 334.492 642.827 334.993C642.556 335.491 642.511 336.085 642.693 336.774C642.876 337.464 643.208 337.958 643.69 338.256C644.183 338.552 644.705 338.628 645.254 338.482C645.803 338.337 646.219 338.014 646.501 337.513C646.781 337.001 646.829 336.401 646.647 335.712ZM650.358 334.73C650.113 333.804 650.07 332.945 650.23 332.154C650.4 331.36 650.737 330.695 651.24 330.158C651.744 329.622 652.367 329.256 653.11 329.059C653.746 328.891 654.334 328.874 654.877 329.007C655.43 329.137 655.891 329.378 656.26 329.73L655.923 328.453L658.685 327.723L661.069 336.737L658.307 337.468L657.969 336.192C657.811 336.683 657.524 337.122 657.108 337.508C656.702 337.892 656.182 338.168 655.546 338.336C654.814 338.53 654.096 338.518 653.393 338.3C652.688 338.072 652.065 337.655 651.524 337.049C650.992 336.429 650.603 335.656 650.358 334.73ZM657.115 332.961C656.933 332.271 656.595 331.779 656.102 331.483C655.619 331.184 655.104 331.107 654.554 331.252C654.005 331.398 653.589 331.721 653.307 332.222C653.033 332.709 652.987 333.298 653.169 333.987C653.351 334.676 653.685 335.176 654.17 335.485C654.663 335.781 655.184 335.856 655.733 335.711C656.283 335.566 656.693 335.244 656.965 334.746C657.247 334.245 657.297 333.65 657.115 332.961ZM671.65 321.805L672.235 324.019L669.231 324.813L671.644 333.941L668.882 334.671L666.468 325.544L663.463 326.338L662.878 324.125L671.65 321.805ZM683.303 325.88C683.371 326.138 683.426 326.412 683.468 326.7L677.216 328.354C677.407 328.902 677.699 329.286 678.091 329.505C678.491 329.71 678.922 329.752 679.385 329.629C680.075 329.447 680.477 329.029 680.592 328.377L683.533 327.599C683.538 328.231 683.405 328.837 683.132 329.416C682.869 329.993 682.477 330.494 681.956 330.92C681.435 331.346 680.808 331.655 680.076 331.849C679.193 332.083 678.357 332.102 677.568 331.907C676.779 331.713 676.098 331.317 675.525 330.719C674.953 330.122 674.542 329.354 674.294 328.417C674.047 327.481 674.019 326.612 674.21 325.812C674.413 325.01 674.809 324.329 675.399 323.77C675.988 323.211 676.73 322.813 677.624 322.576C678.496 322.346 679.32 322.324 680.095 322.51C680.871 322.697 681.537 323.08 682.093 323.659C682.66 324.235 683.063 324.975 683.303 325.88ZM680.283 325.9C680.158 325.427 679.897 325.092 679.5 324.898C679.102 324.703 678.662 324.67 678.177 324.798C677.714 324.921 677.356 325.159 677.104 325.514C676.863 325.866 676.771 326.299 676.826 326.815L680.283 325.9ZM684.249 325.785C684.001 324.848 683.973 323.98 684.165 323.18C684.368 322.377 684.758 321.698 685.337 321.142C685.927 320.582 686.663 320.186 687.546 319.952C688.677 319.653 689.698 319.7 690.608 320.093C691.53 320.483 692.251 321.186 692.773 322.2L689.833 322.977C689.403 322.354 688.832 322.136 688.122 322.324C687.615 322.458 687.264 322.764 687.068 323.242C686.869 323.709 686.866 324.309 687.06 325.042C687.254 325.774 687.554 326.3 687.961 326.618C688.365 326.926 688.82 327.013 689.326 326.879C690.037 326.691 690.425 326.22 690.491 325.465L693.431 324.688C693.473 325.806 693.192 326.768 692.586 327.573C691.981 328.378 691.119 328.929 689.999 329.225C689.115 329.459 688.279 329.478 687.49 329.284C686.712 329.086 686.037 328.688 685.464 328.091C684.902 327.491 684.497 326.722 684.249 325.785ZM698.903 316.984C699.937 316.71 700.857 316.836 701.664 317.36C702.468 317.873 703.028 318.727 703.345 319.923L704.737 325.189L701.991 325.916L700.697 321.021C700.537 320.418 700.257 319.99 699.856 319.739C699.456 319.488 698.992 319.432 698.464 319.572C697.936 319.711 697.56 319.989 697.336 320.406C697.112 320.822 697.08 321.332 697.239 321.935L698.534 326.83L695.771 327.56L692.61 315.606L695.373 314.875L696.47 319.027C696.645 318.555 696.943 318.136 697.365 317.771C697.787 317.406 698.3 317.143 698.903 316.984Z" fill="#121212"/>
</g>
<g clip-path="url(#clip13_387_56067)">
<path opacity="0.8" d="M664.08 188.949V192.471H659.297V207H654.9V192.471H650.117V188.949H664.08ZM679.813 199.594C679.813 200.006 679.787 200.434 679.735 200.88H669.784C669.853 201.771 670.135 202.457 670.633 202.937C671.147 203.4 671.773 203.631 672.51 203.631C673.607 203.631 674.37 203.169 674.798 202.243H679.478C679.238 203.186 678.801 204.034 678.167 204.789C677.55 205.543 676.77 206.134 675.827 206.563C674.884 206.991 673.83 207.206 672.664 207.206C671.258 207.206 670.007 206.906 668.91 206.306C667.813 205.706 666.955 204.849 666.338 203.734C665.721 202.62 665.413 201.317 665.413 199.826C665.413 198.334 665.713 197.031 666.313 195.917C666.93 194.803 667.787 193.946 668.884 193.346C669.981 192.746 671.241 192.446 672.664 192.446C674.053 192.446 675.287 192.737 676.367 193.32C677.447 193.903 678.287 194.734 678.887 195.814C679.504 196.894 679.813 198.154 679.813 199.594ZM675.313 198.437C675.313 197.683 675.055 197.083 674.541 196.637C674.027 196.191 673.384 195.969 672.613 195.969C671.875 195.969 671.25 196.183 670.735 196.611C670.238 197.04 669.93 197.649 669.81 198.437H675.313ZM684.318 191.16C683.547 191.16 682.912 190.937 682.415 190.491C681.935 190.029 681.695 189.463 681.695 188.794C681.695 188.109 681.935 187.543 682.415 187.097C682.912 186.634 683.547 186.403 684.318 186.403C685.072 186.403 685.689 186.634 686.169 187.097C686.667 187.543 686.915 188.109 686.915 188.794C686.915 189.463 686.667 190.029 686.169 190.491C685.689 190.937 685.072 191.16 684.318 191.16ZM686.529 208.851C686.529 210.617 686.084 211.886 685.192 212.657C684.301 213.446 683.058 213.84 681.464 213.84H679.741V210.111H680.795C681.275 210.111 681.618 210.017 681.824 209.829C682.029 209.64 682.132 209.331 682.132 208.903V192.651H686.529V208.851ZM703.859 192.651V207H699.462V205.046C699.017 205.68 698.408 206.194 697.637 206.589C696.882 206.966 696.042 207.154 695.117 207.154C694.019 207.154 693.051 206.914 692.211 206.434C691.371 205.937 690.719 205.226 690.257 204.3C689.794 203.374 689.562 202.286 689.562 201.034V192.651H693.934V200.443C693.934 201.403 694.182 202.149 694.679 202.68C695.177 203.211 695.845 203.477 696.685 203.477C697.542 203.477 698.219 203.211 698.717 202.68C699.214 202.149 699.462 201.403 699.462 200.443V192.651H703.859ZM713.549 207.206C712.144 207.206 710.875 206.906 709.744 206.306C708.629 205.706 707.746 204.849 707.095 203.734C706.461 202.62 706.144 201.317 706.144 199.826C706.144 198.351 706.469 197.057 707.121 195.943C707.772 194.811 708.664 193.946 709.795 193.346C710.926 192.746 712.195 192.446 713.601 192.446C715.006 192.446 716.275 192.746 717.406 193.346C718.538 193.946 719.429 194.811 720.081 195.943C720.732 197.057 721.058 198.351 721.058 199.826C721.058 201.3 720.724 202.603 720.055 203.734C719.404 204.849 718.504 205.706 717.355 206.306C716.224 206.906 714.955 207.206 713.549 207.206ZM713.549 203.4C714.389 203.4 715.101 203.091 715.684 202.474C716.284 201.857 716.584 200.974 716.584 199.826C716.584 198.677 716.292 197.794 715.709 197.177C715.144 196.56 714.441 196.251 713.601 196.251C712.744 196.251 712.032 196.56 711.466 197.177C710.901 197.777 710.618 198.66 710.618 199.826C710.618 200.974 710.892 201.857 711.441 202.474C712.006 203.091 712.709 203.4 713.549 203.4ZM729.228 207.206C727.976 207.206 726.862 206.991 725.885 206.563C724.908 206.134 724.136 205.551 723.571 204.814C723.005 204.06 722.688 203.22 722.619 202.294H726.965C727.016 202.791 727.248 203.194 727.659 203.503C728.071 203.811 728.576 203.966 729.176 203.966C729.725 203.966 730.145 203.863 730.436 203.657C730.745 203.434 730.899 203.151 730.899 202.809C730.899 202.397 730.685 202.097 730.256 201.909C729.828 201.703 729.133 201.48 728.173 201.24C727.145 201 726.288 200.751 725.602 200.494C724.916 200.22 724.325 199.8 723.828 199.234C723.331 198.651 723.082 197.871 723.082 196.894C723.082 196.071 723.305 195.326 723.751 194.657C724.213 193.971 724.882 193.431 725.756 193.037C726.648 192.643 727.702 192.446 728.919 192.446C730.719 192.446 732.133 192.891 733.162 193.783C734.208 194.674 734.808 195.857 734.962 197.331H730.899C730.831 196.834 730.608 196.44 730.231 196.149C729.871 195.857 729.391 195.711 728.791 195.711C728.276 195.711 727.882 195.814 727.608 196.02C727.333 196.209 727.196 196.474 727.196 196.817C727.196 197.229 727.411 197.537 727.839 197.743C728.285 197.949 728.971 198.154 729.896 198.36C730.959 198.634 731.825 198.909 732.493 199.183C733.162 199.44 733.745 199.869 734.242 200.469C734.756 201.051 735.022 201.84 735.039 202.834C735.039 203.674 734.799 204.429 734.319 205.097C733.856 205.749 733.179 206.263 732.288 206.64C731.413 207.017 730.393 207.206 729.228 207.206ZM746.549 192.497C748.195 192.497 749.515 193.046 750.509 194.143C751.504 195.223 752.001 196.714 752.001 198.617V207H747.629V199.209C747.629 198.249 747.381 197.503 746.884 196.971C746.386 196.44 745.718 196.174 744.878 196.174C744.038 196.174 743.369 196.44 742.872 196.971C742.375 197.503 742.126 198.249 742.126 199.209V207H737.729V187.971H742.126V194.58C742.572 193.946 743.181 193.44 743.952 193.063C744.724 192.686 745.589 192.497 746.549 192.497ZM761.588 207.206C760.182 207.206 758.913 206.906 757.782 206.306C756.668 205.706 755.785 204.849 755.133 203.734C754.499 202.62 754.182 201.317 754.182 199.826C754.182 198.351 754.508 197.057 755.159 195.943C755.811 194.811 756.702 193.946 757.833 193.346C758.965 192.746 760.233 192.446 761.639 192.446C763.045 192.446 764.313 192.746 765.445 193.346C766.576 193.946 767.468 194.811 768.119 195.943C768.771 197.057 769.096 198.351 769.096 199.826C769.096 201.3 768.762 202.603 768.093 203.734C767.442 204.849 766.542 205.706 765.393 206.306C764.262 206.906 762.993 207.206 761.588 207.206ZM761.588 203.4C762.428 203.4 763.139 203.091 763.722 202.474C764.322 201.857 764.622 200.974 764.622 199.826C764.622 198.677 764.331 197.794 763.748 197.177C763.182 196.56 762.479 196.251 761.639 196.251C760.782 196.251 760.071 196.56 759.505 197.177C758.939 197.777 758.656 198.66 758.656 199.826C758.656 200.974 758.931 201.857 759.479 202.474C760.045 203.091 760.748 203.4 761.588 203.4Z" fill="#121212"/>
</g>
<g clip-path="url(#clip14_387_56067)">
<path opacity="0.8" d="M80.04 135.949L73.6371 154H68.1343L61.7314 135.949H66.4114L70.8857 149.577L75.3857 135.949H80.04ZM84.0892 138.16C83.3178 138.16 82.6835 137.937 82.1863 137.491C81.7063 137.029 81.4663 136.463 81.4663 135.794C81.4663 135.109 81.7063 134.543 82.1863 134.097C82.6835 133.634 83.3178 133.403 84.0892 133.403C84.8435 133.403 85.4606 133.634 85.9406 134.097C86.4378 134.543 86.6863 135.109 86.6863 135.794C86.6863 136.463 86.4378 137.029 85.9406 137.491C85.4606 137.937 84.8435 138.16 84.0892 138.16ZM86.2749 139.651V154H81.8778V139.651H86.2749ZM88.5872 146.826C88.5872 145.334 88.8872 144.031 89.4872 142.917C90.1043 141.803 90.9529 140.946 92.0329 140.346C93.13 139.746 94.3815 139.446 95.7872 139.446C97.5872 139.446 99.0872 139.917 100.287 140.86C101.504 141.803 102.301 143.131 102.679 144.846H97.9986C97.6043 143.749 96.8415 143.2 95.71 143.2C94.9043 143.2 94.2615 143.517 93.7815 144.151C93.3015 144.769 93.0615 145.66 93.0615 146.826C93.0615 147.991 93.3015 148.891 93.7815 149.526C94.2615 150.143 94.9043 150.451 95.71 150.451C96.8415 150.451 97.6043 149.903 97.9986 148.806H102.679C102.301 150.486 101.504 151.806 100.287 152.766C99.07 153.726 97.57 154.206 95.7872 154.206C94.3815 154.206 93.13 153.906 92.0329 153.306C90.9529 152.706 90.1043 151.849 89.4872 150.734C88.8872 149.62 88.5872 148.317 88.5872 146.826ZM113.028 150.271V154H110.791C109.196 154 107.954 153.614 107.062 152.843C106.171 152.054 105.725 150.777 105.725 149.011V143.303H103.976V139.651H105.725V136.154H110.122V139.651H113.002V143.303H110.122V149.063C110.122 149.491 110.225 149.8 110.431 149.989C110.636 150.177 110.979 150.271 111.459 150.271H113.028ZM122.009 154.206C120.603 154.206 119.334 153.906 118.203 153.306C117.089 152.706 116.206 151.849 115.554 150.734C114.92 149.62 114.603 148.317 114.603 146.826C114.603 145.351 114.929 144.057 115.58 142.943C116.231 141.811 117.123 140.946 118.254 140.346C119.386 139.746 120.654 139.446 122.06 139.446C123.466 139.446 124.734 139.746 125.866 140.346C126.997 140.946 127.889 141.811 128.54 142.943C129.191 144.057 129.517 145.351 129.517 146.826C129.517 148.3 129.183 149.603 128.514 150.734C127.863 151.849 126.963 152.706 125.814 153.306C124.683 153.906 123.414 154.206 122.009 154.206ZM122.009 150.4C122.849 150.4 123.56 150.091 124.143 149.474C124.743 148.857 125.043 147.974 125.043 146.826C125.043 145.677 124.751 144.794 124.169 144.177C123.603 143.56 122.9 143.251 122.06 143.251C121.203 143.251 120.491 143.56 119.926 144.177C119.36 144.777 119.077 145.66 119.077 146.826C119.077 147.974 119.351 148.857 119.9 149.474C120.466 150.091 121.169 150.4 122.009 150.4ZM136.247 142.043C136.761 141.254 137.404 140.637 138.176 140.191C138.947 139.729 139.804 139.497 140.747 139.497V144.151H139.538C138.441 144.151 137.618 144.391 137.07 144.871C136.521 145.334 136.247 146.157 136.247 147.34V154H131.85V139.651H136.247V142.043ZM145.06 138.16C144.289 138.16 143.654 137.937 143.157 137.491C142.677 137.029 142.437 136.463 142.437 135.794C142.437 135.109 142.677 134.543 143.157 134.097C143.654 133.634 144.289 133.403 145.06 133.403C145.814 133.403 146.432 133.634 146.912 134.097C147.409 134.543 147.657 135.109 147.657 135.794C147.657 136.463 147.409 137.029 146.912 137.491C146.432 137.937 145.814 138.16 145.06 138.16ZM147.246 139.651V154H142.849V139.651H147.246ZM149.558 146.8C149.558 145.326 149.832 144.031 150.381 142.917C150.947 141.803 151.71 140.946 152.67 140.346C153.63 139.746 154.701 139.446 155.884 139.446C156.895 139.446 157.778 139.651 158.532 140.063C159.304 140.474 159.895 141.014 160.307 141.683V139.651H164.704V154H160.307V151.969C159.878 152.637 159.278 153.177 158.507 153.589C157.752 154 156.87 154.206 155.858 154.206C154.692 154.206 153.63 153.906 152.67 153.306C151.71 152.689 150.947 151.823 150.381 150.709C149.832 149.577 149.558 148.274 149.558 146.8ZM160.307 146.826C160.307 145.729 159.998 144.863 159.381 144.229C158.781 143.594 158.044 143.277 157.17 143.277C156.295 143.277 155.55 143.594 154.932 144.229C154.332 144.846 154.032 145.703 154.032 146.8C154.032 147.897 154.332 148.771 154.932 149.423C155.55 150.057 156.295 150.374 157.17 150.374C158.044 150.374 158.781 150.057 159.381 149.423C159.998 148.789 160.307 147.923 160.307 146.826ZM177.731 135.949V154H173.334V135.949H177.731ZM186.755 154.206C185.504 154.206 184.389 153.991 183.412 153.563C182.435 153.134 181.664 152.551 181.098 151.814C180.532 151.06 180.215 150.22 180.147 149.294H184.492C184.544 149.791 184.775 150.194 185.187 150.503C185.598 150.811 186.104 150.966 186.704 150.966C187.252 150.966 187.672 150.863 187.964 150.657C188.272 150.434 188.427 150.151 188.427 149.809C188.427 149.397 188.212 149.097 187.784 148.909C187.355 148.703 186.661 148.48 185.701 148.24C184.672 148 183.815 147.751 183.129 147.494C182.444 147.22 181.852 146.8 181.355 146.234C180.858 145.651 180.609 144.871 180.609 143.894C180.609 143.071 180.832 142.326 181.278 141.657C181.741 140.971 182.409 140.431 183.284 140.037C184.175 139.643 185.229 139.446 186.447 139.446C188.247 139.446 189.661 139.891 190.689 140.783C191.735 141.674 192.335 142.857 192.489 144.331H188.427C188.358 143.834 188.135 143.44 187.758 143.149C187.398 142.857 186.918 142.711 186.318 142.711C185.804 142.711 185.409 142.814 185.135 143.02C184.861 143.209 184.724 143.474 184.724 143.817C184.724 144.229 184.938 144.537 185.367 144.743C185.812 144.949 186.498 145.154 187.424 145.36C188.487 145.634 189.352 145.909 190.021 146.183C190.689 146.44 191.272 146.869 191.769 147.469C192.284 148.051 192.549 148.84 192.567 149.834C192.567 150.674 192.327 151.429 191.847 152.097C191.384 152.749 190.707 153.263 189.815 153.64C188.941 154.017 187.921 154.206 186.755 154.206ZM199.654 134.971V154H195.257V134.971H199.654ZM201.966 146.8C201.966 145.326 202.24 144.031 202.789 142.917C203.355 141.803 204.118 140.946 205.078 140.346C206.038 139.746 207.109 139.446 208.292 139.446C209.303 139.446 210.186 139.651 210.94 140.063C211.712 140.474 212.303 141.014 212.715 141.683V139.651H217.112V154H212.715V151.969C212.286 152.637 211.686 153.177 210.915 153.589C210.16 154 209.278 154.206 208.266 154.206C207.1 154.206 206.038 153.906 205.078 153.306C204.118 152.689 203.355 151.823 202.789 150.709C202.24 149.577 201.966 148.274 201.966 146.8ZM212.715 146.826C212.715 145.729 212.406 144.863 211.789 144.229C211.189 143.594 210.452 143.277 209.578 143.277C208.703 143.277 207.958 143.594 207.34 144.229C206.74 144.846 206.44 145.703 206.44 146.8C206.44 147.897 206.74 148.771 207.34 149.423C207.958 150.057 208.703 150.374 209.578 150.374C210.452 150.374 211.189 150.057 211.789 149.423C212.406 148.789 212.715 147.923 212.715 146.826ZM229.036 139.497C230.716 139.497 232.053 140.046 233.047 141.143C234.059 142.223 234.564 143.714 234.564 145.617V154H230.193V146.209C230.193 145.249 229.944 144.503 229.447 143.971C228.95 143.44 228.282 143.174 227.442 143.174C226.602 143.174 225.933 143.44 225.436 143.971C224.939 144.503 224.69 145.249 224.69 146.209V154H220.293V139.651H224.69V141.554C225.136 140.92 225.736 140.423 226.49 140.063C227.244 139.686 228.093 139.497 229.036 139.497ZM236.746 146.8C236.746 145.326 237.02 144.031 237.569 142.917C238.134 141.803 238.897 140.946 239.857 140.346C240.817 139.746 241.889 139.446 243.071 139.446C244.014 139.446 244.871 139.643 245.643 140.037C246.431 140.431 247.049 140.963 247.494 141.631V134.971H251.891V154H247.494V151.943C247.083 152.629 246.491 153.177 245.72 153.589C244.966 154 244.083 154.206 243.071 154.206C241.889 154.206 240.817 153.906 239.857 153.306C238.897 152.689 238.134 151.823 237.569 150.709C237.02 149.577 236.746 148.274 236.746 146.8ZM247.494 146.826C247.494 145.729 247.186 144.863 246.569 144.229C245.969 143.594 245.231 143.277 244.357 143.277C243.483 143.277 242.737 143.594 242.12 144.229C241.52 144.846 241.22 145.703 241.22 146.8C241.22 147.897 241.52 148.771 242.12 149.423C242.737 150.057 243.483 150.374 244.357 150.374C245.231 150.374 245.969 150.057 246.569 149.423C247.186 148.789 247.494 147.923 247.494 146.826Z" fill="#121212"/>
</g>
<g clip-path="url(#clip15_387_56067)">
<path opacity="0.8" d="M361.491 96.6057H367.251V100H357.094V81.9486H361.491V96.6057ZM382.874 92.5943C382.874 93.0057 382.849 93.4343 382.797 93.88H372.846C372.914 94.7714 373.197 95.4571 373.694 95.9371C374.209 96.4 374.834 96.6314 375.572 96.6314C376.669 96.6314 377.432 96.1686 377.86 95.2429H382.54C382.3 96.1857 381.863 97.0343 381.229 97.7886C380.612 98.5429 379.832 99.1343 378.889 99.5629C377.946 99.9914 376.892 100.206 375.726 100.206C374.32 100.206 373.069 99.9057 371.972 99.3057C370.874 98.7057 370.017 97.8486 369.4 96.7343C368.783 95.62 368.474 94.3171 368.474 92.8257C368.474 91.3343 368.774 90.0314 369.374 88.9171C369.992 87.8029 370.849 86.9457 371.946 86.3457C373.043 85.7457 374.303 85.4457 375.726 85.4457C377.114 85.4457 378.349 85.7371 379.429 86.32C380.509 86.9029 381.349 87.7343 381.949 88.8143C382.566 89.8943 382.874 91.1543 382.874 92.5943ZM378.374 91.4371C378.374 90.6829 378.117 90.0829 377.603 89.6371C377.089 89.1914 376.446 88.9686 375.674 88.9686C374.937 88.9686 374.312 89.1829 373.797 89.6114C373.3 90.04 372.992 90.6486 372.872 91.4371H378.374ZM393.963 100L389.591 93.9829V100H385.194V80.9714H389.591V91.4886L393.937 85.6514H399.363L393.397 92.8514L399.414 100H393.963ZM409.858 100L405.487 93.9829V100H401.09V80.9714H405.487V91.4886L409.833 85.6514H415.258L409.293 92.8514L415.31 100H409.858ZM419.197 84.16C418.425 84.16 417.791 83.9371 417.294 83.4914C416.814 83.0286 416.574 82.4629 416.574 81.7943C416.574 81.1086 416.814 80.5429 417.294 80.0971C417.791 79.6343 418.425 79.4029 419.197 79.4029C419.951 79.4029 420.568 79.6343 421.048 80.0971C421.545 80.5429 421.794 81.1086 421.794 81.7943C421.794 82.4629 421.545 83.0286 421.048 83.4914C420.568 83.9371 419.951 84.16 419.197 84.16ZM421.383 85.6514V100H416.985V85.6514H421.383Z" fill="#121212"/>
</g>
<g clip-path="url(#clip16_387_56067)">
<path d="M310.491 477.782V495.833H306.094V477.782H310.491ZM322.447 495.833L318.075 489.816V495.833H313.678V476.805H318.075V487.322L322.421 481.485H327.847L321.881 488.685L327.898 495.833H322.447ZM343.099 488.428C343.099 488.839 343.074 489.268 343.022 489.713H333.071C333.139 490.605 333.422 491.291 333.919 491.771C334.434 492.233 335.059 492.465 335.796 492.465C336.894 492.465 337.656 492.002 338.085 491.076H342.765C342.525 492.019 342.088 492.868 341.454 493.622C340.836 494.376 340.056 494.968 339.114 495.396C338.171 495.825 337.116 496.039 335.951 496.039C334.545 496.039 333.294 495.739 332.196 495.139C331.099 494.539 330.242 493.682 329.625 492.568C329.008 491.453 328.699 490.151 328.699 488.659C328.699 487.168 328.999 485.865 329.599 484.751C330.216 483.636 331.074 482.779 332.171 482.179C333.268 481.579 334.528 481.279 335.951 481.279C337.339 481.279 338.574 481.571 339.654 482.153C340.734 482.736 341.574 483.568 342.174 484.648C342.791 485.728 343.099 486.988 343.099 488.428ZM338.599 487.271C338.599 486.516 338.342 485.916 337.828 485.471C337.314 485.025 336.671 484.802 335.899 484.802C335.162 484.802 334.536 485.016 334.022 485.445C333.525 485.873 333.216 486.482 333.096 487.271H338.599ZM347.605 479.993C346.833 479.993 346.199 479.771 345.702 479.325C345.222 478.862 344.982 478.296 344.982 477.628C344.982 476.942 345.222 476.376 345.702 475.931C346.199 475.468 346.833 475.236 347.605 475.236C348.359 475.236 348.976 475.468 349.456 475.931C349.953 476.376 350.202 476.942 350.202 477.628C350.202 478.296 349.953 478.862 349.456 479.325C348.976 479.771 348.359 479.993 347.605 479.993ZM349.816 497.685C349.816 499.451 349.37 500.719 348.479 501.491C347.588 502.279 346.345 502.673 344.75 502.673H343.028V498.945H344.082C344.562 498.945 344.905 498.851 345.11 498.662C345.316 498.473 345.419 498.165 345.419 497.736V481.485H349.816V497.685ZM352.103 488.633C352.103 487.159 352.378 485.865 352.926 484.751C353.492 483.636 354.255 482.779 355.215 482.179C356.175 481.579 357.246 481.279 358.429 481.279C359.441 481.279 360.323 481.485 361.078 481.896C361.849 482.308 362.441 482.848 362.852 483.516V481.485H367.249V495.833H362.852V493.802C362.423 494.471 361.823 495.011 361.052 495.422C360.298 495.833 359.415 496.039 358.403 496.039C357.238 496.039 356.175 495.739 355.215 495.139C354.255 494.522 353.492 493.656 352.926 492.542C352.378 491.411 352.103 490.108 352.103 488.633ZM362.852 488.659C362.852 487.562 362.543 486.696 361.926 486.062C361.326 485.428 360.589 485.111 359.715 485.111C358.841 485.111 358.095 485.428 357.478 486.062C356.878 486.679 356.578 487.536 356.578 488.633C356.578 489.731 356.878 490.605 357.478 491.256C358.095 491.891 358.841 492.208 359.715 492.208C360.589 492.208 361.326 491.891 361.926 491.256C362.543 490.622 362.852 489.756 362.852 488.659Z" fill="#121212"/>
</g>
<g clip-path="url(#clip17_387_56067)">
<path opacity="0.8" d="M334.626 304.18C333.306 304.18 332.123 303.966 331.077 303.537C330.031 303.109 329.191 302.474 328.557 301.634C327.94 300.794 327.614 299.783 327.58 298.6H332.26C332.329 299.269 332.56 299.783 332.954 300.143C333.349 300.486 333.863 300.657 334.497 300.657C335.149 300.657 335.663 300.511 336.04 300.22C336.417 299.911 336.606 299.491 336.606 298.96C336.606 298.514 336.451 298.146 336.143 297.854C335.851 297.563 335.483 297.323 335.037 297.134C334.609 296.946 333.991 296.731 333.186 296.491C332.02 296.131 331.069 295.771 330.331 295.411C329.594 295.051 328.96 294.52 328.429 293.817C327.897 293.114 327.631 292.197 327.631 291.066C327.631 289.386 328.24 288.074 329.457 287.131C330.674 286.171 332.26 285.691 334.214 285.691C336.203 285.691 337.806 286.171 339.023 287.131C340.24 288.074 340.891 289.394 340.977 291.091H336.22C336.186 290.509 335.971 290.054 335.577 289.729C335.183 289.386 334.677 289.214 334.06 289.214C333.529 289.214 333.1 289.36 332.774 289.651C332.449 289.926 332.286 290.329 332.286 290.86C332.286 291.443 332.56 291.897 333.109 292.223C333.657 292.549 334.514 292.9 335.68 293.277C336.846 293.671 337.789 294.049 338.509 294.409C339.246 294.769 339.88 295.291 340.411 295.977C340.943 296.663 341.209 297.546 341.209 298.626C341.209 299.654 340.943 300.589 340.411 301.429C339.897 302.269 339.143 302.937 338.149 303.434C337.154 303.931 335.98 304.18 334.626 304.18ZM358.083 289.651V304H353.686V302.046C353.24 302.68 352.632 303.194 351.86 303.589C351.106 303.966 350.266 304.154 349.34 304.154C348.243 304.154 347.275 303.914 346.435 303.434C345.595 302.937 344.943 302.226 344.48 301.3C344.017 300.374 343.786 299.286 343.786 298.034V289.651H348.157V297.443C348.157 298.403 348.406 299.149 348.903 299.68C349.4 300.211 350.069 300.477 350.909 300.477C351.766 300.477 352.443 300.211 352.94 299.68C353.437 299.149 353.686 298.403 353.686 297.443V289.651H358.083ZM365.639 292.043C366.153 291.254 366.796 290.637 367.567 290.191C368.339 289.729 369.196 289.497 370.139 289.497V294.151H368.93C367.833 294.151 367.01 294.391 366.462 294.871C365.913 295.334 365.639 296.157 365.639 297.34V304H361.242V289.651H365.639V292.043ZM386.409 289.651V304H382.012V302.046C381.566 302.68 380.958 303.194 380.186 303.589C379.432 303.966 378.592 304.154 377.666 304.154C376.569 304.154 375.6 303.914 374.76 303.434C373.92 302.937 373.269 302.226 372.806 301.3C372.343 300.374 372.112 299.286 372.112 298.034V289.651H376.483V297.443C376.483 298.403 376.732 299.149 377.229 299.68C377.726 300.211 378.395 300.477 379.235 300.477C380.092 300.477 380.769 300.211 381.266 299.68C381.763 299.149 382.012 298.403 382.012 297.443V289.651H386.409ZM393.965 284.971V304H389.567V284.971H393.965ZM410.677 296.594C410.677 297.006 410.651 297.434 410.6 297.88H400.648C400.717 298.771 401 299.457 401.497 299.937C402.011 300.4 402.637 300.631 403.374 300.631C404.471 300.631 405.234 300.169 405.663 299.243H410.343C410.103 300.186 409.665 301.034 409.031 301.789C408.414 302.543 407.634 303.134 406.691 303.563C405.748 303.991 404.694 304.206 403.528 304.206C402.123 304.206 400.871 303.906 399.774 303.306C398.677 302.706 397.82 301.849 397.203 300.734C396.585 299.62 396.277 298.317 396.277 296.826C396.277 295.334 396.577 294.031 397.177 292.917C397.794 291.803 398.651 290.946 399.748 290.346C400.845 289.746 402.105 289.446 403.528 289.446C404.917 289.446 406.151 289.737 407.231 290.32C408.311 290.903 409.151 291.734 409.751 292.814C410.368 293.894 410.677 295.154 410.677 296.594ZM406.177 295.437C406.177 294.683 405.92 294.083 405.405 293.637C404.891 293.191 404.248 292.969 403.477 292.969C402.74 292.969 402.114 293.183 401.6 293.611C401.103 294.04 400.794 294.649 400.674 295.437H406.177ZM417.394 292.043C417.908 291.254 418.551 290.637 419.322 290.191C420.094 289.729 420.951 289.497 421.894 289.497V294.151H420.685C419.588 294.151 418.765 294.391 418.217 294.871C417.668 295.334 417.394 296.157 417.394 297.34V304H412.997V289.651H417.394V292.043ZM437.521 296.594C437.521 297.006 437.496 297.434 437.444 297.88H427.493C427.561 298.771 427.844 299.457 428.341 299.937C428.856 300.4 429.481 300.631 430.218 300.631C431.316 300.631 432.078 300.169 432.507 299.243H437.187C436.947 300.186 436.51 301.034 435.876 301.789C435.258 302.543 434.478 303.134 433.536 303.563C432.593 303.991 431.538 304.206 430.373 304.206C428.967 304.206 427.716 303.906 426.618 303.306C425.521 302.706 424.664 301.849 424.047 300.734C423.43 299.62 423.121 298.317 423.121 296.826C423.121 295.334 423.421 294.031 424.021 292.917C424.638 291.803 425.496 290.946 426.593 290.346C427.69 289.746 428.95 289.446 430.373 289.446C431.761 289.446 432.996 289.737 434.076 290.32C435.156 290.903 435.996 291.734 436.596 292.814C437.213 293.894 437.521 295.154 437.521 296.594ZM433.021 295.437C433.021 294.683 432.764 294.083 432.25 293.637C431.736 293.191 431.093 292.969 430.321 292.969C429.584 292.969 428.958 293.183 428.444 293.611C427.947 294.04 427.638 294.649 427.518 295.437H433.021Z" fill="#121212"/>
</g>
<g clip-path="url(#clip18_387_56067)">
<path opacity="0.8" d="M65.5371 397.949V416H61.14V405.174L57.1029 416H53.5543L49.4914 405.149V416H45.0943V397.949H50.2886L55.3543 410.446L60.3686 397.949H65.5371ZM82.8678 401.651V416H78.4706V414.046C78.0249 414.68 77.4163 415.194 76.6449 415.589C75.8906 415.966 75.0506 416.154 74.1249 416.154C73.0278 416.154 72.0592 415.914 71.2192 415.434C70.3792 414.937 69.7278 414.226 69.2649 413.3C68.8021 412.374 68.5706 411.286 68.5706 410.034V401.651H72.9421V409.443C72.9421 410.403 73.1906 411.149 73.6878 411.68C74.1849 412.211 74.8535 412.477 75.6935 412.477C76.5506 412.477 77.2278 412.211 77.7249 411.68C78.2221 411.149 78.4706 410.403 78.4706 409.443V401.651H82.8678ZM91.8633 416.206C90.6119 416.206 89.4976 415.991 88.5205 415.563C87.5433 415.134 86.7719 414.551 86.2062 413.814C85.6405 413.06 85.3233 412.22 85.2548 411.294H89.6005C89.6519 411.791 89.8833 412.194 90.2948 412.503C90.7062 412.811 91.2119 412.966 91.8119 412.966C92.3605 412.966 92.7805 412.863 93.0719 412.657C93.3805 412.434 93.5348 412.151 93.5348 411.809C93.5348 411.397 93.3205 411.097 92.8919 410.909C92.4633 410.703 91.7691 410.48 90.8091 410.24C89.7805 410 88.9233 409.751 88.2376 409.494C87.5519 409.22 86.9605 408.8 86.4633 408.234C85.9662 407.651 85.7176 406.871 85.7176 405.894C85.7176 405.071 85.9405 404.326 86.3862 403.657C86.8491 402.971 87.5176 402.431 88.3919 402.037C89.2833 401.643 90.3376 401.446 91.5548 401.446C93.3548 401.446 94.7691 401.891 95.7976 402.783C96.8433 403.674 97.4433 404.857 97.5976 406.331H93.5348C93.4662 405.834 93.2433 405.44 92.8662 405.149C92.5062 404.857 92.0262 404.711 91.4262 404.711C90.9119 404.711 90.5176 404.814 90.2433 405.02C89.9691 405.209 89.8319 405.474 89.8319 405.817C89.8319 406.229 90.0462 406.537 90.4748 406.743C90.9205 406.949 91.6062 407.154 92.5319 407.36C93.5948 407.634 94.4605 407.909 95.1291 408.183C95.7976 408.44 96.3805 408.869 96.8776 409.469C97.3919 410.051 97.6576 410.84 97.6748 411.834C97.6748 412.674 97.4348 413.429 96.9548 414.097C96.4919 414.749 95.8148 415.263 94.9233 415.64C94.0491 416.017 93.0291 416.206 91.8633 416.206ZM109.185 401.497C110.831 401.497 112.151 402.046 113.145 403.143C114.139 404.223 114.636 405.714 114.636 407.617V416H110.265V408.209C110.265 407.249 110.016 406.503 109.519 405.971C109.022 405.44 108.354 405.174 107.514 405.174C106.674 405.174 106.005 405.44 105.508 405.971C105.011 406.503 104.762 407.249 104.762 408.209V416H100.365V396.971H104.762V403.58C105.208 402.946 105.816 402.44 106.588 402.063C107.359 401.686 108.225 401.497 109.185 401.497ZM119.903 400.16C119.132 400.16 118.498 399.937 118.001 399.491C117.521 399.029 117.281 398.463 117.281 397.794C117.281 397.109 117.521 396.543 118.001 396.097C118.498 395.634 119.132 395.403 119.903 395.403C120.658 395.403 121.275 395.634 121.755 396.097C122.252 396.543 122.501 397.109 122.501 397.794C122.501 398.463 122.252 399.029 121.755 399.491C121.275 399.937 120.658 400.16 119.903 400.16ZM122.089 401.651V416H117.692V401.651H122.089ZM134.019 401.497C135.699 401.497 137.036 402.046 138.03 403.143C139.041 404.223 139.547 405.714 139.547 407.617V416H135.176V408.209C135.176 407.249 134.927 406.503 134.43 405.971C133.933 405.44 133.264 405.174 132.424 405.174C131.584 405.174 130.916 405.44 130.419 405.971C129.921 406.503 129.673 407.249 129.673 408.209V416H125.276V401.651H129.673V403.554C130.119 402.92 130.719 402.423 131.473 402.063C132.227 401.686 133.076 401.497 134.019 401.497Z" fill="#121212"/>
</g>
<g opacity="0.8" clip-path="url(#clip19_387_56067)">
<path d="M953.331 519.811H946.594L945.514 523H940.911L947.443 504.949H952.534L959.066 523H954.411L953.331 519.811ZM952.2 516.417L949.963 509.809L947.751 516.417H952.2ZM965.451 503.971V523H961.054V503.971H965.451ZM970.849 507.16C970.077 507.16 969.443 506.937 968.946 506.491C968.466 506.029 968.226 505.463 968.226 504.794C968.226 504.109 968.466 503.543 968.946 503.097C969.443 502.634 970.077 502.403 970.849 502.403C971.603 502.403 972.22 502.634 972.7 503.097C973.197 503.543 973.446 504.109 973.446 504.794C973.446 505.463 973.197 506.029 972.7 506.491C972.22 506.937 971.603 507.16 970.849 507.16ZM973.034 508.651V523H968.637V508.651H973.034ZM994.53 508.497C996.312 508.497 997.727 509.037 998.772 510.117C999.835 511.197 1000.37 512.697 1000.37 514.617V523H995.995V515.209C995.995 514.283 995.747 513.571 995.25 513.074C994.77 512.56 994.101 512.303 993.244 512.303C992.387 512.303 991.71 512.56 991.212 513.074C990.732 513.571 990.492 514.283 990.492 515.209V523H986.121V515.209C986.121 514.283 985.872 513.571 985.375 513.074C984.895 512.56 984.227 512.303 983.37 512.303C982.512 512.303 981.835 512.56 981.338 513.074C980.858 513.571 980.618 514.283 980.618 515.209V523H976.221V508.651H980.618V510.451C981.064 509.851 981.647 509.38 982.367 509.037C983.087 508.677 983.901 508.497 984.81 508.497C985.89 508.497 986.85 508.729 987.69 509.191C988.547 509.654 989.215 510.314 989.695 511.171C990.192 510.383 990.87 509.74 991.727 509.243C992.584 508.746 993.518 508.497 994.53 508.497ZM1009.97 523.206C1008.57 523.206 1007.3 522.906 1006.17 522.306C1005.05 521.706 1004.17 520.849 1003.52 519.734C1002.88 518.62 1002.57 517.317 1002.57 515.826C1002.57 514.351 1002.89 513.057 1003.54 511.943C1004.2 510.811 1005.09 509.946 1006.22 509.346C1007.35 508.746 1008.62 508.446 1010.02 508.446C1011.43 508.446 1012.7 508.746 1013.83 509.346C1014.96 509.946 1015.85 510.811 1016.5 511.943C1017.16 513.057 1017.48 514.351 1017.48 515.826C1017.48 517.3 1017.15 518.603 1016.48 519.734C1015.83 520.849 1014.93 521.706 1013.78 522.306C1012.65 522.906 1011.38 523.206 1009.97 523.206ZM1009.97 519.4C1010.81 519.4 1011.52 519.091 1012.11 518.474C1012.71 517.857 1013.01 516.974 1013.01 515.826C1013.01 514.677 1012.72 513.794 1012.13 513.177C1011.57 512.56 1010.86 512.251 1010.02 512.251C1009.17 512.251 1008.46 512.56 1007.89 513.177C1007.32 513.777 1007.04 514.66 1007.04 515.826C1007.04 516.974 1007.32 517.857 1007.86 518.474C1008.43 519.091 1009.13 519.4 1009.97 519.4ZM1025.65 523.206C1024.4 523.206 1023.29 522.991 1022.31 522.563C1021.33 522.134 1020.56 521.551 1019.99 520.814C1019.43 520.06 1019.11 519.22 1019.04 518.294H1023.39C1023.44 518.791 1023.67 519.194 1024.08 519.503C1024.49 519.811 1025 519.966 1025.6 519.966C1026.15 519.966 1026.57 519.863 1026.86 519.657C1027.17 519.434 1027.32 519.151 1027.32 518.809C1027.32 518.397 1027.11 518.097 1026.68 517.909C1026.25 517.703 1025.56 517.48 1024.6 517.24C1023.57 517 1022.71 516.751 1022.03 516.494C1021.34 516.22 1020.75 515.8 1020.25 515.234C1019.75 514.651 1019.51 513.871 1019.51 512.894C1019.51 512.071 1019.73 511.326 1020.17 510.657C1020.64 509.971 1021.31 509.431 1022.18 509.037C1023.07 508.643 1024.13 508.446 1025.34 508.446C1027.14 508.446 1028.56 508.891 1029.59 509.783C1030.63 510.674 1031.23 511.857 1031.39 513.331H1027.32C1027.25 512.834 1027.03 512.44 1026.65 512.149C1026.29 511.857 1025.81 511.711 1025.21 511.711C1024.7 511.711 1024.31 511.814 1024.03 512.02C1023.76 512.209 1023.62 512.474 1023.62 512.817C1023.62 513.229 1023.83 513.537 1024.26 513.743C1024.71 513.949 1025.39 514.154 1026.32 514.36C1027.38 514.634 1028.25 514.909 1028.92 515.183C1029.59 515.44 1030.17 515.869 1030.67 516.469C1031.18 517.051 1031.45 517.84 1031.46 518.834C1031.46 519.674 1031.22 520.429 1030.74 521.097C1030.28 521.749 1029.6 522.263 1028.71 522.64C1027.84 523.017 1026.82 523.206 1025.65 523.206ZM1042.97 508.497C1044.62 508.497 1045.94 509.046 1046.93 510.143C1047.93 511.223 1048.42 512.714 1048.42 514.617V523H1044.05V515.209C1044.05 514.249 1043.8 513.503 1043.31 512.971C1042.81 512.44 1042.14 512.174 1041.3 512.174C1040.46 512.174 1039.79 512.44 1039.3 512.971C1038.8 513.503 1038.55 514.249 1038.55 515.209V523H1034.15V503.971H1038.55V510.58C1039 509.946 1039.6 509.44 1040.38 509.063C1041.15 508.686 1042.01 508.497 1042.97 508.497ZM1058.01 523.206C1056.61 523.206 1055.34 522.906 1054.21 522.306C1053.09 521.706 1052.21 520.849 1051.56 519.734C1050.92 518.62 1050.61 517.317 1050.61 515.826C1050.61 514.351 1050.93 513.057 1051.58 511.943C1052.23 510.811 1053.13 509.946 1054.26 509.346C1055.39 508.746 1056.66 508.446 1058.06 508.446C1059.47 508.446 1060.74 508.746 1061.87 509.346C1063 509.946 1063.89 510.811 1064.54 511.943C1065.19 513.057 1065.52 514.351 1065.52 515.826C1065.52 517.3 1065.19 518.603 1064.52 519.734C1063.87 520.849 1062.97 521.706 1061.82 522.306C1060.69 522.906 1059.42 523.206 1058.01 523.206ZM1058.01 519.4C1058.85 519.4 1059.56 519.091 1060.15 518.474C1060.75 517.857 1061.05 516.974 1061.05 515.826C1061.05 514.677 1060.75 513.794 1060.17 513.177C1059.61 512.56 1058.9 512.251 1058.06 512.251C1057.21 512.251 1056.49 512.56 1055.93 513.177C1055.36 513.777 1055.08 514.66 1055.08 515.826C1055.08 516.974 1055.35 517.857 1055.9 518.474C1056.47 519.091 1057.17 519.4 1058.01 519.4Z" fill="#121212"/>
</g>
<g clip-path="url(#clip20_387_56067)">
<path opacity="0.8" d="M684.56 455L678.491 447.029V455H674.094V436.949H678.491V444.869L684.509 436.949H689.677L682.683 445.794L689.934 455H684.56ZM705.55 447.594C705.55 448.006 705.524 448.434 705.473 448.88H695.521C695.59 449.771 695.873 450.457 696.37 450.937C696.884 451.4 697.51 451.631 698.247 451.631C699.344 451.631 700.107 451.169 700.535 450.243H705.215C704.975 451.186 704.538 452.034 703.904 452.789C703.287 453.543 702.507 454.134 701.564 454.563C700.621 454.991 699.567 455.206 698.401 455.206C696.995 455.206 695.744 454.906 694.647 454.306C693.55 453.706 692.693 452.849 692.075 451.734C691.458 450.62 691.15 449.317 691.15 447.826C691.15 446.334 691.45 445.031 692.05 443.917C692.667 442.803 693.524 441.946 694.621 441.346C695.718 440.746 696.978 440.446 698.401 440.446C699.79 440.446 701.024 440.737 702.104 441.32C703.184 441.903 704.024 442.734 704.624 443.814C705.241 444.894 705.55 446.154 705.55 447.594ZM701.05 446.437C701.05 445.683 700.793 445.083 700.278 444.637C699.764 444.191 699.121 443.969 698.35 443.969C697.613 443.969 696.987 444.183 696.473 444.611C695.975 445.04 695.667 445.649 695.547 446.437H701.05ZM715.867 451.271V455H713.629C712.035 455 710.792 454.614 709.901 453.843C709.009 453.054 708.564 451.777 708.564 450.011V444.303H706.815V440.651H708.564V437.154H712.961V440.651H715.841V444.303H712.961V450.063C712.961 450.491 713.064 450.8 713.269 450.989C713.475 451.177 713.818 451.271 714.298 451.271H715.867ZM732.484 440.651V455H728.087V453.046C727.642 453.68 727.033 454.194 726.262 454.589C725.507 454.966 724.667 455.154 723.742 455.154C722.644 455.154 721.676 454.914 720.836 454.434C719.996 453.937 719.344 453.226 718.882 452.3C718.419 451.374 718.187 450.286 718.187 449.034V440.651H722.559V448.443C722.559 449.403 722.807 450.149 723.304 450.68C723.802 451.211 724.47 451.477 725.31 451.477C726.167 451.477 726.844 451.211 727.342 450.68C727.839 450.149 728.087 449.403 728.087 448.443V440.651H732.484Z" fill="#121212"/>
</g>
<g clip-path="url(#clip21_387_56067)">
<path opacity="0.8" d="M932.631 327.18C930.934 327.18 929.374 326.786 927.951 325.997C926.546 325.209 925.423 324.111 924.583 322.706C923.76 321.283 923.349 319.689 923.349 317.923C923.349 316.157 923.76 314.571 924.583 313.166C925.423 311.76 926.546 310.663 927.951 309.874C929.374 309.086 930.934 308.691 932.631 308.691C934.329 308.691 935.88 309.086 937.286 309.874C938.709 310.663 939.823 311.76 940.629 313.166C941.451 314.571 941.863 316.157 941.863 317.923C941.863 319.689 941.451 321.283 940.629 322.706C939.806 324.111 938.691 325.209 937.286 325.997C935.88 326.786 934.329 327.18 932.631 327.18ZM932.631 323.169C934.071 323.169 935.22 322.689 936.077 321.729C936.951 320.769 937.389 319.5 937.389 317.923C937.389 316.329 936.951 315.06 936.077 314.117C935.22 313.157 934.071 312.677 932.631 312.677C931.174 312.677 930.009 313.149 929.134 314.091C928.277 315.034 927.849 316.311 927.849 317.923C927.849 319.517 928.277 320.794 929.134 321.754C930.009 322.697 931.174 323.169 932.631 323.169ZM950.146 327.206C948.895 327.206 947.781 326.991 946.803 326.563C945.826 326.134 945.055 325.551 944.489 324.814C943.923 324.06 943.606 323.22 943.538 322.294H947.883C947.935 322.791 948.166 323.194 948.578 323.503C948.989 323.811 949.495 323.966 950.095 323.966C950.643 323.966 951.063 323.863 951.355 323.657C951.663 323.434 951.818 323.151 951.818 322.809C951.818 322.397 951.603 322.097 951.175 321.909C950.746 321.703 950.052 321.48 949.092 321.24C948.063 321 947.206 320.751 946.521 320.494C945.835 320.22 945.243 319.8 944.746 319.234C944.249 318.651 944.001 317.871 944.001 316.894C944.001 316.071 944.223 315.326 944.669 314.657C945.132 313.971 945.801 313.431 946.675 313.037C947.566 312.643 948.621 312.446 949.838 312.446C951.638 312.446 953.052 312.891 954.081 313.783C955.126 314.674 955.726 315.857 955.881 317.331H951.818C951.749 316.834 951.526 316.44 951.149 316.149C950.789 315.857 950.309 315.711 949.709 315.711C949.195 315.711 948.801 315.814 948.526 316.02C948.252 316.209 948.115 316.474 948.115 316.817C948.115 317.229 948.329 317.537 948.758 317.743C949.203 317.949 949.889 318.154 950.815 318.36C951.878 318.634 952.743 318.909 953.412 319.183C954.081 319.44 954.663 319.869 955.161 320.469C955.675 321.051 955.941 321.84 955.958 322.834C955.958 323.674 955.718 324.429 955.238 325.097C954.775 325.749 954.098 326.263 953.206 326.64C952.332 327.017 951.312 327.206 950.146 327.206ZM965.179 327.206C963.774 327.206 962.505 326.906 961.374 326.306C960.259 325.706 959.376 324.849 958.725 323.734C958.091 322.62 957.774 321.317 957.774 319.826C957.774 318.351 958.099 317.057 958.751 315.943C959.402 314.811 960.294 313.946 961.425 313.346C962.556 312.746 963.825 312.446 965.231 312.446C966.636 312.446 967.905 312.746 969.036 313.346C970.168 313.946 971.059 314.811 971.711 315.943C972.362 317.057 972.688 318.351 972.688 319.826C972.688 321.3 972.354 322.603 971.685 323.734C971.034 324.849 970.134 325.706 968.985 326.306C967.854 326.906 966.585 327.206 965.179 327.206ZM965.179 323.4C966.019 323.4 966.731 323.091 967.314 322.474C967.914 321.857 968.214 320.974 968.214 319.826C968.214 318.677 967.922 317.794 967.339 317.177C966.774 316.56 966.071 316.251 965.231 316.251C964.374 316.251 963.662 316.56 963.096 317.177C962.531 317.777 962.248 318.66 962.248 319.826C962.248 320.974 962.522 321.857 963.071 322.474C963.636 323.091 964.339 323.4 965.179 323.4ZM974.146 319.8C974.146 318.326 974.421 317.031 974.969 315.917C975.535 314.803 976.298 313.946 977.258 313.346C978.218 312.746 979.289 312.446 980.472 312.446C981.415 312.446 982.272 312.643 983.043 313.037C983.832 313.431 984.449 313.963 984.895 314.631V307.971H989.292V327H984.895V324.943C984.483 325.629 983.892 326.177 983.121 326.589C982.366 327 981.483 327.206 980.472 327.206C979.289 327.206 978.218 326.906 977.258 326.306C976.298 325.689 975.535 324.823 974.969 323.709C974.421 322.577 974.146 321.274 974.146 319.8ZM984.895 319.826C984.895 318.729 984.586 317.863 983.969 317.229C983.369 316.594 982.632 316.277 981.758 316.277C980.883 316.277 980.138 316.594 979.521 317.229C978.921 317.846 978.621 318.703 978.621 319.8C978.621 320.897 978.921 321.771 979.521 322.423C980.138 323.057 980.883 323.374 981.758 323.374C982.632 323.374 983.369 323.057 983.969 322.423C984.586 321.789 984.895 320.923 984.895 319.826ZM994.685 311.16C993.913 311.16 993.279 310.937 992.782 310.491C992.302 310.029 992.062 309.463 992.062 308.794C992.062 308.109 992.302 307.543 992.782 307.097C993.279 306.634 993.913 306.403 994.685 306.403C995.439 306.403 996.056 306.634 996.536 307.097C997.033 307.543 997.282 308.109 997.282 308.794C997.282 309.463 997.033 310.029 996.536 310.491C996.056 310.937 995.439 311.16 994.685 311.16ZM996.87 312.651V327H992.473V312.651H996.87Z" fill="#121212"/>
</g>
<g clip-path="url(#clip22_387_56067)">
<path opacity="0.5" d="M854.446 109.428L846.414 120.694L843.669 118.737L846.976 114.099L842.707 111.056L839.4 115.694L836.656 113.737L844.689 102.471L847.433 104.428L844.286 108.841L848.555 111.885L851.702 107.472L854.446 109.428ZM860.132 123.504C859.949 123.76 859.742 124.016 859.511 124.272L853.301 119.843C852.947 120.43 852.818 120.984 852.915 121.505C853.03 122.023 853.317 122.445 853.777 122.773C854.462 123.262 855.144 123.312 855.824 122.925L858.744 125.008C858.175 125.489 857.525 125.825 856.793 126.013C856.072 126.209 855.322 126.231 854.543 126.079C853.764 125.927 853.011 125.592 852.283 125.073C851.406 124.447 850.758 123.703 850.341 122.841C849.923 121.978 849.769 121.061 849.88 120.091C849.991 119.121 850.378 118.171 851.042 117.24C851.705 116.309 852.472 115.63 853.343 115.201C854.224 114.78 855.14 114.627 856.092 114.741C857.043 114.854 857.963 115.228 858.851 115.861C859.718 116.479 860.358 117.21 860.773 118.054C861.188 118.899 861.342 119.792 861.236 120.733C861.141 121.681 860.772 122.605 860.132 123.504ZM857.838 120.779C858.174 120.308 858.28 119.819 858.158 119.312C858.035 118.805 857.733 118.38 857.251 118.037C856.791 117.709 856.306 117.564 855.794 117.603C855.293 117.649 854.83 117.891 854.404 118.33L857.838 120.779ZM866.349 123.652C867.021 123.389 867.697 123.29 868.376 123.355C869.064 123.409 869.702 123.646 870.29 124.066L868.219 126.97L867.465 126.433C866.78 125.944 866.16 125.728 865.604 125.783C865.055 125.828 864.518 126.22 863.992 126.958L861.028 131.114L858.284 129.158L864.669 120.203L867.413 122.159L866.349 123.652ZM873.374 128.322C873.928 128.087 874.537 128.014 875.202 128.1C875.866 128.187 876.509 128.451 877.129 128.894C877.868 129.42 878.403 130.084 878.735 130.886C879.067 131.687 879.156 132.558 879.003 133.497C878.86 134.445 878.461 135.378 877.805 136.298C877.149 137.218 876.392 137.906 875.536 138.36C874.698 138.811 873.842 139.016 872.968 138.974C872.102 138.921 871.3 138.632 870.561 138.105C869.93 137.655 869.467 137.139 869.172 136.558C868.884 135.965 868.755 135.365 868.785 134.757L867.893 136.009L865.148 134.052L873.616 122.176L876.36 124.133L873.374 128.322ZM875.012 134.307C875.501 133.623 875.689 132.95 875.579 132.291C875.487 131.628 875.162 131.098 874.606 130.701C874.06 130.312 873.454 130.178 872.786 130.3C872.13 130.428 871.557 130.835 871.069 131.52C870.581 132.205 870.383 132.878 870.475 133.541C870.578 134.212 870.902 134.742 871.448 135.131C871.994 135.52 872.6 135.654 873.267 135.532C873.942 135.4 874.524 134.992 875.012 134.307ZM887.777 143.215C887.594 143.472 887.388 143.728 887.157 143.983L880.946 139.555C880.593 140.142 880.464 140.696 880.561 141.217C880.676 141.734 880.963 142.157 881.423 142.485C882.108 142.973 882.79 143.024 883.469 142.637L886.39 144.719C885.821 145.201 885.17 145.536 884.439 145.725C883.718 145.921 882.968 145.943 882.189 145.791C881.41 145.639 880.657 145.303 879.929 144.785C879.052 144.159 878.404 143.415 877.986 142.552C877.569 141.69 877.415 140.773 877.526 139.803C877.637 138.833 878.024 137.883 878.687 136.952C879.351 136.021 880.118 135.341 880.988 134.913C881.869 134.492 882.786 134.339 883.737 134.452C884.689 134.566 885.609 134.94 886.497 135.573C887.364 136.191 888.004 136.922 888.419 137.766C888.834 138.611 888.988 139.503 888.882 140.444C888.786 141.393 888.418 142.317 887.777 143.215ZM885.484 140.491C885.82 140.02 885.926 139.531 885.803 139.024C885.681 138.517 885.379 138.092 884.897 137.749C884.437 137.42 883.951 137.276 883.44 137.314C882.939 137.361 882.475 137.603 882.05 138.042L885.484 140.491ZM893.995 143.364C894.667 143.1 895.343 143.001 896.022 143.066C896.71 143.121 897.348 143.358 897.936 143.777L895.865 146.682L895.111 146.144C894.426 145.656 893.806 145.44 893.25 145.495C892.701 145.54 892.164 145.931 891.638 146.67L888.674 150.826L885.93 148.869L892.315 139.914L895.059 141.871L893.995 143.364ZM899.444 154.995L897.785 157.323L896.389 156.327C895.394 155.618 894.79 154.824 894.577 153.946C894.371 153.057 894.662 152.061 895.447 150.959L897.988 147.397L896.896 146.619L898.521 144.34L899.612 145.118L901.169 142.935L903.913 144.892L902.357 147.074L904.154 148.356L902.529 150.635L900.732 149.353L898.169 152.948C897.978 153.216 897.905 153.454 897.949 153.663C897.994 153.872 898.166 154.084 898.465 154.297L899.444 154.995ZM923.506 158.668L915.473 169.934L912.729 167.977L917.546 161.221L910.209 166.181L907.995 164.602L910.288 156.022L905.459 162.794L902.715 160.837L910.747 149.571L913.989 151.883L911.59 161.936L920.28 156.368L923.506 158.668ZM920.105 166.459C920.761 165.539 921.508 164.853 922.346 164.401C923.195 163.958 924.053 163.762 924.919 163.815C925.785 163.868 926.587 164.157 927.325 164.684C927.957 165.134 928.416 165.655 928.704 166.247C929.002 166.847 929.131 167.448 929.09 168.048L929.994 166.78L932.738 168.737L926.353 177.692L923.609 175.735L924.513 174.467C923.948 174.694 923.333 174.764 922.669 174.677C922.015 174.599 921.373 174.334 920.741 173.884C920.014 173.365 919.484 172.705 919.152 171.903C918.827 171.091 918.736 170.211 918.879 169.264C919.04 168.314 919.449 167.379 920.105 166.459ZM926.802 171.258C927.29 170.573 927.483 169.895 927.38 169.225C927.287 168.562 926.969 168.036 926.423 167.647C925.877 167.258 925.271 167.124 924.603 167.245C923.954 167.363 923.386 167.765 922.897 168.45C922.409 169.134 922.207 169.814 922.292 170.487C922.395 171.158 922.719 171.687 923.265 172.076C923.81 172.465 924.412 172.596 925.068 172.467C925.736 172.345 926.313 171.942 926.802 171.258ZM930.986 174.241C931.649 173.31 932.416 172.63 933.287 172.202C934.168 171.781 935.079 171.624 936.02 171.73C936.971 171.844 937.886 172.213 938.763 172.839C939.887 173.64 940.613 174.602 940.942 175.724C941.282 176.854 941.189 178.038 940.661 179.276L937.74 177.193C937.983 176.333 937.751 175.651 937.044 175.148C936.542 174.789 935.999 174.701 935.417 174.883C934.843 175.055 934.297 175.504 933.778 176.232C933.259 176.959 933.009 177.628 933.026 178.237C933.051 178.836 933.315 179.315 933.818 179.673C934.524 180.177 935.244 180.174 935.978 179.665L938.899 181.747C937.916 182.628 936.831 183.097 935.644 183.154C934.458 183.212 933.308 182.844 932.195 182.051C931.318 181.425 930.67 180.681 930.253 179.818C929.846 178.963 929.697 178.051 929.808 177.081C929.929 176.118 930.322 175.172 930.986 174.241ZM940.714 181.153C941.37 180.233 942.117 179.547 942.955 179.096C943.804 178.652 944.662 178.457 945.528 178.509C946.394 178.562 947.196 178.852 947.934 179.378C948.566 179.828 949.025 180.349 949.313 180.942C949.611 181.542 949.74 182.142 949.699 182.742L950.603 181.475L953.347 183.431L946.962 192.386L944.218 190.43L945.122 189.162C944.557 189.388 943.942 189.458 943.278 189.372C942.624 189.293 941.982 189.028 941.35 188.578C940.623 188.06 940.093 187.399 939.761 186.598C939.436 185.785 939.345 184.906 939.488 183.959C939.649 183.008 940.058 182.073 940.714 181.153ZM947.411 185.952C947.899 185.267 948.092 184.59 947.989 183.919C947.896 183.256 947.578 182.73 947.032 182.341C946.486 181.952 945.88 181.818 945.212 181.94C944.563 182.058 943.995 182.459 943.506 183.144C943.018 183.829 942.816 184.508 942.901 185.181C943.004 185.852 943.328 186.382 943.874 186.771C944.419 187.16 945.021 187.29 945.677 187.161C946.345 187.04 946.922 186.637 947.411 185.952ZM964.175 191.152L957.791 200.107L955.046 198.15L955.916 196.93C955.355 197.128 954.747 197.178 954.09 197.081C953.451 196.981 952.843 196.724 952.265 196.313C951.581 195.824 951.083 195.244 950.772 194.57C950.469 193.886 950.379 193.152 950.502 192.368C950.625 191.585 950.965 190.802 951.522 190.021L955.253 184.79L957.981 186.735L954.514 191.598C954.087 192.197 953.91 192.773 953.984 193.326C954.057 193.878 954.356 194.342 954.881 194.716C955.416 195.097 955.956 195.232 956.503 195.122C957.05 195.012 957.537 194.657 957.964 194.058L961.431 189.195L964.175 191.152ZM970.974 191.593L962.506 203.469L959.762 201.512L968.229 189.636L970.974 191.593ZM976.232 206.284C976.049 206.541 975.842 206.797 975.611 207.052L969.401 202.624C969.047 203.21 968.918 203.764 969.015 204.285C969.13 204.803 969.417 205.226 969.877 205.554C970.562 206.042 971.244 206.092 971.924 205.705L974.844 207.788C974.275 208.27 973.625 208.605 972.893 208.793C972.172 208.989 971.422 209.011 970.643 208.859C969.864 208.707 969.111 208.372 968.383 207.853C967.506 207.227 966.858 206.483 966.441 205.621C966.023 204.758 965.869 203.842 965.98 202.872C966.091 201.902 966.478 200.951 967.142 200.02C967.805 199.09 968.572 198.41 969.443 197.981C970.324 197.561 971.24 197.407 972.192 197.521C973.143 197.635 974.063 198.008 974.951 198.641C975.818 199.259 976.458 199.99 976.873 200.835C977.288 201.679 977.442 202.572 977.336 203.513C977.241 204.461 976.872 205.385 976.232 206.284ZM973.938 203.559C974.274 203.088 974.38 202.599 974.258 202.092C974.135 201.585 973.833 201.16 973.352 200.817C972.891 200.489 972.406 200.344 971.894 200.383C971.393 200.429 970.93 200.672 970.504 201.11L973.938 203.559ZM989.916 209.505L974.882 218.708L971.929 216.603L977.233 213.51L979.758 202.262L982.823 204.448L980.9 211.525L986.948 207.388L989.916 209.505Z" fill="#121212"/>
</g>
</g>
</g>
<defs>
<clipPath id="clip0_387_56067">
<rect width="1185" height="563" fill="white" transform="translate(0.5)"/>
</clipPath>
<clipPath id="clip1_387_56067">
<rect width="1185" height="622" fill="white" transform="translate(1.5 -20)"/>
</clipPath>
<clipPath id="clip2_387_56067">
<rect width="56" height="56" fill="white" transform="translate(947.5 440)"/>
</clipPath>
<clipPath id="clip3_387_56067">
<rect width="56" height="56" fill="white" transform="translate(519.5 185)"/>
</clipPath>
<clipPath id="clip4_387_56067">
<rect width="56" height="56" fill="white" transform="translate(357.5 223)"/>
</clipPath>
<clipPath id="clip5_387_56067">
<rect width="56" height="56" fill="white" transform="translate(53.5 336)"/>
</clipPath>
<clipPath id="clip6_387_56067">
<rect width="56" height="56" fill="white" transform="translate(1003.5 122)"/>
</clipPath>
<clipPath id="clip7_387_56067">
<rect width="56" height="56" fill="white" transform="translate(970.5 344)"/>
</clipPath>
<clipPath id="clip8_387_56067">
<rect width="56" height="56" fill="white" transform="translate(309.5 420)"/>
</clipPath>
<clipPath id="clip9_387_56067">
<rect width="56" height="56" fill="white" transform="translate(123.5 78)"/>
</clipPath>
<clipPath id="clip10_387_56067">
<rect width="56" height="56" fill="white" transform="translate(356.5 15)"/>
</clipPath>
<clipPath id="clip11_387_56067">
<rect width="70" height="18" fill="white" transform="translate(528.5 264)"/>
</clipPath>
<clipPath id="clip12_387_56067">
<rect width="92.5777" height="40.6669" fill="white" transform="translate(614.5 314.272)"/>
</clipPath>
<clipPath id="clip13_387_56067">
<rect width="121" height="32" fill="white" transform="translate(649.5 185)"/>
</clipPath>
<clipPath id="clip14_387_56067">
<rect width="192" height="18" fill="white" transform="translate(61.5 136)"/>
</clipPath>
<clipPath id="clip15_387_56067">
<rect width="68" height="27" fill="white" transform="translate(355.5 78)"/>
</clipPath>
<clipPath id="clip16_387_56067">
<rect width="65" height="30" fill="white" transform="translate(304.5 472)"/>
</clipPath>
<clipPath id="clip17_387_56067">
<rect width="112" height="18" fill="white" transform="translate(326.5 286)"/>
</clipPath>
<clipPath id="clip18_387_56067">
<rect width="98" height="18" fill="white" transform="translate(43.5 398)"/>
</clipPath>
<clipPath id="clip19_387_56067">
<rect width="126" height="18" fill="white" transform="translate(940.5 505)"/>
</clipPath>
<clipPath id="clip20_387_56067">
<rect width="62" height="18" fill="white" transform="translate(672.5 437)"/>
</clipPath>
<clipPath id="clip21_387_56067">
<rect width="76" height="18" fill="white" transform="translate(922.5 309)"/>
</clipPath>
<clipPath id="clip22_387_56067">
<rect width="158.639" height="120.316" fill="white" transform="translate(834.5 100)"/>
</clipPath>
</defs>
</svg>
