<svg width="1023" height="508" viewBox="0 0 1023 508" fill="none" xmlns="http://www.w3.org/2000/svg">
<path opacity="0.5" d="M520 358C535.464 358 548 345.464 548 330C548 314.536 535.464 302 520 302C504.536 302 492 314.536 492 330C492 345.464 504.536 358 520 358Z" fill="#FF9B85"/>
<path d="M531.246 332.676C532.71 326.474 528.87 320.258 522.667 318.794C516.465 317.329 510.25 321.17 508.785 327.372C507.321 333.575 511.161 339.79 517.364 341.255C523.566 342.719 529.781 338.878 531.246 332.676Z" fill="#FF9B85"/>
<g clip-path="url(#clip0_801_56132)">
<path d="M960 445.487C960 456.808 931.994 481 931.994 481C931.994 481 904 456.812 904 445.487C904 434.187 916.53 425 931.988 425C947.47 425 960 434.192 960 445.487Z" fill="#F49406"/>
<path d="M941.231 451.558C946.33 447.828 946.33 441.78 941.231 438.049C936.131 434.319 927.864 434.319 922.764 438.049C917.665 441.78 917.665 447.828 922.764 451.558C927.864 455.288 936.131 455.288 941.231 451.558Z" fill="white"/>
</g>
<g clip-path="url(#clip1_801_56132)">
<path d="M532 190.487C532 201.808 503.994 226 503.994 226C503.994 226 476 201.812 476 190.487C476 179.187 488.53 170 503.988 170C519.47 170 532 179.192 532 190.487Z" fill="#F49406"/>
<path d="M513.231 196.558C518.33 192.828 518.33 186.78 513.231 183.049C508.131 179.319 499.864 179.319 494.764 183.049C489.665 186.78 489.665 192.828 494.764 196.558C499.864 200.288 508.131 200.288 513.231 196.558Z" fill="white"/>
</g>
<g clip-path="url(#clip2_801_56132)">
<path d="M370 228.487C370 239.808 341.994 264 341.994 264C341.994 264 314 239.812 314 228.487C314 217.187 326.53 208 341.988 208C357.47 208 370 217.192 370 228.487Z" fill="#F49406"/>
<path d="M351.231 234.558C356.33 230.828 356.33 224.78 351.231 221.049C346.131 217.319 337.864 217.319 332.764 221.049C327.665 224.78 327.665 230.828 332.764 234.558C337.864 238.288 346.131 238.288 351.231 234.558Z" fill="white"/>
</g>
<g clip-path="url(#clip3_801_56132)">
<path d="M66 341.487C66 352.808 37.9941 377 37.9941 377C37.9941 377 10 352.812 10 341.487C10 330.187 22.5299 321 37.9883 321C53.4701 321 66 330.192 66 341.487Z" fill="#F49406"/>
<path d="M47.2309 347.558C52.3303 343.828 52.3303 337.78 47.2309 334.049C42.1314 330.319 33.8636 330.319 28.7642 334.049C23.6647 337.78 23.6647 343.828 28.7642 347.558C33.8636 351.288 42.1314 351.288 47.2309 347.558Z" fill="white"/>
</g>
<g clip-path="url(#clip4_801_56132)">
<path d="M1016 127.487C1016 138.808 987.994 163 987.994 163C987.994 163 960 138.812 960 127.487C960 116.187 972.53 107 987.988 107C1003.47 107 1016 116.192 1016 127.487Z" fill="#F49406"/>
<path d="M997.231 133.558C1002.33 129.828 1002.33 123.78 997.231 120.049C992.131 116.319 983.864 116.319 978.764 120.049C973.665 123.78 973.665 129.828 978.764 133.558C983.864 137.288 992.131 137.288 997.231 133.558Z" fill="white"/>
</g>
<g clip-path="url(#clip5_801_56132)">
<path d="M983 349.487C983 360.808 954.994 385 954.994 385C954.994 385 927 360.812 927 349.487C927 338.187 939.53 329 954.988 329C970.47 329 983 338.192 983 349.487Z" fill="#F49406"/>
<path d="M964.231 355.558C969.33 351.828 969.33 345.78 964.231 342.049C959.131 338.319 950.864 338.319 945.764 342.049C940.665 345.78 940.665 351.828 945.764 355.558C950.864 359.288 959.131 359.288 964.231 355.558Z" fill="white"/>
</g>
<g clip-path="url(#clip6_801_56132)">
<path d="M322 425.487C322 436.808 293.994 461 293.994 461C293.994 461 266 436.812 266 425.487C266 414.187 278.53 405 293.988 405C309.47 405 322 414.192 322 425.487Z" fill="#F49406"/>
<path d="M303.231 431.558C308.33 427.828 308.33 421.78 303.231 418.049C298.131 414.319 289.864 414.319 284.764 418.049C279.665 421.78 279.665 427.828 284.764 431.558C289.864 435.288 298.131 435.288 303.231 431.558Z" fill="white"/>
</g>
<g clip-path="url(#clip7_801_56132)">
<path d="M136 83.487C136 94.808 107.994 119 107.994 119C107.994 119 80 94.8123 80 83.487C80 72.1874 92.5299 63 107.988 63C123.47 63 136 72.1917 136 83.487Z" fill="#F49406"/>
<path d="M117.231 89.5581C122.33 85.8277 122.33 79.7796 117.231 76.0492C112.131 72.3189 103.864 72.3189 98.7642 76.0492C93.6647 79.7796 93.6647 85.8277 98.7642 89.5581C103.864 93.2884 112.131 93.2884 117.231 89.5581Z" fill="white"/>
</g>
<g clip-path="url(#clip8_801_56132)">
<path d="M369 20.487C369 31.808 340.994 56 340.994 56C340.994 56 313 31.8123 313 20.487C313 9.18737 325.53 0 340.988 0C356.47 0 369 9.19166 369 20.487Z" fill="#F49406"/>
<path d="M350.231 26.5581C355.33 22.8277 355.33 16.7796 350.231 13.0492C345.131 9.31887 336.864 9.31886 331.764 13.0492C326.665 16.7796 326.665 22.8277 331.764 26.5581C336.864 30.2884 345.131 30.2884 350.231 26.5581Z" fill="white"/>
</g>
<g clip-path="url(#clip9_801_56132)">
<path d="M502.074 248.949L495.826 261.034V267H491.429V261.034L485.18 248.949H490.169L493.666 256.509L497.137 248.949H502.074ZM502.972 259.8C502.972 258.326 503.246 257.031 503.795 255.917C504.36 254.803 505.123 253.946 506.083 253.346C507.043 252.746 508.115 252.446 509.297 252.446C510.309 252.446 511.192 252.651 511.946 253.063C512.717 253.474 513.309 254.014 513.72 254.683V252.651H518.117V267H513.72V264.969C513.292 265.637 512.692 266.177 511.92 266.589C511.166 267 510.283 267.206 509.272 267.206C508.106 267.206 507.043 266.906 506.083 266.306C505.123 265.689 504.36 264.823 503.795 263.709C503.246 262.577 502.972 261.274 502.972 259.8ZM513.72 259.826C513.72 258.729 513.412 257.863 512.795 257.229C512.195 256.594 511.457 256.277 510.583 256.277C509.709 256.277 508.963 256.594 508.346 257.229C507.746 257.846 507.446 258.703 507.446 259.8C507.446 260.897 507.746 261.771 508.346 262.423C508.963 263.057 509.709 263.374 510.583 263.374C511.457 263.374 512.195 263.057 512.795 262.423C513.412 261.789 513.72 260.923 513.72 259.826ZM525.696 254.683C526.107 254.014 526.699 253.474 527.47 253.063C528.241 252.651 529.124 252.446 530.119 252.446C531.301 252.446 532.373 252.746 533.333 253.346C534.293 253.946 535.047 254.803 535.596 255.917C536.161 257.031 536.444 258.326 536.444 259.8C536.444 261.274 536.161 262.577 535.596 263.709C535.047 264.823 534.293 265.689 533.333 266.306C532.373 266.906 531.301 267.206 530.119 267.206C529.107 267.206 528.224 267.009 527.47 266.614C526.716 266.203 526.124 265.663 525.696 264.994V267H521.299V247.971H525.696V254.683ZM531.97 259.8C531.97 258.703 531.661 257.846 531.044 257.229C530.444 256.594 529.699 256.277 528.807 256.277C527.933 256.277 527.187 256.594 526.57 257.229C525.97 257.863 525.67 258.729 525.67 259.826C525.67 260.923 525.97 261.789 526.57 262.423C527.187 263.057 527.933 263.374 528.807 263.374C529.681 263.374 530.427 263.057 531.044 262.423C531.661 261.771 531.97 260.897 531.97 259.8ZM537.877 259.8C537.877 258.326 538.151 257.031 538.7 255.917C539.265 254.803 540.028 253.946 540.988 253.346C541.948 252.746 543.02 252.446 544.203 252.446C545.214 252.446 546.097 252.651 546.851 253.063C547.623 253.474 548.214 254.014 548.625 254.683V252.651H553.023V267H548.625V264.969C548.197 265.637 547.597 266.177 546.825 266.589C546.071 267 545.188 267.206 544.177 267.206C543.011 267.206 541.948 266.906 540.988 266.306C540.028 265.689 539.265 264.823 538.7 263.709C538.151 262.577 537.877 261.274 537.877 259.8ZM548.625 259.826C548.625 258.729 548.317 257.863 547.7 257.229C547.1 256.594 546.363 256.277 545.488 256.277C544.614 256.277 543.868 256.594 543.251 257.229C542.651 257.846 542.351 258.703 542.351 259.8C542.351 260.897 542.651 261.771 543.251 262.423C543.868 263.057 544.614 263.374 545.488 263.374C546.363 263.374 547.1 263.057 547.7 262.423C548.317 261.789 548.625 260.923 548.625 259.826Z" fill="#121212"/>
</g>
<g clip-path="url(#clip10_801_56132)">
<path opacity="0.5" d="M582.563 318.861L580.645 327.492L581.636 331.24L578.874 331.97L577.882 328.222L571.949 321.668L575.083 320.839L578.536 325.007L579.461 319.681L582.563 318.861ZM584.929 325.529C584.684 324.603 584.642 323.744 584.801 322.953C584.971 322.159 585.308 321.494 585.812 320.957C586.315 320.421 586.938 320.055 587.681 319.858C588.317 319.69 588.906 319.673 589.448 319.806C590.001 319.936 590.462 320.177 590.832 320.529L590.494 319.252L593.257 318.522L595.64 327.536L592.878 328.267L592.541 326.991C592.382 327.482 592.095 327.921 591.679 328.307C591.273 328.691 590.753 328.967 590.117 329.135C589.385 329.329 588.668 329.317 587.965 329.099C587.259 328.871 586.636 328.454 586.095 327.848C585.563 327.228 585.174 326.455 584.929 325.529ZM591.686 323.76C591.504 323.07 591.166 322.578 590.673 322.282C590.191 321.983 589.675 321.906 589.126 322.051C588.576 322.197 588.161 322.52 587.878 323.021C587.604 323.508 587.558 324.097 587.74 324.786C587.922 325.475 588.256 325.975 588.741 326.284C589.234 326.58 589.756 326.655 590.305 326.51C590.854 326.365 591.264 326.043 591.536 325.545C591.818 325.044 591.868 324.449 591.686 323.76ZM598.355 318.539C598.503 318.051 598.784 317.613 599.201 317.227C599.617 316.84 600.137 316.564 600.762 316.399C601.505 316.202 602.228 316.213 602.931 316.43C603.634 316.648 604.25 317.061 604.78 317.67C605.32 318.276 605.713 319.042 605.958 319.968C606.203 320.894 606.242 321.76 606.074 322.565C605.915 323.356 605.585 324.025 605.084 324.572C604.581 325.109 603.957 325.475 603.214 325.672C602.579 325.84 601.991 325.863 601.452 325.74C600.91 325.607 600.449 325.366 600.068 325.017L600.401 326.277L597.639 327.008L594.478 315.053L597.24 314.323L598.355 318.539ZM603.147 320.712C602.965 320.022 602.628 319.535 602.138 319.25C601.656 318.951 601.135 318.876 600.575 319.024C600.025 319.169 599.61 319.492 599.327 319.993C599.056 320.491 599.011 321.085 599.193 321.774C599.376 322.464 599.708 322.958 600.19 323.256C600.683 323.552 601.205 323.628 601.754 323.482C602.303 323.337 602.719 323.014 603.001 322.513C603.281 322.001 603.329 321.401 603.147 320.712ZM606.858 319.73C606.613 318.804 606.57 317.945 606.73 317.154C606.9 316.36 607.237 315.695 607.74 315.158C608.244 314.622 608.867 314.256 609.61 314.059C610.246 313.891 610.834 313.874 611.377 314.007C611.93 314.137 612.391 314.378 612.76 314.73L612.423 313.453L615.185 312.723L617.569 321.737L614.807 322.468L614.469 321.192C614.311 321.683 614.024 322.122 613.608 322.508C613.202 322.892 612.682 323.168 612.046 323.336C611.314 323.53 610.596 323.518 609.893 323.3C609.188 323.072 608.565 322.655 608.024 322.049C607.492 321.429 607.103 320.656 606.858 319.73ZM613.615 317.961C613.433 317.271 613.095 316.779 612.602 316.483C612.119 316.184 611.604 316.107 611.054 316.252C610.505 316.398 610.089 316.721 609.807 317.222C609.533 317.709 609.487 318.298 609.669 318.987C609.851 319.676 610.185 320.176 610.67 320.485C611.163 320.781 611.684 320.856 612.233 320.711C612.783 320.566 613.193 320.244 613.465 319.746C613.747 319.245 613.797 318.65 613.615 317.961ZM628.15 306.805L628.735 309.019L625.731 309.813L628.144 318.941L625.382 319.671L622.968 310.544L619.963 311.338L619.378 309.125L628.15 306.805ZM639.803 310.88C639.871 311.138 639.926 311.412 639.968 311.7L633.716 313.354C633.907 313.902 634.199 314.286 634.591 314.505C634.991 314.71 635.422 314.752 635.885 314.629C636.575 314.447 636.977 314.029 637.092 313.377L640.033 312.599C640.038 313.231 639.905 313.837 639.632 314.416C639.369 314.993 638.977 315.494 638.456 315.92C637.935 316.346 637.308 316.655 636.576 316.849C635.693 317.083 634.857 317.102 634.068 316.907C633.279 316.713 632.598 316.317 632.025 315.719C631.453 315.122 631.042 314.354 630.794 313.417C630.547 312.481 630.519 311.612 630.71 310.812C630.913 310.01 631.309 309.329 631.899 308.77C632.488 308.211 633.23 307.813 634.124 307.576C634.996 307.346 635.82 307.324 636.595 307.51C637.371 307.697 638.037 308.08 638.593 308.659C639.16 309.235 639.563 309.975 639.803 310.88ZM636.783 310.9C636.658 310.427 636.397 310.092 636 309.898C635.602 309.703 635.162 309.67 634.677 309.798C634.214 309.921 633.856 310.159 633.604 310.514C633.363 310.866 633.271 311.299 633.326 311.815L636.783 310.9ZM640.749 310.785C640.501 309.848 640.473 308.98 640.665 308.18C640.868 307.377 641.258 306.698 641.837 306.142C642.427 305.582 643.163 305.186 644.046 304.952C645.177 304.653 646.198 304.7 647.108 305.093C648.03 305.483 648.751 306.186 649.273 307.2L646.333 307.977C645.903 307.354 645.332 307.136 644.622 307.324C644.115 307.458 643.764 307.764 643.568 308.242C643.369 308.709 643.366 309.309 643.56 310.042C643.754 310.774 644.054 311.3 644.461 311.618C644.865 311.926 645.32 312.013 645.826 311.879C646.537 311.691 646.925 311.22 646.991 310.465L649.931 309.688C649.973 310.806 649.692 311.768 649.086 312.573C648.481 313.378 647.619 313.929 646.499 314.225C645.615 314.459 644.779 314.478 643.99 314.284C643.212 314.086 642.537 313.688 641.964 313.091C641.402 312.491 640.997 311.722 640.749 310.785ZM655.403 301.984C656.437 301.71 657.357 301.836 658.164 302.36C658.968 302.873 659.528 303.727 659.845 304.923L661.237 310.189L658.491 310.916L657.197 306.021C657.037 305.418 656.757 304.99 656.356 304.739C655.956 304.488 655.492 304.432 654.964 304.572C654.436 304.711 654.06 304.989 653.836 305.406C653.612 305.822 653.58 306.332 653.739 306.935L655.034 311.83L652.271 312.56L649.11 300.606L651.873 299.875L652.97 304.027C653.145 303.555 653.443 303.136 653.865 302.771C654.287 302.406 654.8 302.143 655.403 301.984Z" fill="#121212"/>
</g>
<g clip-path="url(#clip11_801_56132)">
<path opacity="0.8" d="M620.58 173.949V177.471H615.797V192H611.4V177.471H606.617V173.949H620.58ZM636.313 184.594C636.313 185.006 636.287 185.434 636.235 185.88H626.284C626.353 186.771 626.635 187.457 627.133 187.937C627.647 188.4 628.273 188.631 629.01 188.631C630.107 188.631 630.87 188.169 631.298 187.243H635.978C635.738 188.186 635.301 189.034 634.667 189.789C634.05 190.543 633.27 191.134 632.327 191.563C631.384 191.991 630.33 192.206 629.164 192.206C627.758 192.206 626.507 191.906 625.41 191.306C624.313 190.706 623.455 189.849 622.838 188.734C622.221 187.62 621.913 186.317 621.913 184.826C621.913 183.334 622.213 182.031 622.813 180.917C623.43 179.803 624.287 178.946 625.384 178.346C626.481 177.746 627.741 177.446 629.164 177.446C630.553 177.446 631.787 177.737 632.867 178.32C633.947 178.903 634.787 179.734 635.387 180.814C636.004 181.894 636.313 183.154 636.313 184.594ZM631.813 183.437C631.813 182.683 631.555 182.083 631.041 181.637C630.527 181.191 629.884 180.969 629.113 180.969C628.375 180.969 627.75 181.183 627.235 181.611C626.738 182.04 626.43 182.649 626.31 183.437H631.813ZM640.818 176.16C640.047 176.16 639.412 175.937 638.915 175.491C638.435 175.029 638.195 174.463 638.195 173.794C638.195 173.109 638.435 172.543 638.915 172.097C639.412 171.634 640.047 171.403 640.818 171.403C641.572 171.403 642.189 171.634 642.669 172.097C643.167 172.543 643.415 173.109 643.415 173.794C643.415 174.463 643.167 175.029 642.669 175.491C642.189 175.937 641.572 176.16 640.818 176.16ZM643.029 193.851C643.029 195.617 642.584 196.886 641.692 197.657C640.801 198.446 639.558 198.84 637.964 198.84H636.241V195.111H637.295C637.775 195.111 638.118 195.017 638.324 194.829C638.529 194.64 638.632 194.331 638.632 193.903V177.651H643.029V193.851ZM660.359 177.651V192H655.962V190.046C655.517 190.68 654.908 191.194 654.137 191.589C653.382 191.966 652.542 192.154 651.617 192.154C650.519 192.154 649.551 191.914 648.711 191.434C647.871 190.937 647.219 190.226 646.757 189.3C646.294 188.374 646.062 187.286 646.062 186.034V177.651H650.434V185.443C650.434 186.403 650.682 187.149 651.179 187.68C651.677 188.211 652.345 188.477 653.185 188.477C654.042 188.477 654.719 188.211 655.217 187.68C655.714 187.149 655.962 186.403 655.962 185.443V177.651H660.359ZM670.049 192.206C668.644 192.206 667.375 191.906 666.244 191.306C665.129 190.706 664.246 189.849 663.595 188.734C662.961 187.62 662.644 186.317 662.644 184.826C662.644 183.351 662.969 182.057 663.621 180.943C664.272 179.811 665.164 178.946 666.295 178.346C667.426 177.746 668.695 177.446 670.101 177.446C671.506 177.446 672.775 177.746 673.906 178.346C675.038 178.946 675.929 179.811 676.581 180.943C677.232 182.057 677.558 183.351 677.558 184.826C677.558 186.3 677.224 187.603 676.555 188.734C675.904 189.849 675.004 190.706 673.855 191.306C672.724 191.906 671.455 192.206 670.049 192.206ZM670.049 188.4C670.889 188.4 671.601 188.091 672.184 187.474C672.784 186.857 673.084 185.974 673.084 184.826C673.084 183.677 672.792 182.794 672.209 182.177C671.644 181.56 670.941 181.251 670.101 181.251C669.244 181.251 668.532 181.56 667.966 182.177C667.401 182.777 667.118 183.66 667.118 184.826C667.118 185.974 667.392 186.857 667.941 187.474C668.506 188.091 669.209 188.4 670.049 188.4ZM685.728 192.206C684.476 192.206 683.362 191.991 682.385 191.563C681.408 191.134 680.636 190.551 680.071 189.814C679.505 189.06 679.188 188.22 679.119 187.294H683.465C683.516 187.791 683.748 188.194 684.159 188.503C684.571 188.811 685.076 188.966 685.676 188.966C686.225 188.966 686.645 188.863 686.936 188.657C687.245 188.434 687.399 188.151 687.399 187.809C687.399 187.397 687.185 187.097 686.756 186.909C686.328 186.703 685.633 186.48 684.673 186.24C683.645 186 682.788 185.751 682.102 185.494C681.416 185.22 680.825 184.8 680.328 184.234C679.831 183.651 679.582 182.871 679.582 181.894C679.582 181.071 679.805 180.326 680.251 179.657C680.713 178.971 681.382 178.431 682.256 178.037C683.148 177.643 684.202 177.446 685.419 177.446C687.219 177.446 688.633 177.891 689.662 178.783C690.708 179.674 691.308 180.857 691.462 182.331H687.399C687.331 181.834 687.108 181.44 686.731 181.149C686.371 180.857 685.891 180.711 685.291 180.711C684.776 180.711 684.382 180.814 684.108 181.02C683.833 181.209 683.696 181.474 683.696 181.817C683.696 182.229 683.911 182.537 684.339 182.743C684.785 182.949 685.471 183.154 686.396 183.36C687.459 183.634 688.325 183.909 688.993 184.183C689.662 184.44 690.245 184.869 690.742 185.469C691.256 186.051 691.522 186.84 691.539 187.834C691.539 188.674 691.299 189.429 690.819 190.097C690.356 190.749 689.679 191.263 688.788 191.64C687.913 192.017 686.893 192.206 685.728 192.206ZM703.049 177.497C704.695 177.497 706.015 178.046 707.009 179.143C708.004 180.223 708.501 181.714 708.501 183.617V192H704.129V184.209C704.129 183.249 703.881 182.503 703.384 181.971C702.886 181.44 702.218 181.174 701.378 181.174C700.538 181.174 699.869 181.44 699.372 181.971C698.875 182.503 698.626 183.249 698.626 184.209V192H694.229V172.971H698.626V179.58C699.072 178.946 699.681 178.44 700.452 178.063C701.224 177.686 702.089 177.497 703.049 177.497ZM718.088 192.206C716.682 192.206 715.413 191.906 714.282 191.306C713.168 190.706 712.285 189.849 711.633 188.734C710.999 187.62 710.682 186.317 710.682 184.826C710.682 183.351 711.008 182.057 711.659 180.943C712.311 179.811 713.202 178.946 714.333 178.346C715.465 177.746 716.733 177.446 718.139 177.446C719.545 177.446 720.813 177.746 721.945 178.346C723.076 178.946 723.968 179.811 724.619 180.943C725.271 182.057 725.596 183.351 725.596 184.826C725.596 186.3 725.262 187.603 724.593 188.734C723.942 189.849 723.042 190.706 721.893 191.306C720.762 191.906 719.493 192.206 718.088 192.206ZM718.088 188.4C718.928 188.4 719.639 188.091 720.222 187.474C720.822 186.857 721.122 185.974 721.122 184.826C721.122 183.677 720.831 182.794 720.248 182.177C719.682 181.56 718.979 181.251 718.139 181.251C717.282 181.251 716.571 181.56 716.005 182.177C715.439 182.777 715.156 183.66 715.156 184.826C715.156 185.974 715.431 186.857 715.979 187.474C716.545 188.091 717.248 188.4 718.088 188.4Z" fill="#121212"/>
</g>
<g clip-path="url(#clip12_801_56132)">
<path opacity="0.8" d="M36.54 120.949L30.1371 139H24.6343L18.2314 120.949H22.9114L27.3857 134.577L31.8857 120.949H36.54ZM40.5892 123.16C39.8178 123.16 39.1835 122.937 38.6863 122.491C38.2063 122.029 37.9663 121.463 37.9663 120.794C37.9663 120.109 38.2063 119.543 38.6863 119.097C39.1835 118.634 39.8178 118.403 40.5892 118.403C41.3435 118.403 41.9606 118.634 42.4406 119.097C42.9378 119.543 43.1863 120.109 43.1863 120.794C43.1863 121.463 42.9378 122.029 42.4406 122.491C41.9606 122.937 41.3435 123.16 40.5892 123.16ZM42.7749 124.651V139H38.3778V124.651H42.7749ZM45.0872 131.826C45.0872 130.334 45.3872 129.031 45.9872 127.917C46.6043 126.803 47.4529 125.946 48.5329 125.346C49.63 124.746 50.8815 124.446 52.2872 124.446C54.0872 124.446 55.5872 124.917 56.7872 125.86C58.0043 126.803 58.8015 128.131 59.1786 129.846H54.4986C54.1043 128.749 53.3415 128.2 52.21 128.2C51.4043 128.2 50.7615 128.517 50.2815 129.151C49.8015 129.769 49.5615 130.66 49.5615 131.826C49.5615 132.991 49.8015 133.891 50.2815 134.526C50.7615 135.143 51.4043 135.451 52.21 135.451C53.3415 135.451 54.1043 134.903 54.4986 133.806H59.1786C58.8015 135.486 58.0043 136.806 56.7872 137.766C55.57 138.726 54.07 139.206 52.2872 139.206C50.8815 139.206 49.63 138.906 48.5329 138.306C47.4529 137.706 46.6043 136.849 45.9872 135.734C45.3872 134.62 45.0872 133.317 45.0872 131.826ZM69.5278 135.271V139H67.2907C65.6964 139 64.4535 138.614 63.5621 137.843C62.6707 137.054 62.225 135.777 62.225 134.011V128.303H60.4764V124.651H62.225V121.154H66.6221V124.651H69.5021V128.303H66.6221V134.063C66.6221 134.491 66.725 134.8 66.9307 134.989C67.1364 135.177 67.4792 135.271 67.9592 135.271H69.5278ZM78.5085 139.206C77.1028 139.206 75.8342 138.906 74.7028 138.306C73.5885 137.706 72.7057 136.849 72.0542 135.734C71.42 134.62 71.1028 133.317 71.1028 131.826C71.1028 130.351 71.4285 129.057 72.08 127.943C72.7314 126.811 73.6228 125.946 74.7542 125.346C75.8857 124.746 77.1542 124.446 78.56 124.446C79.9657 124.446 81.2342 124.746 82.3657 125.346C83.4971 125.946 84.3885 126.811 85.04 127.943C85.6914 129.057 86.0171 130.351 86.0171 131.826C86.0171 133.3 85.6828 134.603 85.0142 135.734C84.3628 136.849 83.4628 137.706 82.3142 138.306C81.1828 138.906 79.9142 139.206 78.5085 139.206ZM78.5085 135.4C79.3485 135.4 80.06 135.091 80.6428 134.474C81.2428 133.857 81.5428 132.974 81.5428 131.826C81.5428 130.677 81.2514 129.794 80.6685 129.177C80.1028 128.56 79.4 128.251 78.56 128.251C77.7028 128.251 76.9914 128.56 76.4257 129.177C75.86 129.777 75.5771 130.66 75.5771 131.826C75.5771 132.974 75.8514 133.857 76.4 134.474C76.9657 135.091 77.6685 135.4 78.5085 135.4ZM92.747 127.043C93.2613 126.254 93.9041 125.637 94.6756 125.191C95.447 124.729 96.3041 124.497 97.247 124.497V129.151H96.0384C94.9413 129.151 94.1184 129.391 93.5699 129.871C93.0213 130.334 92.747 131.157 92.747 132.34V139H88.3499V124.651H92.747V127.043ZM101.56 123.16C100.789 123.16 100.154 122.937 99.6573 122.491C99.1773 122.029 98.9373 121.463 98.9373 120.794C98.9373 120.109 99.1773 119.543 99.6573 119.097C100.154 118.634 100.789 118.403 101.56 118.403C102.314 118.403 102.932 118.634 103.412 119.097C103.909 119.543 104.157 120.109 104.157 120.794C104.157 121.463 103.909 122.029 103.412 122.491C102.932 122.937 102.314 123.16 101.56 123.16ZM103.746 124.651V139H99.3487V124.651H103.746ZM106.058 131.8C106.058 130.326 106.332 129.031 106.881 127.917C107.447 126.803 108.21 125.946 109.17 125.346C110.13 124.746 111.201 124.446 112.384 124.446C113.395 124.446 114.278 124.651 115.032 125.063C115.804 125.474 116.395 126.014 116.807 126.683V124.651H121.204V139H116.807V136.969C116.378 137.637 115.778 138.177 115.007 138.589C114.252 139 113.37 139.206 112.358 139.206C111.192 139.206 110.13 138.906 109.17 138.306C108.21 137.689 107.447 136.823 106.881 135.709C106.332 134.577 106.058 133.274 106.058 131.8ZM116.807 131.826C116.807 130.729 116.498 129.863 115.881 129.229C115.281 128.594 114.544 128.277 113.67 128.277C112.795 128.277 112.05 128.594 111.432 129.229C110.832 129.846 110.532 130.703 110.532 131.8C110.532 132.897 110.832 133.771 111.432 134.423C112.05 135.057 112.795 135.374 113.67 135.374C114.544 135.374 115.281 135.057 115.881 134.423C116.498 133.789 116.807 132.923 116.807 131.826ZM134.231 120.949V139H129.834V120.949H134.231ZM143.255 139.206C142.004 139.206 140.889 138.991 139.912 138.563C138.935 138.134 138.164 137.551 137.598 136.814C137.032 136.06 136.715 135.22 136.647 134.294H140.992C141.044 134.791 141.275 135.194 141.687 135.503C142.098 135.811 142.604 135.966 143.204 135.966C143.752 135.966 144.172 135.863 144.464 135.657C144.772 135.434 144.927 135.151 144.927 134.809C144.927 134.397 144.712 134.097 144.284 133.909C143.855 133.703 143.161 133.48 142.201 133.24C141.172 133 140.315 132.751 139.629 132.494C138.944 132.22 138.352 131.8 137.855 131.234C137.358 130.651 137.109 129.871 137.109 128.894C137.109 128.071 137.332 127.326 137.778 126.657C138.241 125.971 138.909 125.431 139.784 125.037C140.675 124.643 141.729 124.446 142.947 124.446C144.747 124.446 146.161 124.891 147.189 125.783C148.235 126.674 148.835 127.857 148.989 129.331H144.927C144.858 128.834 144.635 128.44 144.258 128.149C143.898 127.857 143.418 127.711 142.818 127.711C142.304 127.711 141.909 127.814 141.635 128.02C141.361 128.209 141.224 128.474 141.224 128.817C141.224 129.229 141.438 129.537 141.867 129.743C142.312 129.949 142.998 130.154 143.924 130.36C144.987 130.634 145.852 130.909 146.521 131.183C147.189 131.44 147.772 131.869 148.269 132.469C148.784 133.051 149.049 133.84 149.067 134.834C149.067 135.674 148.827 136.429 148.347 137.097C147.884 137.749 147.207 138.263 146.315 138.64C145.441 139.017 144.421 139.206 143.255 139.206ZM156.154 119.971V139H151.757V119.971H156.154ZM158.466 131.8C158.466 130.326 158.74 129.031 159.289 127.917C159.855 126.803 160.618 125.946 161.578 125.346C162.538 124.746 163.609 124.446 164.792 124.446C165.803 124.446 166.686 124.651 167.44 125.063C168.212 125.474 168.803 126.014 169.215 126.683V124.651H173.612V139H169.215V136.969C168.786 137.637 168.186 138.177 167.415 138.589C166.66 139 165.778 139.206 164.766 139.206C163.6 139.206 162.538 138.906 161.578 138.306C160.618 137.689 159.855 136.823 159.289 135.709C158.74 134.577 158.466 133.274 158.466 131.8ZM169.215 131.826C169.215 130.729 168.906 129.863 168.289 129.229C167.689 128.594 166.952 128.277 166.078 128.277C165.203 128.277 164.458 128.594 163.84 129.229C163.24 129.846 162.94 130.703 162.94 131.8C162.94 132.897 163.24 133.771 163.84 134.423C164.458 135.057 165.203 135.374 166.078 135.374C166.952 135.374 167.689 135.057 168.289 134.423C168.906 133.789 169.215 132.923 169.215 131.826ZM185.536 124.497C187.216 124.497 188.553 125.046 189.547 126.143C190.559 127.223 191.064 128.714 191.064 130.617V139H186.693V131.209C186.693 130.249 186.444 129.503 185.947 128.971C185.45 128.44 184.782 128.174 183.942 128.174C183.102 128.174 182.433 128.44 181.936 128.971C181.439 129.503 181.19 130.249 181.19 131.209V139H176.793V124.651H181.19V126.554C181.636 125.92 182.236 125.423 182.99 125.063C183.744 124.686 184.593 124.497 185.536 124.497ZM193.246 131.8C193.246 130.326 193.52 129.031 194.069 127.917C194.634 126.803 195.397 125.946 196.357 125.346C197.317 124.746 198.389 124.446 199.571 124.446C200.514 124.446 201.371 124.643 202.143 125.037C202.931 125.431 203.549 125.963 203.994 126.631V119.971H208.391V139H203.994V136.943C203.583 137.629 202.991 138.177 202.22 138.589C201.466 139 200.583 139.206 199.571 139.206C198.389 139.206 197.317 138.906 196.357 138.306C195.397 137.689 194.634 136.823 194.069 135.709C193.52 134.577 193.246 133.274 193.246 131.8ZM203.994 131.826C203.994 130.729 203.686 129.863 203.069 129.229C202.469 128.594 201.731 128.277 200.857 128.277C199.983 128.277 199.237 128.594 198.62 129.229C198.02 129.846 197.72 130.703 197.72 131.8C197.72 132.897 198.02 133.771 198.62 134.423C199.237 135.057 199.983 135.374 200.857 135.374C201.731 135.374 202.469 135.057 203.069 134.423C203.686 133.789 203.994 132.923 203.994 131.826Z" fill="#121212"/>
</g>
<g clip-path="url(#clip13_801_56132)">
<path opacity="0.8" d="M317.991 81.6057H323.751V85H313.594V66.9486H317.991V81.6057ZM339.374 77.5943C339.374 78.0057 339.349 78.4343 339.297 78.88H329.346C329.414 79.7714 329.697 80.4571 330.194 80.9371C330.709 81.4 331.334 81.6314 332.072 81.6314C333.169 81.6314 333.932 81.1686 334.36 80.2429H339.04C338.8 81.1857 338.363 82.0343 337.729 82.7886C337.112 83.5429 336.332 84.1343 335.389 84.5629C334.446 84.9914 333.392 85.2057 332.226 85.2057C330.82 85.2057 329.569 84.9057 328.472 84.3057C327.374 83.7057 326.517 82.8486 325.9 81.7343C325.283 80.62 324.974 79.3171 324.974 77.8257C324.974 76.3343 325.274 75.0314 325.874 73.9171C326.492 72.8029 327.349 71.9457 328.446 71.3457C329.543 70.7457 330.803 70.4457 332.226 70.4457C333.614 70.4457 334.849 70.7371 335.929 71.32C337.009 71.9029 337.849 72.7343 338.449 73.8143C339.066 74.8943 339.374 76.1543 339.374 77.5943ZM334.874 76.4371C334.874 75.6829 334.617 75.0829 334.103 74.6371C333.589 74.1914 332.946 73.9686 332.174 73.9686C331.437 73.9686 330.812 74.1829 330.297 74.6114C329.8 75.04 329.492 75.6486 329.372 76.4371H334.874ZM350.463 85L346.091 78.9829V85H341.694V65.9714H346.091V76.4886L350.437 70.6514H355.863L349.897 77.8514L355.914 85H350.463ZM366.358 85L361.987 78.9829V85H357.59V65.9714H361.987V76.4886L366.333 70.6514H371.758L365.793 77.8514L371.81 85H366.358ZM375.697 69.16C374.925 69.16 374.291 68.9371 373.794 68.4914C373.314 68.0286 373.074 67.4629 373.074 66.7943C373.074 66.1086 373.314 65.5429 373.794 65.0971C374.291 64.6343 374.925 64.4029 375.697 64.4029C376.451 64.4029 377.068 64.6343 377.548 65.0971C378.045 65.5429 378.294 66.1086 378.294 66.7943C378.294 67.4629 378.045 68.0286 377.548 68.4914C377.068 68.9371 376.451 69.16 375.697 69.16ZM377.883 70.6514V85H373.485V70.6514H377.883Z" fill="#121212"/>
</g>
<g clip-path="url(#clip14_801_56132)">
<path d="M266.991 462.782V480.833H262.594V462.782H266.991ZM278.947 480.833L274.575 474.816V480.833H270.178V461.805H274.575V472.322L278.921 466.485H284.347L278.381 473.685L284.398 480.833H278.947ZM299.599 473.428C299.599 473.839 299.574 474.268 299.522 474.713H289.571C289.639 475.605 289.922 476.291 290.419 476.771C290.934 477.233 291.559 477.465 292.296 477.465C293.394 477.465 294.156 477.002 294.585 476.076H299.265C299.025 477.019 298.588 477.868 297.954 478.622C297.336 479.376 296.556 479.968 295.614 480.396C294.671 480.825 293.616 481.039 292.451 481.039C291.045 481.039 289.794 480.739 288.696 480.139C287.599 479.539 286.742 478.682 286.125 477.568C285.508 476.453 285.199 475.151 285.199 473.659C285.199 472.168 285.499 470.865 286.099 469.751C286.716 468.636 287.574 467.779 288.671 467.179C289.768 466.579 291.028 466.279 292.451 466.279C293.839 466.279 295.074 466.571 296.154 467.153C297.234 467.736 298.074 468.568 298.674 469.648C299.291 470.728 299.599 471.988 299.599 473.428ZM295.099 472.271C295.099 471.516 294.842 470.916 294.328 470.471C293.814 470.025 293.171 469.802 292.399 469.802C291.662 469.802 291.036 470.016 290.522 470.445C290.025 470.873 289.716 471.482 289.596 472.271H295.099ZM304.105 464.993C303.333 464.993 302.699 464.771 302.202 464.325C301.722 463.862 301.482 463.296 301.482 462.628C301.482 461.942 301.722 461.376 302.202 460.931C302.699 460.468 303.333 460.236 304.105 460.236C304.859 460.236 305.476 460.468 305.956 460.931C306.453 461.376 306.702 461.942 306.702 462.628C306.702 463.296 306.453 463.862 305.956 464.325C305.476 464.771 304.859 464.993 304.105 464.993ZM306.316 482.685C306.316 484.451 305.87 485.719 304.979 486.491C304.088 487.279 302.845 487.673 301.25 487.673H299.528V483.945H300.582C301.062 483.945 301.405 483.851 301.61 483.662C301.816 483.473 301.919 483.165 301.919 482.736V466.485H306.316V482.685ZM308.603 473.633C308.603 472.159 308.878 470.865 309.426 469.751C309.992 468.636 310.755 467.779 311.715 467.179C312.675 466.579 313.746 466.279 314.929 466.279C315.941 466.279 316.823 466.485 317.578 466.896C318.349 467.308 318.941 467.848 319.352 468.516V466.485H323.749V480.833H319.352V478.802C318.923 479.471 318.323 480.011 317.552 480.422C316.798 480.833 315.915 481.039 314.903 481.039C313.738 481.039 312.675 480.739 311.715 480.139C310.755 479.522 309.992 478.656 309.426 477.542C308.878 476.411 308.603 475.108 308.603 473.633ZM319.352 473.659C319.352 472.562 319.043 471.696 318.426 471.062C317.826 470.428 317.089 470.111 316.215 470.111C315.341 470.111 314.595 470.428 313.978 471.062C313.378 471.679 313.078 472.536 313.078 473.633C313.078 474.731 313.378 475.605 313.978 476.256C314.595 476.891 315.341 477.208 316.215 477.208C317.089 477.208 317.826 476.891 318.426 476.256C319.043 475.622 319.352 474.756 319.352 473.659Z" fill="#121212"/>
</g>
<g clip-path="url(#clip15_801_56132)">
<path opacity="0.8" d="M291.126 289.18C289.806 289.18 288.623 288.966 287.577 288.537C286.531 288.109 285.691 287.474 285.057 286.634C284.44 285.794 284.114 284.783 284.08 283.6H288.76C288.829 284.269 289.06 284.783 289.454 285.143C289.849 285.486 290.363 285.657 290.997 285.657C291.649 285.657 292.163 285.511 292.54 285.22C292.917 284.911 293.106 284.491 293.106 283.96C293.106 283.514 292.951 283.146 292.643 282.854C292.351 282.563 291.983 282.323 291.537 282.134C291.109 281.946 290.491 281.731 289.686 281.491C288.52 281.131 287.569 280.771 286.831 280.411C286.094 280.051 285.46 279.52 284.929 278.817C284.397 278.114 284.131 277.197 284.131 276.066C284.131 274.386 284.74 273.074 285.957 272.131C287.174 271.171 288.76 270.691 290.714 270.691C292.703 270.691 294.306 271.171 295.523 272.131C296.74 273.074 297.391 274.394 297.477 276.091H292.72C292.686 275.509 292.471 275.054 292.077 274.729C291.683 274.386 291.177 274.214 290.56 274.214C290.029 274.214 289.6 274.36 289.274 274.651C288.949 274.926 288.786 275.329 288.786 275.86C288.786 276.443 289.06 276.897 289.609 277.223C290.157 277.549 291.014 277.9 292.18 278.277C293.346 278.671 294.289 279.049 295.009 279.409C295.746 279.769 296.38 280.291 296.911 280.977C297.443 281.663 297.709 282.546 297.709 283.626C297.709 284.654 297.443 285.589 296.911 286.429C296.397 287.269 295.643 287.937 294.649 288.434C293.654 288.931 292.48 289.18 291.126 289.18ZM314.583 274.651V289H310.186V287.046C309.74 287.68 309.132 288.194 308.36 288.589C307.606 288.966 306.766 289.154 305.84 289.154C304.743 289.154 303.775 288.914 302.935 288.434C302.095 287.937 301.443 287.226 300.98 286.3C300.517 285.374 300.286 284.286 300.286 283.034V274.651H304.657V282.443C304.657 283.403 304.906 284.149 305.403 284.68C305.9 285.211 306.569 285.477 307.409 285.477C308.266 285.477 308.943 285.211 309.44 284.68C309.937 284.149 310.186 283.403 310.186 282.443V274.651H314.583ZM322.139 277.043C322.653 276.254 323.296 275.637 324.067 275.191C324.839 274.729 325.696 274.497 326.639 274.497V279.151H325.43C324.333 279.151 323.51 279.391 322.962 279.871C322.413 280.334 322.139 281.157 322.139 282.34V289H317.742V274.651H322.139V277.043ZM342.909 274.651V289H338.512V287.046C338.066 287.68 337.458 288.194 336.686 288.589C335.932 288.966 335.092 289.154 334.166 289.154C333.069 289.154 332.1 288.914 331.26 288.434C330.42 287.937 329.769 287.226 329.306 286.3C328.843 285.374 328.612 284.286 328.612 283.034V274.651H332.983V282.443C332.983 283.403 333.232 284.149 333.729 284.68C334.226 285.211 334.895 285.477 335.735 285.477C336.592 285.477 337.269 285.211 337.766 284.68C338.263 284.149 338.512 283.403 338.512 282.443V274.651H342.909ZM350.465 269.971V289H346.067V269.971H350.465ZM367.177 281.594C367.177 282.006 367.151 282.434 367.1 282.88H357.148C357.217 283.771 357.5 284.457 357.997 284.937C358.511 285.4 359.137 285.631 359.874 285.631C360.971 285.631 361.734 285.169 362.163 284.243H366.843C366.603 285.186 366.165 286.034 365.531 286.789C364.914 287.543 364.134 288.134 363.191 288.563C362.248 288.991 361.194 289.206 360.028 289.206C358.623 289.206 357.371 288.906 356.274 288.306C355.177 287.706 354.32 286.849 353.703 285.734C353.085 284.62 352.777 283.317 352.777 281.826C352.777 280.334 353.077 279.031 353.677 277.917C354.294 276.803 355.151 275.946 356.248 275.346C357.345 274.746 358.605 274.446 360.028 274.446C361.417 274.446 362.651 274.737 363.731 275.32C364.811 275.903 365.651 276.734 366.251 277.814C366.868 278.894 367.177 280.154 367.177 281.594ZM362.677 280.437C362.677 279.683 362.42 279.083 361.905 278.637C361.391 278.191 360.748 277.969 359.977 277.969C359.24 277.969 358.614 278.183 358.1 278.611C357.603 279.04 357.294 279.649 357.174 280.437H362.677ZM373.894 277.043C374.408 276.254 375.051 275.637 375.822 275.191C376.594 274.729 377.451 274.497 378.394 274.497V279.151H377.185C376.088 279.151 375.265 279.391 374.717 279.871C374.168 280.334 373.894 281.157 373.894 282.34V289H369.497V274.651H373.894V277.043ZM394.021 281.594C394.021 282.006 393.996 282.434 393.944 282.88H383.993C384.061 283.771 384.344 284.457 384.841 284.937C385.356 285.4 385.981 285.631 386.718 285.631C387.816 285.631 388.578 285.169 389.007 284.243H393.687C393.447 285.186 393.01 286.034 392.376 286.789C391.758 287.543 390.978 288.134 390.036 288.563C389.093 288.991 388.038 289.206 386.873 289.206C385.467 289.206 384.216 288.906 383.118 288.306C382.021 287.706 381.164 286.849 380.547 285.734C379.93 284.62 379.621 283.317 379.621 281.826C379.621 280.334 379.921 279.031 380.521 277.917C381.138 276.803 381.996 275.946 383.093 275.346C384.19 274.746 385.45 274.446 386.873 274.446C388.261 274.446 389.496 274.737 390.576 275.32C391.656 275.903 392.496 276.734 393.096 277.814C393.713 278.894 394.021 280.154 394.021 281.594ZM389.521 280.437C389.521 279.683 389.264 279.083 388.75 278.637C388.236 278.191 387.593 277.969 386.821 277.969C386.084 277.969 385.458 278.183 384.944 278.611C384.447 279.04 384.138 279.649 384.018 280.437H389.521Z" fill="#121212"/>
</g>
<g clip-path="url(#clip16_801_56132)">
<path opacity="0.8" d="M22.0371 382.949V401H17.64V390.174L13.6029 401H10.0543L5.99143 390.149V401H1.59429V382.949H6.78857L11.8543 395.446L16.8686 382.949H22.0371ZM39.3678 386.651V401H34.9706V399.046C34.5249 399.68 33.9163 400.194 33.1449 400.589C32.3906 400.966 31.5506 401.154 30.6249 401.154C29.5278 401.154 28.5592 400.914 27.7192 400.434C26.8792 399.937 26.2278 399.226 25.7649 398.3C25.3021 397.374 25.0706 396.286 25.0706 395.034V386.651H29.4421V394.443C29.4421 395.403 29.6906 396.149 30.1878 396.68C30.6849 397.211 31.3535 397.477 32.1935 397.477C33.0506 397.477 33.7278 397.211 34.2249 396.68C34.7221 396.149 34.9706 395.403 34.9706 394.443V386.651H39.3678ZM48.3633 401.206C47.1119 401.206 45.9976 400.991 45.0205 400.563C44.0433 400.134 43.2719 399.551 42.7062 398.814C42.1405 398.06 41.8233 397.22 41.7548 396.294H46.1005C46.1519 396.791 46.3833 397.194 46.7948 397.503C47.2062 397.811 47.7119 397.966 48.3119 397.966C48.8605 397.966 49.2805 397.863 49.5719 397.657C49.8805 397.434 50.0348 397.151 50.0348 396.809C50.0348 396.397 49.8205 396.097 49.3919 395.909C48.9633 395.703 48.2691 395.48 47.3091 395.24C46.2805 395 45.4233 394.751 44.7376 394.494C44.0519 394.22 43.4605 393.8 42.9633 393.234C42.4662 392.651 42.2176 391.871 42.2176 390.894C42.2176 390.071 42.4405 389.326 42.8862 388.657C43.3491 387.971 44.0176 387.431 44.8919 387.037C45.7833 386.643 46.8376 386.446 48.0548 386.446C49.8548 386.446 51.2691 386.891 52.2976 387.783C53.3433 388.674 53.9433 389.857 54.0976 391.331H50.0348C49.9662 390.834 49.7433 390.44 49.3662 390.149C49.0062 389.857 48.5262 389.711 47.9262 389.711C47.4119 389.711 47.0176 389.814 46.7433 390.02C46.4691 390.209 46.3319 390.474 46.3319 390.817C46.3319 391.229 46.5462 391.537 46.9748 391.743C47.4205 391.949 48.1062 392.154 49.0319 392.36C50.0948 392.634 50.9605 392.909 51.6291 393.183C52.2976 393.44 52.8805 393.869 53.3776 394.469C53.8919 395.051 54.1576 395.84 54.1748 396.834C54.1748 397.674 53.9348 398.429 53.4548 399.097C52.9919 399.749 52.3148 400.263 51.4233 400.64C50.5491 401.017 49.5291 401.206 48.3633 401.206ZM65.6849 386.497C67.3306 386.497 68.6506 387.046 69.6449 388.143C70.6392 389.223 71.1364 390.714 71.1364 392.617V401H66.7649V393.209C66.7649 392.249 66.5164 391.503 66.0192 390.971C65.5221 390.44 64.8535 390.174 64.0135 390.174C63.1735 390.174 62.5049 390.44 62.0078 390.971C61.5106 391.503 61.2621 392.249 61.2621 393.209V401H56.8649V381.971H61.2621V388.58C61.7078 387.946 62.3164 387.44 63.0878 387.063C63.8592 386.686 64.7249 386.497 65.6849 386.497ZM76.4034 385.16C75.6319 385.16 74.9977 384.937 74.5005 384.491C74.0205 384.029 73.7805 383.463 73.7805 382.794C73.7805 382.109 74.0205 381.543 74.5005 381.097C74.9977 380.634 75.6319 380.403 76.4034 380.403C77.1577 380.403 77.7748 380.634 78.2548 381.097C78.7519 381.543 79.0005 382.109 79.0005 382.794C79.0005 383.463 78.7519 384.029 78.2548 384.491C77.7748 384.937 77.1577 385.16 76.4034 385.16ZM78.5891 386.651V401H74.1919V386.651H78.5891ZM90.5185 386.497C92.1985 386.497 93.5356 387.046 94.5299 388.143C95.5414 389.223 96.0471 390.714 96.0471 392.617V401H91.6756V393.209C91.6756 392.249 91.4271 391.503 90.9299 390.971C90.4328 390.44 89.7642 390.174 88.9242 390.174C88.0842 390.174 87.4156 390.44 86.9185 390.971C86.4214 391.503 86.1728 392.249 86.1728 393.209V401H81.7756V386.651H86.1728V388.554C86.6185 387.92 87.2185 387.423 87.9728 387.063C88.7271 386.686 89.5756 386.497 90.5185 386.497Z" fill="#121212"/>
</g>
<g opacity="0.8" clip-path="url(#clip17_801_56132)">
<path d="M909.831 504.811H903.094L902.014 508H897.411L903.943 489.949H909.034L915.566 508H910.911L909.831 504.811ZM908.7 501.417L906.463 494.809L904.251 501.417H908.7ZM921.951 488.971V508H917.554V488.971H921.951ZM927.349 492.16C926.577 492.16 925.943 491.937 925.446 491.491C924.966 491.029 924.726 490.463 924.726 489.794C924.726 489.109 924.966 488.543 925.446 488.097C925.943 487.634 926.577 487.403 927.349 487.403C928.103 487.403 928.72 487.634 929.2 488.097C929.697 488.543 929.946 489.109 929.946 489.794C929.946 490.463 929.697 491.029 929.2 491.491C928.72 491.937 928.103 492.16 927.349 492.16ZM929.534 493.651V508H925.137V493.651H929.534ZM951.03 493.497C952.812 493.497 954.227 494.037 955.272 495.117C956.335 496.197 956.867 497.697 956.867 499.617V508H952.495V500.209C952.495 499.283 952.247 498.571 951.75 498.074C951.27 497.56 950.601 497.303 949.744 497.303C948.887 497.303 948.21 497.56 947.712 498.074C947.232 498.571 946.992 499.283 946.992 500.209V508H942.621V500.209C942.621 499.283 942.372 498.571 941.875 498.074C941.395 497.56 940.727 497.303 939.87 497.303C939.012 497.303 938.335 497.56 937.838 498.074C937.358 498.571 937.118 499.283 937.118 500.209V508H932.721V493.651H937.118V495.451C937.564 494.851 938.147 494.38 938.867 494.037C939.587 493.677 940.401 493.497 941.31 493.497C942.39 493.497 943.35 493.729 944.19 494.191C945.047 494.654 945.715 495.314 946.195 496.171C946.692 495.383 947.37 494.74 948.227 494.243C949.084 493.746 950.018 493.497 951.03 493.497ZM966.473 508.206C965.068 508.206 963.799 507.906 962.668 507.306C961.553 506.706 960.671 505.849 960.019 504.734C959.385 503.62 959.068 502.317 959.068 500.826C959.068 499.351 959.393 498.057 960.045 496.943C960.696 495.811 961.588 494.946 962.719 494.346C963.851 493.746 965.119 493.446 966.525 493.446C967.931 493.446 969.199 493.746 970.331 494.346C971.462 494.946 972.353 495.811 973.005 496.943C973.656 498.057 973.982 499.351 973.982 500.826C973.982 502.3 973.648 503.603 972.979 504.734C972.328 505.849 971.428 506.706 970.279 507.306C969.148 507.906 967.879 508.206 966.473 508.206ZM966.473 504.4C967.313 504.4 968.025 504.091 968.608 503.474C969.208 502.857 969.508 501.974 969.508 500.826C969.508 499.677 969.216 498.794 968.633 498.177C968.068 497.56 967.365 497.251 966.525 497.251C965.668 497.251 964.956 497.56 964.391 498.177C963.825 498.777 963.542 499.66 963.542 500.826C963.542 501.974 963.816 502.857 964.365 503.474C964.931 504.091 965.633 504.4 966.473 504.4ZM982.152 508.206C980.9 508.206 979.786 507.991 978.809 507.563C977.832 507.134 977.06 506.551 976.495 505.814C975.929 505.06 975.612 504.22 975.543 503.294H979.889C979.94 503.791 980.172 504.194 980.583 504.503C980.995 504.811 981.5 504.966 982.1 504.966C982.649 504.966 983.069 504.863 983.36 504.657C983.669 504.434 983.823 504.151 983.823 503.809C983.823 503.397 983.609 503.097 983.18 502.909C982.752 502.703 982.058 502.48 981.098 502.24C980.069 502 979.212 501.751 978.526 501.494C977.84 501.22 977.249 500.8 976.752 500.234C976.255 499.651 976.006 498.871 976.006 497.894C976.006 497.071 976.229 496.326 976.675 495.657C977.138 494.971 977.806 494.431 978.68 494.037C979.572 493.643 980.626 493.446 981.843 493.446C983.643 493.446 985.058 493.891 986.086 494.783C987.132 495.674 987.732 496.857 987.886 498.331H983.823C983.755 497.834 983.532 497.44 983.155 497.149C982.795 496.857 982.315 496.711 981.715 496.711C981.2 496.711 980.806 496.814 980.532 497.02C980.258 497.209 980.12 497.474 980.12 497.817C980.12 498.229 980.335 498.537 980.763 498.743C981.209 498.949 981.895 499.154 982.82 499.36C983.883 499.634 984.749 499.909 985.418 500.183C986.086 500.44 986.669 500.869 987.166 501.469C987.68 502.051 987.946 502.84 987.963 503.834C987.963 504.674 987.723 505.429 987.243 506.097C986.78 506.749 986.103 507.263 985.212 507.64C984.338 508.017 983.318 508.206 982.152 508.206ZM999.473 493.497C1001.12 493.497 1002.44 494.046 1003.43 495.143C1004.43 496.223 1004.92 497.714 1004.92 499.617V508H1000.55V500.209C1000.55 499.249 1000.3 498.503 999.808 497.971C999.311 497.44 998.642 497.174 997.802 497.174C996.962 497.174 996.293 497.44 995.796 497.971C995.299 498.503 995.051 499.249 995.051 500.209V508H990.653V488.971H995.051V495.58C995.496 494.946 996.105 494.44 996.876 494.063C997.648 493.686 998.513 493.497 999.473 493.497ZM1014.51 508.206C1013.11 508.206 1011.84 507.906 1010.71 507.306C1009.59 506.706 1008.71 505.849 1008.06 504.734C1007.42 503.62 1007.11 502.317 1007.11 500.826C1007.11 499.351 1007.43 498.057 1008.08 496.943C1008.73 495.811 1009.63 494.946 1010.76 494.346C1011.89 493.746 1013.16 493.446 1014.56 493.446C1015.97 493.446 1017.24 493.746 1018.37 494.346C1019.5 494.946 1020.39 495.811 1021.04 496.943C1021.69 498.057 1022.02 499.351 1022.02 500.826C1022.02 502.3 1021.69 503.603 1021.02 504.734C1020.37 505.849 1019.47 506.706 1018.32 507.306C1017.19 507.906 1015.92 508.206 1014.51 508.206ZM1014.51 504.4C1015.35 504.4 1016.06 504.091 1016.65 503.474C1017.25 502.857 1017.55 501.974 1017.55 500.826C1017.55 499.677 1017.25 498.794 1016.67 498.177C1016.11 497.56 1015.4 497.251 1014.56 497.251C1013.71 497.251 1012.99 497.56 1012.43 498.177C1011.86 498.777 1011.58 499.66 1011.58 500.826C1011.58 501.974 1011.85 502.857 1012.4 503.474C1012.97 504.091 1013.67 504.4 1014.51 504.4Z" fill="#121212"/>
</g>
<g clip-path="url(#clip18_801_56132)">
<path opacity="0.8" d="M641.06 440L634.991 432.029V440H630.594V421.949H634.991V429.869L641.009 421.949H646.177L639.183 430.794L646.434 440H641.06ZM662.05 432.594C662.05 433.006 662.024 433.434 661.973 433.88H652.021C652.09 434.771 652.373 435.457 652.87 435.937C653.384 436.4 654.01 436.631 654.747 436.631C655.844 436.631 656.607 436.169 657.035 435.243H661.715C661.475 436.186 661.038 437.034 660.404 437.789C659.787 438.543 659.007 439.134 658.064 439.563C657.121 439.991 656.067 440.206 654.901 440.206C653.495 440.206 652.244 439.906 651.147 439.306C650.05 438.706 649.193 437.849 648.575 436.734C647.958 435.62 647.65 434.317 647.65 432.826C647.65 431.334 647.95 430.031 648.55 428.917C649.167 427.803 650.024 426.946 651.121 426.346C652.218 425.746 653.478 425.446 654.901 425.446C656.29 425.446 657.524 425.737 658.604 426.32C659.684 426.903 660.524 427.734 661.124 428.814C661.741 429.894 662.05 431.154 662.05 432.594ZM657.55 431.437C657.55 430.683 657.293 430.083 656.778 429.637C656.264 429.191 655.621 428.969 654.85 428.969C654.113 428.969 653.487 429.183 652.973 429.611C652.475 430.04 652.167 430.649 652.047 431.437H657.55ZM672.367 436.271V440H670.129C668.535 440 667.292 439.614 666.401 438.843C665.509 438.054 665.064 436.777 665.064 435.011V429.303H663.315V425.651H665.064V422.154H669.461V425.651H672.341V429.303H669.461V435.063C669.461 435.491 669.564 435.8 669.769 435.989C669.975 436.177 670.318 436.271 670.798 436.271H672.367ZM688.984 425.651V440H684.587V438.046C684.142 438.68 683.533 439.194 682.762 439.589C682.007 439.966 681.167 440.154 680.242 440.154C679.144 440.154 678.176 439.914 677.336 439.434C676.496 438.937 675.844 438.226 675.382 437.3C674.919 436.374 674.687 435.286 674.687 434.034V425.651H679.059V433.443C679.059 434.403 679.307 435.149 679.804 435.68C680.302 436.211 680.97 436.477 681.81 436.477C682.667 436.477 683.344 436.211 683.842 435.68C684.339 435.149 684.587 434.403 684.587 433.443V425.651H688.984Z" fill="#121212"/>
</g>
<g clip-path="url(#clip19_801_56132)">
<path opacity="0.8" d="M889.131 312.18C887.434 312.18 885.874 311.786 884.451 310.997C883.046 310.209 881.923 309.111 881.083 307.706C880.26 306.283 879.849 304.689 879.849 302.923C879.849 301.157 880.26 299.571 881.083 298.166C881.923 296.76 883.046 295.663 884.451 294.874C885.874 294.086 887.434 293.691 889.131 293.691C890.829 293.691 892.38 294.086 893.786 294.874C895.209 295.663 896.323 296.76 897.129 298.166C897.951 299.571 898.363 301.157 898.363 302.923C898.363 304.689 897.951 306.283 897.129 307.706C896.306 309.111 895.191 310.209 893.786 310.997C892.38 311.786 890.829 312.18 889.131 312.18ZM889.131 308.169C890.571 308.169 891.72 307.689 892.577 306.729C893.451 305.769 893.889 304.5 893.889 302.923C893.889 301.329 893.451 300.06 892.577 299.117C891.72 298.157 890.571 297.677 889.131 297.677C887.674 297.677 886.509 298.149 885.634 299.091C884.777 300.034 884.349 301.311 884.349 302.923C884.349 304.517 884.777 305.794 885.634 306.754C886.509 307.697 887.674 308.169 889.131 308.169ZM906.646 312.206C905.395 312.206 904.281 311.991 903.303 311.563C902.326 311.134 901.555 310.551 900.989 309.814C900.423 309.06 900.106 308.22 900.038 307.294H904.383C904.435 307.791 904.666 308.194 905.078 308.503C905.489 308.811 905.995 308.966 906.595 308.966C907.143 308.966 907.563 308.863 907.855 308.657C908.163 308.434 908.318 308.151 908.318 307.809C908.318 307.397 908.103 307.097 907.675 306.909C907.246 306.703 906.552 306.48 905.592 306.24C904.563 306 903.706 305.751 903.021 305.494C902.335 305.22 901.743 304.8 901.246 304.234C900.749 303.651 900.501 302.871 900.501 301.894C900.501 301.071 900.723 300.326 901.169 299.657C901.632 298.971 902.301 298.431 903.175 298.037C904.066 297.643 905.121 297.446 906.338 297.446C908.138 297.446 909.552 297.891 910.581 298.783C911.626 299.674 912.226 300.857 912.381 302.331H908.318C908.249 301.834 908.026 301.44 907.649 301.149C907.289 300.857 906.809 300.711 906.209 300.711C905.695 300.711 905.301 300.814 905.026 301.02C904.752 301.209 904.615 301.474 904.615 301.817C904.615 302.229 904.829 302.537 905.258 302.743C905.703 302.949 906.389 303.154 907.315 303.36C908.378 303.634 909.243 303.909 909.912 304.183C910.581 304.44 911.163 304.869 911.661 305.469C912.175 306.051 912.441 306.84 912.458 307.834C912.458 308.674 912.218 309.429 911.738 310.097C911.275 310.749 910.598 311.263 909.706 311.64C908.832 312.017 907.812 312.206 906.646 312.206ZM921.679 312.206C920.274 312.206 919.005 311.906 917.874 311.306C916.759 310.706 915.876 309.849 915.225 308.734C914.591 307.62 914.274 306.317 914.274 304.826C914.274 303.351 914.599 302.057 915.251 300.943C915.902 299.811 916.794 298.946 917.925 298.346C919.056 297.746 920.325 297.446 921.731 297.446C923.136 297.446 924.405 297.746 925.536 298.346C926.668 298.946 927.559 299.811 928.211 300.943C928.862 302.057 929.188 303.351 929.188 304.826C929.188 306.3 928.854 307.603 928.185 308.734C927.534 309.849 926.634 310.706 925.485 311.306C924.354 311.906 923.085 312.206 921.679 312.206ZM921.679 308.4C922.519 308.4 923.231 308.091 923.814 307.474C924.414 306.857 924.714 305.974 924.714 304.826C924.714 303.677 924.422 302.794 923.839 302.177C923.274 301.56 922.571 301.251 921.731 301.251C920.874 301.251 920.162 301.56 919.596 302.177C919.031 302.777 918.748 303.66 918.748 304.826C918.748 305.974 919.022 306.857 919.571 307.474C920.136 308.091 920.839 308.4 921.679 308.4ZM930.646 304.8C930.646 303.326 930.921 302.031 931.469 300.917C932.035 299.803 932.798 298.946 933.758 298.346C934.718 297.746 935.789 297.446 936.972 297.446C937.915 297.446 938.772 297.643 939.543 298.037C940.332 298.431 940.949 298.963 941.395 299.631V292.971H945.792V312H941.395V309.943C940.983 310.629 940.392 311.177 939.621 311.589C938.866 312 937.983 312.206 936.972 312.206C935.789 312.206 934.718 311.906 933.758 311.306C932.798 310.689 932.035 309.823 931.469 308.709C930.921 307.577 930.646 306.274 930.646 304.8ZM941.395 304.826C941.395 303.729 941.086 302.863 940.469 302.229C939.869 301.594 939.132 301.277 938.258 301.277C937.383 301.277 936.638 301.594 936.021 302.229C935.421 302.846 935.121 303.703 935.121 304.8C935.121 305.897 935.421 306.771 936.021 307.423C936.638 308.057 937.383 308.374 938.258 308.374C939.132 308.374 939.869 308.057 940.469 307.423C941.086 306.789 941.395 305.923 941.395 304.826ZM951.185 296.16C950.413 296.16 949.779 295.937 949.282 295.491C948.802 295.029 948.562 294.463 948.562 293.794C948.562 293.109 948.802 292.543 949.282 292.097C949.779 291.634 950.413 291.403 951.185 291.403C951.939 291.403 952.556 291.634 953.036 292.097C953.533 292.543 953.782 293.109 953.782 293.794C953.782 294.463 953.533 295.029 953.036 295.491C952.556 295.937 951.939 296.16 951.185 296.16ZM953.37 297.651V312H948.973V297.651H953.37Z" fill="#121212"/>
</g>
<g clip-path="url(#clip20_801_56132)">
<path opacity="0.5" d="M810.946 94.4282L802.914 105.694L800.169 103.737L803.476 99.0995L799.207 96.0558L795.9 100.694L793.156 98.7371L801.189 87.4711L803.933 89.4278L800.786 93.8411L805.055 96.8848L808.202 92.4715L810.946 94.4282ZM816.632 108.504C816.449 108.76 816.242 109.016 816.011 109.272L809.801 104.843C809.447 105.43 809.318 105.984 809.415 106.505C809.53 107.023 809.817 107.445 810.277 107.773C810.962 108.262 811.644 108.312 812.324 107.925L815.244 110.008C814.675 110.489 814.025 110.825 813.293 111.013C812.572 111.209 811.822 111.231 811.043 111.079C810.264 110.927 809.511 110.592 808.783 110.073C807.906 109.447 807.258 108.703 806.841 107.841C806.423 106.978 806.269 106.061 806.38 105.091C806.491 104.121 806.878 103.171 807.542 102.24C808.205 101.309 808.972 100.63 809.843 100.201C810.724 99.7805 811.64 99.627 812.592 99.7407C813.543 99.8545 814.463 100.228 815.351 100.861C816.218 101.479 816.858 102.21 817.273 103.054C817.688 103.899 817.842 104.792 817.736 105.733C817.641 106.681 817.272 107.605 816.632 108.504ZM814.338 105.779C814.674 105.308 814.78 104.819 814.658 104.312C814.535 103.805 814.233 103.38 813.751 103.037C813.291 102.709 812.806 102.564 812.294 102.603C811.793 102.649 811.33 102.891 810.904 103.33L814.338 105.779ZM822.849 108.652C823.521 108.389 824.197 108.29 824.876 108.355C825.564 108.409 826.202 108.646 826.79 109.066L824.719 111.97L823.965 111.433C823.28 110.944 822.66 110.728 822.104 110.783C821.555 110.828 821.018 111.22 820.492 111.958L817.528 116.114L814.784 114.158L821.169 105.203L823.913 107.159L822.849 108.652ZM829.874 113.322C830.428 113.087 831.037 113.014 831.702 113.1C832.366 113.187 833.009 113.451 833.629 113.894C834.368 114.42 834.903 115.084 835.235 115.886C835.567 116.687 835.656 117.558 835.503 118.497C835.36 119.445 834.961 120.378 834.305 121.298C833.649 122.218 832.892 122.906 832.036 123.36C831.198 123.811 830.342 124.016 829.468 123.974C828.602 123.921 827.8 123.632 827.061 123.105C826.43 122.655 825.967 122.139 825.672 121.558C825.384 120.965 825.255 120.365 825.285 119.757L824.393 121.009L821.648 119.052L830.116 107.176L832.86 109.133L829.874 113.322ZM831.512 119.307C832.001 118.623 832.189 117.95 832.079 117.291C831.987 116.628 831.662 116.098 831.106 115.701C830.56 115.312 829.954 115.178 829.286 115.3C828.63 115.428 828.057 115.835 827.569 116.52C827.081 117.205 826.883 117.878 826.975 118.541C827.078 119.212 827.402 119.742 827.948 120.131C828.494 120.52 829.1 120.654 829.767 120.532C830.442 120.4 831.024 119.992 831.512 119.307ZM844.277 128.215C844.094 128.472 843.888 128.728 843.657 128.983L837.446 124.555C837.093 125.142 836.964 125.696 837.061 126.217C837.176 126.734 837.463 127.157 837.923 127.485C838.608 127.973 839.29 128.024 839.969 127.637L842.89 129.719C842.321 130.201 841.67 130.536 840.939 130.725C840.218 130.921 839.468 130.943 838.689 130.791C837.91 130.639 837.157 130.303 836.429 129.785C835.552 129.159 834.904 128.415 834.486 127.552C834.069 126.69 833.915 125.773 834.026 124.803C834.137 123.833 834.524 122.883 835.187 121.952C835.851 121.021 836.618 120.341 837.488 119.913C838.369 119.492 839.286 119.339 840.237 119.452C841.189 119.566 842.109 119.94 842.997 120.573C843.864 121.191 844.504 121.922 844.919 122.766C845.334 123.611 845.488 124.503 845.382 125.444C845.286 126.393 844.918 127.317 844.277 128.215ZM841.984 125.491C842.32 125.02 842.426 124.531 842.303 124.024C842.181 123.517 841.879 123.092 841.397 122.749C840.937 122.42 840.451 122.276 839.94 122.314C839.439 122.361 838.975 122.603 838.55 123.042L841.984 125.491ZM850.495 128.364C851.167 128.1 851.843 128.001 852.522 128.066C853.21 128.121 853.848 128.358 854.436 128.777L852.365 131.682L851.611 131.144C850.926 130.656 850.306 130.44 849.75 130.495C849.201 130.54 848.664 130.931 848.138 131.67L845.174 135.826L842.43 133.869L848.815 124.914L851.559 126.871L850.495 128.364ZM855.944 139.995L854.285 142.323L852.889 141.327C851.894 140.618 851.29 139.824 851.077 138.946C850.871 138.057 851.162 137.061 851.947 135.959L854.488 132.397L853.396 131.619L855.021 129.34L856.112 130.118L857.669 127.935L860.413 129.892L858.857 132.074L860.654 133.356L859.029 135.635L857.232 134.353L854.669 137.948C854.478 138.216 854.405 138.454 854.449 138.663C854.494 138.872 854.666 139.084 854.965 139.297L855.944 139.995ZM880.006 143.668L871.973 154.934L869.229 152.977L874.046 146.221L866.709 151.181L864.495 149.602L866.788 141.022L861.959 147.794L859.215 145.837L867.247 134.571L870.489 136.883L868.09 146.936L876.78 141.368L880.006 143.668ZM876.605 151.459C877.261 150.539 878.008 149.853 878.846 149.401C879.695 148.958 880.553 148.762 881.419 148.815C882.285 148.868 883.087 149.157 883.825 149.684C884.457 150.134 884.916 150.655 885.204 151.247C885.502 151.847 885.631 152.448 885.59 153.048L886.494 151.78L889.238 153.737L882.853 162.692L880.109 160.735L881.013 159.467C880.448 159.694 879.833 159.764 879.169 159.677C878.515 159.599 877.873 159.334 877.241 158.884C876.514 158.365 875.984 157.705 875.652 156.903C875.327 156.091 875.236 155.211 875.379 154.264C875.54 153.314 875.949 152.379 876.605 151.459ZM883.302 156.258C883.79 155.573 883.983 154.895 883.88 154.225C883.787 153.562 883.469 153.036 882.923 152.647C882.377 152.258 881.771 152.124 881.103 152.245C880.454 152.363 879.886 152.765 879.397 153.45C878.909 154.134 878.707 154.814 878.792 155.487C878.895 156.158 879.219 156.687 879.765 157.076C880.31 157.465 880.912 157.596 881.568 157.467C882.236 157.345 882.813 156.942 883.302 156.258ZM887.486 159.241C888.149 158.31 888.916 157.63 889.787 157.202C890.668 156.781 891.579 156.624 892.52 156.73C893.471 156.844 894.386 157.213 895.263 157.839C896.387 158.64 897.113 159.602 897.442 160.724C897.782 161.854 897.689 163.038 897.161 164.276L894.24 162.193C894.483 161.333 894.251 160.651 893.544 160.148C893.042 159.789 892.499 159.701 891.917 159.883C891.343 160.055 890.797 160.504 890.278 161.232C889.759 161.959 889.509 162.628 889.526 163.237C889.551 163.836 889.815 164.315 890.318 164.673C891.024 165.177 891.744 165.174 892.478 164.665L895.399 166.747C894.416 167.628 893.331 168.097 892.144 168.154C890.958 168.212 889.808 167.844 888.695 167.051C887.818 166.425 887.17 165.681 886.753 164.818C886.346 163.963 886.197 163.051 886.308 162.081C886.429 161.118 886.822 160.172 887.486 159.241ZM897.214 166.153C897.87 165.233 898.617 164.547 899.455 164.096C900.304 163.652 901.162 163.457 902.028 163.509C902.894 163.562 903.696 163.852 904.434 164.378C905.066 164.828 905.525 165.349 905.813 165.942C906.111 166.542 906.24 167.142 906.199 167.742L907.103 166.475L909.847 168.431L903.462 177.386L900.718 175.43L901.622 174.162C901.057 174.388 900.442 174.458 899.778 174.372C899.124 174.293 898.482 174.028 897.85 173.578C897.123 173.06 896.593 172.399 896.261 171.598C895.936 170.785 895.845 169.906 895.988 168.959C896.149 168.008 896.558 167.073 897.214 166.153ZM903.911 170.952C904.399 170.267 904.592 169.59 904.489 168.919C904.396 168.256 904.078 167.73 903.532 167.341C902.986 166.952 902.38 166.818 901.712 166.94C901.063 167.058 900.495 167.459 900.006 168.144C899.518 168.829 899.316 169.508 899.401 170.181C899.504 170.852 899.828 171.382 900.374 171.771C900.919 172.16 901.521 172.29 902.177 172.161C902.845 172.04 903.422 171.637 903.911 170.952ZM920.675 176.152L914.291 185.107L911.546 183.15L912.416 181.93C911.855 182.128 911.247 182.178 910.59 182.081C909.951 181.981 909.343 181.724 908.765 181.313C908.081 180.824 907.583 180.244 907.272 179.57C906.969 178.886 906.879 178.152 907.002 177.368C907.125 176.585 907.465 175.802 908.022 175.021L911.753 169.79L914.481 171.735L911.014 176.598C910.587 177.197 910.41 177.773 910.484 178.326C910.557 178.878 910.856 179.342 911.381 179.716C911.916 180.097 912.456 180.232 913.003 180.122C913.55 180.012 914.037 179.657 914.464 179.058L917.931 174.195L920.675 176.152ZM927.474 176.593L919.006 188.469L916.262 186.512L924.729 174.636L927.474 176.593ZM932.732 191.284C932.549 191.541 932.342 191.797 932.111 192.052L925.901 187.624C925.547 188.21 925.418 188.764 925.515 189.285C925.63 189.803 925.917 190.226 926.377 190.554C927.062 191.042 927.744 191.092 928.424 190.705L931.344 192.788C930.775 193.27 930.125 193.605 929.393 193.793C928.672 193.989 927.922 194.011 927.143 193.859C926.364 193.707 925.611 193.372 924.883 192.853C924.006 192.227 923.358 191.483 922.941 190.621C922.523 189.758 922.369 188.842 922.48 187.872C922.591 186.902 922.978 185.951 923.642 185.02C924.305 184.09 925.072 183.41 925.943 182.981C926.824 182.561 927.74 182.407 928.692 182.521C929.643 182.635 930.563 183.008 931.451 183.641C932.318 184.259 932.958 184.99 933.373 185.835C933.788 186.679 933.942 187.572 933.836 188.513C933.741 189.461 933.372 190.385 932.732 191.284ZM930.438 188.559C930.774 188.088 930.88 187.599 930.758 187.092C930.635 186.585 930.333 186.16 929.852 185.817C929.391 185.489 928.906 185.344 928.394 185.383C927.893 185.429 927.43 185.672 927.004 186.11L930.438 188.559ZM946.416 194.505L931.382 203.708L928.429 201.603L933.733 198.51L936.258 187.262L939.323 189.448L937.4 196.525L943.448 192.388L946.416 194.505Z" fill="#121212"/>
</g>
<defs>
<clipPath id="clip0_801_56132">
<rect width="56" height="56" fill="white" transform="translate(904 425)"/>
</clipPath>
<clipPath id="clip1_801_56132">
<rect width="56" height="56" fill="white" transform="translate(476 170)"/>
</clipPath>
<clipPath id="clip2_801_56132">
<rect width="56" height="56" fill="white" transform="translate(314 208)"/>
</clipPath>
<clipPath id="clip3_801_56132">
<rect width="56" height="56" fill="white" transform="translate(10 321)"/>
</clipPath>
<clipPath id="clip4_801_56132">
<rect width="56" height="56" fill="white" transform="translate(960 107)"/>
</clipPath>
<clipPath id="clip5_801_56132">
<rect width="56" height="56" fill="white" transform="translate(927 329)"/>
</clipPath>
<clipPath id="clip6_801_56132">
<rect width="56" height="56" fill="white" transform="translate(266 405)"/>
</clipPath>
<clipPath id="clip7_801_56132">
<rect width="56" height="56" fill="white" transform="translate(80 63)"/>
</clipPath>
<clipPath id="clip8_801_56132">
<rect width="56" height="56" fill="white" transform="translate(313)"/>
</clipPath>
<clipPath id="clip9_801_56132">
<rect width="70" height="18" fill="white" transform="translate(485 249)"/>
</clipPath>
<clipPath id="clip10_801_56132">
<rect width="92.5777" height="40.6669" fill="white" transform="translate(571 299.272)"/>
</clipPath>
<clipPath id="clip11_801_56132">
<rect width="121" height="32" fill="white" transform="translate(606 170)"/>
</clipPath>
<clipPath id="clip12_801_56132">
<rect width="192" height="18" fill="white" transform="translate(18 121)"/>
</clipPath>
<clipPath id="clip13_801_56132">
<rect width="68" height="27" fill="white" transform="translate(312 63)"/>
</clipPath>
<clipPath id="clip14_801_56132">
<rect width="65" height="30" fill="white" transform="translate(261 457)"/>
</clipPath>
<clipPath id="clip15_801_56132">
<rect width="112" height="18" fill="white" transform="translate(283 271)"/>
</clipPath>
<clipPath id="clip16_801_56132">
<rect width="98" height="18" fill="white" transform="translate(0 383)"/>
</clipPath>
<clipPath id="clip17_801_56132">
<rect width="126" height="18" fill="white" transform="translate(897 490)"/>
</clipPath>
<clipPath id="clip18_801_56132">
<rect width="62" height="18" fill="white" transform="translate(629 422)"/>
</clipPath>
<clipPath id="clip19_801_56132">
<rect width="76" height="18" fill="white" transform="translate(879 294)"/>
</clipPath>
<clipPath id="clip20_801_56132">
<rect width="158.639" height="120.316" fill="white" transform="translate(791 85)"/>
</clipPath>
</defs>
</svg>
