<svg width="1184" height="563" viewBox="0 0 1184 563" fill="none" xmlns="http://www.w3.org/2000/svg">
<g clip-path="url(#clip0_319_56180)">
<rect width="1185" height="622" transform="translate(0 -20)" fill="#121212" fill-opacity="0.25"/>
<path d="M1185 15.2047V567.954C1185 581.21 1166.7 592.663 1140.15 598.216C1129.11 600.559 1116.68 601.841 1103.48 601.841H714.204C714.048 601.941 713.892 601.97 713.736 602L711.492 601.841H81.5238C36.5141 601.841 0.0119629 586.694 0.0119629 567.954V15.2047C0.0119629 13.4413 0.323947 11.6729 1.01991 9.97381C2.18385 6.76393 4.41574 3.68283 7.49958 0.829596V0.799877C9.88746 -1.34995 12.7433 -3.371 15.9952 -5.2682C17.0751 -5.91216 18.239 -6.52144 19.463 -7.13073C21.0829 -8.02732 22.9428 -8.86446 24.9467 -9.63226C25.8707 -10.0186 26.8786 -10.4347 27.8746 -10.8211C30.8864 -11.9456 34.1262 -13.0007 37.5221 -13.9666C39.7659 -14.6106 42.0818 -15.1852 44.5417 -15.7301C48.0935 -16.5622 51.8733 -17.2706 55.8091 -17.8502C64.9287 -19.2272 74.8042 -20 85.0757 -20H1099.94C1112.13 -20 1123.71 -18.9399 1134.21 -17.013C1135.67 -16.7257 1137.13 -16.4335 1138.61 -16.1164C1145.25 -14.7344 1151.43 -12.9709 1156.91 -10.9202C1157.99 -10.5041 1159.07 -10.088 1160.08 -9.66693C1162.24 -8.83474 1164.17 -7.9332 1165.94 -6.97221C1167.11 -6.36293 1168.26 -5.75365 1169.27 -5.14436C1171.36 -3.92579 1173.28 -2.64283 1175.05 -1.29547C1176.76 0.0518913 1178.29 1.46365 1179.61 2.8754C1181.62 5.02524 1183.01 7.26919 1183.93 9.61716C1184.16 10.2264 1184.4 10.8704 1184.54 11.5094C1184.86 12.7329 1185 13.9515 1185 15.2047Z" fill="#ACADBC" fill-opacity="0.2"/>
<path d="M948.336 309.41L821.25 331.839C817.039 332.582 812.179 331.765 810.391 330.017L804.151 323.904C802.363 322.155 804.331 320.129 808.543 319.386L935.629 296.957C939.84 296.214 944.7 297.031 946.488 298.78L952.728 304.892C954.516 306.646 952.548 308.667 948.336 309.41Z" fill="#ACADBC" fill-opacity="0.2"/>
<path d="M1010.73 320.738L883.647 343.168C879.436 343.911 874.576 343.094 872.788 341.345L866.548 335.232C864.76 333.484 866.728 331.458 870.94 330.715L998.026 308.285C1002.24 307.542 1007.1 308.36 1008.89 310.108L1015.12 316.221C1016.9 317.974 1014.94 319.995 1010.73 320.738Z" fill="#ACADBC" fill-opacity="0.2"/>
<path d="M1072.65 332.86L945.564 355.289C941.352 356.032 936.493 355.215 934.705 353.467L928.465 347.354C926.677 345.605 928.645 343.579 932.857 342.836L1059.94 320.407C1064.15 319.664 1069.01 320.481 1070.8 322.23L1077.04 328.342C1078.83 330.096 1076.86 332.117 1072.65 332.86Z" fill="#ACADBC" fill-opacity="0.2"/>
<path d="M183.135 38.0454L46.8216 47.1451C42.3099 47.4472 38.0501 46.1692 37.3301 44.2918L34.7982 37.7334C34.0783 35.856 37.1501 34.0876 41.6619 33.7854L177.975 24.6858C182.487 24.3836 186.747 25.6616 187.467 27.539L189.998 34.0975C190.73 35.9798 187.646 37.7433 183.135 38.0454Z" fill="#ACADBC" fill-opacity="0.2"/>
<path d="M203.054 13.4016L66.7406 22.5013C62.2288 22.8034 57.969 21.5254 57.2491 19.6481L54.7172 13.0896C53.9972 11.2122 57.0691 9.44378 61.5808 9.14161L197.894 0.0419751C202.406 -0.26019 206.665 1.01782 207.385 2.89521L209.917 9.45368C210.649 11.336 207.577 13.0995 203.054 13.4016Z" fill="#ACADBC" fill-opacity="0.2"/>
<path d="M661.155 485.914L565.771 482.234C561.872 482.085 559.004 480.648 559.364 479.024L561.056 471.425C561.416 469.805 564.871 468.611 568.771 468.76L664.154 472.44C668.054 472.589 670.922 474.026 670.562 475.65L668.87 483.249C668.51 484.874 665.054 486.068 661.155 485.914Z" fill="#ACADBC" fill-opacity="0.2"/>
<path d="M285.694 477.434L195.674 463.821C191.99 463.266 190.094 461.572 191.438 460.042L197.714 452.869C199.058 451.338 203.126 450.551 206.81 451.105L296.829 464.718C300.513 465.273 302.409 466.967 301.065 468.497L294.789 475.67C293.445 477.201 289.377 477.988 285.694 477.434Z" fill="#ACADBC" fill-opacity="0.2"/>
<path d="M1157.43 516.235L1085.82 513.47C1082.41 513.337 1079.9 512.079 1080.21 510.657L1082.07 502.33C1082.38 500.908 1085.42 499.863 1088.84 499.997L1160.44 502.761C1163.86 502.895 1166.36 504.153 1166.05 505.575L1164.19 513.901C1163.87 515.323 1160.85 516.368 1157.43 516.235Z" fill="#ACADBC" fill-opacity="0.2"/>
<path d="M706.692 305.135L640.504 316.815C637.348 317.375 633.7 316.761 632.356 315.448L624.496 307.75C623.152 306.438 624.628 304.922 627.784 304.362L693.973 292.682C697.129 292.122 700.777 292.736 702.12 294.049L709.98 301.747C711.324 303.064 709.848 304.58 706.692 305.135Z" fill="#ACADBC" fill-opacity="0.2"/>
<path d="M547.46 333.964L519.37 306.448C518.026 305.135 519.502 303.619 522.658 303.059L541.173 299.79C544.328 299.23 547.976 299.845 549.32 301.157L577.411 328.674C578.755 329.987 577.279 331.502 574.123 332.062L555.608 335.332C552.452 335.891 548.804 335.277 547.46 333.964Z" fill="#ACADBC" fill-opacity="0.2"/>
<path d="M101.695 358.262L60.177 333.856C58.1971 332.691 58.8571 331.077 61.6649 330.254L78.0921 325.425C80.8999 324.602 84.7757 324.88 86.7556 326.044L128.274 350.45C130.253 351.614 129.593 353.229 126.786 354.051L110.358 358.881C107.551 359.703 103.675 359.431 101.695 358.262Z" fill="#ACADBC" fill-opacity="0.2"/>
<path d="M588.474 104.457L526.209 89.5127C523.234 88.7994 522.214 87.2192 523.929 85.9808L533.985 78.7387C535.701 77.5053 539.505 77.0793 542.481 77.7926L604.745 92.7374C607.721 93.4507 608.741 95.0309 607.025 96.2693L596.97 103.511C595.254 104.75 591.45 105.171 588.474 104.457Z" fill="#ACADBC" fill-opacity="0.2"/>
<path d="M499.343 86.3919L437.078 71.4471C434.102 70.7338 433.082 69.1536 434.798 67.9152L444.854 60.6732C446.569 59.4398 450.373 59.0137 453.349 59.7271L515.614 74.6719C518.59 75.3852 519.61 76.9653 517.894 78.2037L507.838 85.4458C506.122 86.6842 502.319 87.1052 499.343 86.3919Z" fill="#ACADBC" fill-opacity="0.2"/>
<path d="M317.924 27.6679L290.457 0.0420132C289.149 -1.27563 290.649 -2.78645 293.829 -3.33134L312.416 -6.52637C315.584 -7.07126 319.22 -6.44216 320.54 -5.12452L348.006 22.5013C349.314 23.819 347.814 25.3298 344.635 25.8747L326.047 29.0697C322.868 29.6146 319.232 28.9904 317.924 27.6679Z" fill="#ACADBC" fill-opacity="0.2"/>
<path d="M407.211 24.7551L379.745 -2.8707C378.437 -4.18834 379.937 -5.69917 383.117 -6.24406L401.704 -9.43909C404.871 -9.98398 408.507 -9.35488 409.827 -8.03724L437.294 19.5886C438.602 20.9062 437.102 22.4171 433.922 22.962L415.335 26.157C412.167 26.7019 408.531 26.0728 407.211 24.7551Z" fill="#ACADBC" fill-opacity="0.2"/>
<path d="M51.1534 361.293L9.63549 336.887C7.65559 335.723 8.31555 334.108 11.1234 333.286L27.5506 328.456C30.3584 327.634 34.2342 327.911 36.2141 329.075L77.732 353.481C79.7119 354.645 79.052 356.26 76.2441 357.083L59.8169 361.912C57.0211 362.735 53.1453 362.457 51.1534 361.293Z" fill="#ACADBC" fill-opacity="0.2"/>
<path d="M154.96 325.34L127.866 298.804C126.246 297.219 128.022 295.391 131.837 294.718L160.3 289.695C164.116 289.021 168.507 289.759 170.127 291.344L197.222 317.88C198.842 319.465 197.066 321.293 193.25 321.967L164.788 326.99C160.984 327.664 156.58 326.925 154.96 325.34Z" fill="#ACADBC" fill-opacity="0.2"/>
<path d="M261.587 95.2587L221.557 71.7245C219.169 70.3177 219.973 68.3759 223.345 67.3802L248.591 59.9599C251.975 58.9642 256.655 59.301 259.043 60.7029L299.073 84.2371C301.461 85.6439 300.657 87.5857 297.285 88.5814L272.038 96.0017C268.654 96.9974 263.975 96.6655 261.587 95.2587Z" fill="#ACADBC" fill-opacity="0.2"/>
<path d="M128.382 494.335L101.287 467.799C99.667 466.214 101.443 464.386 105.259 463.712L133.721 458.689C137.537 458.016 141.929 458.754 143.549 460.339L170.643 486.875C172.263 488.46 170.487 490.288 166.672 490.962L138.209 495.985C134.405 496.658 130.001 495.92 128.382 494.335Z" fill="#ACADBC" fill-opacity="0.2"/>
<path d="M768.357 267.226L665.882 285.311C661.922 286.009 657.351 285.242 655.659 283.597L649.035 277.108C647.355 275.458 649.203 273.561 653.163 272.858L755.638 254.772C759.597 254.074 764.169 254.842 765.861 256.486L772.485 262.975C774.165 264.625 772.317 266.527 768.357 267.226Z" fill="#ACADBC" fill-opacity="0.2"/>
<path d="M421.299 107.682L330.403 134.402C326.888 135.437 322.028 135.09 319.544 133.629L309.752 127.873C307.269 126.412 308.096 124.39 311.612 123.355L402.508 96.6358C406.024 95.6006 410.883 95.9473 413.367 97.4086L423.159 103.165C425.655 104.626 424.815 106.647 421.299 107.682Z" fill="#ACADBC" fill-opacity="0.2"/>
<path d="M874.84 534.092L779.457 530.411C775.557 530.263 772.689 528.826 773.049 527.202L774.741 519.603C775.101 517.983 778.557 516.789 782.456 516.938L877.84 520.618C881.739 520.767 884.607 522.203 884.247 523.828L882.555 531.427C882.195 533.052 878.74 534.241 874.84 534.092Z" fill="#ACADBC" fill-opacity="0.2"/>
<path d="M882.867 513.738L787.484 510.057C783.584 509.909 780.716 508.472 781.076 506.848L782.768 499.249C783.128 497.629 786.584 496.435 790.484 496.584L885.867 500.264C889.767 500.413 892.635 501.849 892.275 503.474L890.583 511.073C890.223 512.693 886.767 513.887 882.867 513.738Z" fill="#ACADBC" fill-opacity="0.2"/>
<path d="M607.253 532.968L584.178 494.315C583.23 492.735 585.546 491.135 589.35 490.744L607.169 488.906C610.973 488.515 614.825 489.476 615.761 491.056L638.836 529.708C639.784 531.288 637.468 532.888 633.664 533.28L615.845 535.117C612.041 535.514 608.201 534.548 607.253 532.968Z" fill="#ACADBC" fill-opacity="0.2"/>
<path d="M238.068 99.7714C238.068 99.7714 276.862 104.527 285.154 116.856C293.445 129.19 259.103 138.751 251.351 142.813C243.6 146.875 156.652 143.224 156.652 143.224C156.652 143.224 70.8445 126.53 69.3325 116.856C67.8206 107.182 -0.875904 105.656 79.94 93.951C160.756 82.2458 122.37 76.1381 160.756 82.2458C199.154 88.3535 238.068 99.7714 238.068 99.7714Z" fill="#60D394"/>
<path d="M1027.92 63.2293C1027.92 63.2293 1066.71 67.9846 1075 80.314C1083.29 92.6433 1048.95 102.209 1041.2 106.27C1033.45 110.332 946.5 106.682 946.5 106.682C946.5 106.682 860.692 89.9882 859.181 80.314C857.669 70.6397 788.972 69.114 869.788 57.4089C950.604 45.7037 912.218 39.596 950.604 45.7037C988.99 51.8163 1027.92 63.2293 1027.92 63.2293Z" fill="#FFD97D"/>
<path d="M325.724 277.311C325.724 277.311 318.968 285.346 297.813 287.728C276.658 290.116 258.647 283.82 251.267 282.512C243.888 281.204 246.827 263.614 246.827 263.614C246.827 263.614 272.53 245.48 289.317 244.608C306.104 243.731 306.069 229.916 329.623 245.371C353.19 260.826 362.31 252.796 353.19 260.826C344.071 268.86 325.724 277.311 325.724 277.311Z" fill="#FFD97D"/>
<path d="M0 182.684C65.1087 172.931 216.805 159.596 251.735 169.295C286.665 178.989 420.651 178.409 420.651 178.409L543.308 147.578C543.308 147.578 727.379 166.56 725.675 127.328C723.971 88.0914 779.924 26.2812 851.069 11.7377C922.213 -2.80589 927.793 -19.9897 927.793 -19.9897H865.876C865.876 -19.9897 832.602 7.28941 801.607 9.71664C770.613 12.1389 680.09 46.4025 688.417 64.8247C696.757 83.2469 688.417 115.519 688.417 115.519L610.853 126.006L510.166 119.353C510.166 119.353 465.768 143.234 459.781 147.578C453.793 151.923 400.72 160.349 369.113 155.965C337.507 151.576 243.9 151.923 243.9 151.923C243.9 151.923 140.093 169.31 121.662 159.051C103.219 148.797 51.8254 153.537 51.8254 153.537L0 159.051V182.684Z" fill="#FFD97D"/>
<path d="M1185 298.671V333.553C1178.12 336.184 1167.94 339.616 1156.6 341.642C1147.95 343.247 1138.61 343.951 1129.73 342.861C1125.95 342.41 1121.7 342.638 1117.14 343.441C1103.18 345.848 1086.5 353.387 1072.29 360.897C1064.49 365.038 1057.47 369.209 1052.14 372.483C1045.89 376.367 1042.03 378.997 1042.03 378.997C1042.03 378.997 967.463 402.551 935.809 406.885C924.229 408.461 912.878 412.151 903.158 416.386C900.914 417.382 898.755 418.378 896.751 419.403C894.507 420.493 892.431 421.617 890.499 422.707C880.623 428.389 874.516 433.842 875.212 436.121C876.676 441.094 875.44 471.291 875.44 471.291L874.996 471.39L861.952 474.248L847.049 477.488L785.144 491.001L738.131 518.662C738.131 518.662 751.258 527.935 768.849 538.208C777.957 543.633 788.456 549.344 798.728 554.124H798.8C802.891 556.016 806.983 557.78 810.991 559.32C829.518 566.379 830.442 585.059 823.878 601.841H768.381C766.377 594.139 762.669 586.119 757.57 578.094C754.714 573.443 751.318 568.821 747.61 564.264C744.598 560.638 741.358 557.042 737.963 553.545C732.791 548.249 727.079 543.112 721.055 538.268C711.864 530.852 701.761 524.116 691.261 518.469C658.143 500.725 701.293 483.135 744.214 471.326C748.462 470.137 752.71 469.047 756.946 467.987C761.038 466.962 765.045 465.966 768.993 465.07C790.916 459.938 808.279 456.916 808.279 456.916L862.24 401.684C862.24 401.684 862.396 401.654 862.624 401.555C862.78 401.526 862.936 401.461 863.164 401.397C864.328 401.01 866.788 400.272 870.184 399.247C872.272 398.573 874.744 397.835 877.6 396.968C886.011 394.467 897.279 391.158 909.866 387.631C943.752 378.259 987.286 367.51 1010.76 366.995C1032.75 366.514 1071.43 352.936 1108.79 336.669C1117.83 332.756 1126.78 328.644 1135.42 324.538C1154.59 315.423 1172.04 306.244 1185 298.671Z" fill="#FFD97D"/>
<path d="M396.316 593.242C395.704 595.872 394.612 598.409 393.232 600.88C393.004 601.202 392.848 601.524 392.62 601.841H111.786C111.714 601.841 111.714 601.812 111.714 601.812C107.623 599.627 103.843 597.477 100.363 595.328C90.7154 589.23 84.3078 583.325 83.8398 578.253C81.6799 555.209 -17.4351 551.583 99.127 523.695C102.211 522.956 105.151 522.218 108.007 521.51C113.79 520.034 119.118 518.622 124.062 517.24C207.59 493.651 164.896 482.422 215.773 495.801C230.52 499.65 245.256 504.435 259.079 509.31C263.783 511.009 268.414 512.742 272.902 514.441C304.161 526.315 327.319 537.55 327.319 537.55C327.319 537.55 383.285 548.844 395.248 578.243C397.396 583.454 397.552 588.457 396.316 593.242Z" fill="#60D394"/>
<path d="M882.063 150.436C791.024 177.542 648.675 178.042 725.687 217.18C802.687 256.318 899.547 299.8 969.191 273.819C1038.84 247.837 1022.95 251.136 1060.04 214.337C1097.14 177.537 1133.41 147.177 1014.62 137.542C895.827 127.912 882.063 150.436 882.063 150.436Z" fill="#60D394"/>
<path d="M631.96 385.516C574.027 397.924 483.432 398.152 532.437 416.069C581.443 433.986 643.083 453.889 687.397 441.996C731.711 430.103 721.607 431.613 745.21 414.766C768.813 397.919 791.912 384.02 716.316 379.611C640.72 375.208 631.96 385.516 631.96 385.516Z" fill="#60D394"/>
<path d="M370.781 532.7C398.044 550.463 394.648 577.054 439.802 563.784C484.956 550.513 535.437 533.656 508.81 519.92C482.184 506.184 485.375 509.245 445.957 501.275C406.539 493.31 374.177 485.676 360.294 507.586C346.411 529.49 370.781 532.7 370.781 532.7Z" fill="#FFD97D"/>
<path d="M1184.99 364.701V398.381L1136.01 358.713L1127.51 351.817L1021.36 265.888L1004.47 252.227L931.285 192.973L922.837 186.122L837.63 117.129L829.134 110.254L763.005 56.691L754.402 49.7313L672.626 -16.4776C671.222 -17.5971 670.55 -18.8058 670.61 -19.9897H709.896L789.5 44.4756L797.996 51.3511L904.298 137.429L912.794 144.304L1037.76 245.485L1054.65 259.147L1184.99 364.701Z" fill="white"/>
<path d="M1184.99 215.62V232.704L1054.64 259.141L1021.36 265.883L771.765 316.543L755.074 319.906L569.635 357.528L553.052 360.892L533.205 364.919L390.16 393.942L352.326 401.61L206.222 431.257L184.251 435.715L148.696 442.912C148.276 442.997 147.821 443.086 147.353 443.17L75.4162 457.778L58.725 461.161L8.08759 471.44C5.49572 471.98 2.69986 472.217 0 472.217V455.97L118.794 431.881L153.052 424.941L344.971 386.006C345.439 385.897 345.906 385.813 346.374 385.729L498.287 354.918L531.669 348.132L614.537 331.324L631.12 327.961L875.38 278.425L891.963 275.042L1004.48 252.226L1037.76 245.48L1184.99 215.62Z" fill="white"/>
<path d="M587.214 601.841H550.244C554.492 558.067 538.977 522.704 514.81 494.528C511.882 491.061 508.786 487.727 505.546 484.517C454.981 433.233 377.021 408.461 352.314 401.625C347.61 400.307 344.827 399.633 344.515 399.569C335.635 397.548 332.323 392.862 337.255 389.171C339.343 387.567 342.655 386.412 346.362 385.739C351.306 384.872 357.174 384.936 362.346 386.09C363.426 386.348 374.081 388.82 390.136 393.952C417.003 402.521 459.145 418.536 497.747 444.111C498.599 444.691 499.451 445.265 500.375 445.845C505.774 449.535 511.258 453.513 516.658 457.753C543.909 479.093 569.155 507.462 580.879 543.697C582.499 548.64 583.89 553.743 584.97 559.003C587.682 572.318 588.69 586.565 587.214 601.841Z" fill="white"/>
<path d="M1184.99 91.1275V99.1225L1141.5 106.34L912.794 144.304L894.711 147.301C893.619 147.494 892.431 147.583 891.291 147.583C887.607 147.583 884.139 146.676 882.735 145.171C880.815 143.189 883.155 140.97 887.871 140.172L904.298 137.438L1125.14 100.787L1142.39 97.9188L1181.57 91.4099C1182.71 91.2117 1183.85 91.1275 1184.99 91.1275Z" fill="white"/>
<path d="M1142.59 106.122C1142.23 106.206 1141.87 106.271 1141.5 106.335C1140.41 106.509 1139.33 106.593 1138.19 106.593C1134.93 106.593 1131.76 105.86 1130.05 104.567L1125.14 100.777L1012.35 14.1401L1003.49 7.32904L970.319 -18.1569C969.539 -18.7364 969.179 -19.3606 969.179 -19.9897H988.978L1020.64 4.35692L1029.51 11.1631L1142.39 97.9093L1146.33 100.926C1148.76 102.784 1147.11 105.107 1142.59 106.122Z" fill="white"/>
<path d="M534.237 497.644C533.025 497.644 531.789 497.545 530.601 497.337L169.155 433.015C164.464 432.178 162.292 429.924 164.296 427.968C166.3 426.021 171.723 425.114 176.427 425.947L537.873 490.268C542.565 491.105 544.736 493.359 542.733 495.316C541.245 496.772 537.825 497.644 534.237 497.644Z" fill="white"/>
<path d="M360.81 466.863L360.426 467.056L272.89 514.456L173.547 568.306L161.344 574.919L111.702 601.812L111.63 601.841H88.3156L100.363 595.328L147.449 569.812L160.96 562.461L259.079 509.319L342.907 463.94L346.147 462.206C349.23 460.507 355.026 460.185 359.034 461.468C363.126 462.791 363.894 465.193 360.81 466.863Z" fill="white"/>
<path d="M695.281 468.373C691.969 468.373 688.765 467.63 687.097 466.328L544.557 354.209C542.169 352.337 543.897 350.009 548.408 349.018C552.92 348.023 558.512 348.741 560.9 350.618L703.44 462.736C705.828 464.609 704.1 466.937 699.589 467.928C698.209 468.23 696.733 468.373 695.281 468.373Z" fill="white"/>
<path d="M940.08 456.173C936.817 456.173 933.649 455.45 931.969 454.177L746.422 313.323C743.974 311.461 745.618 309.127 750.094 308.107C754.57 307.087 760.186 307.77 762.633 309.633L948.18 450.486C950.628 452.344 948.984 454.682 944.508 455.702C943.104 456.019 941.592 456.173 940.08 456.173Z" fill="white"/>
<path d="M869.164 402.343C865.48 402.343 862.012 401.422 860.572 399.916C858.689 397.944 861.016 395.71 865.756 394.928L1145.62 348.845C1150.36 348.067 1155.73 349.028 1157.62 351.005C1159.5 352.976 1157.17 355.21 1152.43 355.993L872.572 402.075C871.456 402.254 870.304 402.343 869.164 402.343Z" fill="white"/>
<path d="M1184.99 489.907V497.644C1184.52 497.644 1184.16 497.644 1183.69 497.599L1064.85 490.511V490.491L1046.46 489.391L907.814 481.119L889.419 480.019L694.033 468.339L516.682 457.758V457.738L486.575 455.95C482.952 455.737 479.94 454.613 478.956 453.127C478.02 451.621 479.316 450.045 482.268 449.099L497.759 444.121L612.197 407.405L618.365 405.424C622.409 404.131 628.216 404.453 631.324 406.137C631.636 406.311 631.948 406.504 632.152 406.697C634.228 408.312 633.292 410.358 629.668 411.522L620.957 414.321L510.874 449.634L678.59 459.655L701.293 461.013L892.023 472.411L910.478 473.51L1049.12 481.783L1067.47 482.882L1184.99 489.907Z" fill="white"/>
<path d="M1156.91 -10.9202L1029.54 11.1627L1012.32 14.1447L797.96 51.3408L780.201 54.4219C779.973 54.4516 779.733 54.4862 779.505 54.516C778.581 54.6745 773.409 55.3482 765.225 56.4082C764.529 56.5023 763.761 56.6014 762.981 56.6955C746.074 58.8454 718.368 62.1494 688.417 64.8144C663.482 67.0583 637.012 68.8911 614.081 69.2131C611.537 69.2428 609.065 69.2775 606.593 69.2775C601.35 69.2775 596.25 69.1834 591.546 68.9902C590.382 68.9258 589.158 68.8317 588.078 68.7673C560.132 66.5233 536.817 51.5339 518.986 34.4938C516.514 32.0864 514.126 29.6492 511.81 27.1774C492.515 6.54102 481.164 -14.8285 478.848 -19.1975C478.692 -19.4551 478.62 -19.7424 478.62 -20H497.375C504.862 -5.6199 517.522 12.6685 532.881 28.2672C533.193 28.4901 533.421 28.718 533.577 28.9756C551.252 46.4962 572.251 60.4553 593.406 61.3221C619.193 62.4119 656.163 59.9401 689.977 56.7995C715.296 54.4268 738.767 51.6627 754.438 49.7408C764.937 48.4231 771.885 47.4968 773.433 47.269L776.673 46.7241L789.488 44.4801L1003.52 7.34349L1020.66 4.36147L1138.61 -16.1115C1145.25 -14.7344 1151.43 -12.9709 1156.91 -10.9202Z" fill="white"/>
<path d="M631.144 340.354C627.796 340.354 624.556 339.597 622.924 338.269C517.546 253.093 516.022 195.434 618.293 161.983C644.679 153.354 658.839 142.867 660.387 130.815C664.334 100.059 586.83 68.2273 586.038 67.9054C582.391 66.4243 582.319 63.9921 585.882 62.4713C589.446 60.9556 595.302 60.9209 598.95 62.402C602.394 63.7989 683.221 96.9479 678.854 131.197C677.03 145.562 660.495 157.951 629.728 168.016C535.521 198.827 538.677 253.366 639.364 334.747C641.704 336.634 639.916 338.948 635.368 339.924C634 340.216 632.56 340.354 631.144 340.354Z" fill="white"/>
<path d="M557.636 258.582C554.036 258.582 550.616 257.705 549.128 256.244C547.136 254.287 549.32 252.033 554.024 251.206L940.536 182.996C945.24 182.163 950.664 183.08 952.656 185.032C954.648 186.988 952.464 189.242 947.76 190.069L561.248 258.279C560.072 258.488 558.848 258.582 557.636 258.582Z" fill="white"/>
<path d="M854.069 114.221L837.642 117.129L670.442 146.647L666.914 147.271C665.726 147.464 664.526 147.573 663.29 147.573C661.635 147.573 659.979 147.38 658.467 147.014L651.627 145.29L488.471 104.071L471.468 99.7867L277.222 50.7021L274.27 49.969C272.41 49.5182 271.006 48.7851 270.334 47.9232L266.806 43.6136L215.605 -18.7414C215.245 -19.1525 215.089 -19.5835 215.089 -19.9897H234.06L285.262 42.3852L286.713 44.1288L305.325 48.8248L492.887 96.2053L657.903 137.874L664.022 139.425L677.186 137.097L829.146 110.249L846.869 107.123C851.537 106.306 856.973 107.207 859 109.169C860.968 111.12 858.785 113.384 854.069 114.221Z" fill="white"/>
<path d="M644.379 243.602C642.459 241.13 640.072 238.758 637.036 236.543C622.456 225.537 595.122 217.898 563.299 217.061H563.203C561.368 217.031 559.532 216.997 557.612 216.997C556.148 216.997 554.672 216.997 553.208 217.061C550.268 217.096 547.244 217.22 544.4 217.413H544.316C508.726 219.592 479.928 230.346 470.304 244.464V244.494C468.012 247.733 466.908 251.201 466.908 254.733C466.908 257.299 467.46 259.835 468.648 262.242C477.084 279.446 513.778 292.474 557.612 292.474C562.927 292.474 568.339 292.28 573.391 291.894C576.415 291.671 579.355 291.414 582.199 291.062C585.318 290.71 588.342 290.294 591.186 289.779H591.282C624.664 284.196 648.423 270.589 648.423 254.733C648.423 250.854 647.043 247.134 644.379 243.602ZM585.222 282.532H585.126C582.187 283.047 579.163 283.463 576.139 283.785H576.043C573.103 284.107 570.259 284.365 567.235 284.523C564.019 284.716 560.9 284.811 557.6 284.811C517.702 284.811 485.327 271.332 485.327 254.743C485.327 240.239 509.914 228.202 542.841 225.314H542.936C545.876 225.056 548.72 224.898 551.744 224.799C553.676 224.734 555.596 224.704 557.612 224.704C558.992 224.704 560.264 224.704 561.56 224.734H561.656C586.506 225.314 608.069 231.119 619.985 239.56C623.104 241.745 625.576 244.117 627.232 246.619V246.653C628.972 249.219 629.896 251.949 629.896 254.743C629.896 267.255 611.369 278.004 585.222 282.532Z" fill="white"/>
<path d="M940.08 456.178C936.781 456.178 933.661 455.44 932.005 454.187L929.713 452.423C929.713 452.423 929.713 452.423 929.713 452.393L927.781 450.982H927.685C910.166 456.084 897.327 463.593 892.011 472.421L895.683 472.643L910.454 473.51C915.686 465.872 927.973 459.487 944.484 455.697C943.116 456.019 941.556 456.178 940.08 456.178ZM940.08 456.178C936.781 456.178 933.661 455.44 932.005 454.187L929.713 452.423C929.713 452.423 929.713 452.423 929.713 452.393L927.781 450.982H927.685C910.166 456.084 897.327 463.593 892.011 472.421L895.683 472.643L910.454 473.51C915.686 465.872 927.973 459.487 944.484 455.697C943.116 456.019 941.556 456.178 940.08 456.178ZM940.08 456.178C936.781 456.178 933.661 455.44 932.005 454.187L929.713 452.423L927.781 450.977H927.685C910.166 456.079 897.327 463.588 892.011 472.416L895.683 472.638L910.454 473.505C915.686 465.867 927.973 459.482 944.484 455.692C943.116 456.019 941.556 456.178 940.08 456.178ZM978.418 444.398C966.311 444.398 954.576 445.424 944.028 447.286H943.932C941.088 447.801 938.245 448.346 935.677 448.956C934.021 449.342 932.377 449.723 930.817 450.144C929.809 450.402 928.801 450.689 927.793 450.977H927.697C910.178 456.079 897.339 463.588 892.023 472.416C891.747 472.866 891.471 473.312 891.291 473.763C890.919 474.466 890.559 475.204 890.379 475.942C889.827 477.29 889.551 478.637 889.455 480.019C889.275 480.5 889.275 480.951 889.275 481.461C889.275 501.869 929.353 518.528 978.431 518.528C1020.07 518.528 1055.11 506.59 1064.92 490.511V490.481C1066.39 488.044 1067.21 485.508 1067.49 482.877V481.466C1067.48 461.022 1027.58 444.398 978.418 444.398ZM978.418 510.83C939.432 510.83 907.79 497.639 907.79 481.466V481.114C907.97 478.484 908.798 475.918 910.454 473.51C915.686 465.872 927.973 459.487 944.484 455.697H944.58C954.576 453.419 966.131 452.101 978.418 452.101C1017.4 452.101 1049.05 465.292 1049.05 481.466V481.788C1049.05 484.418 1048.13 486.984 1046.48 489.391C1038.13 501.745 1010.8 510.83 978.418 510.83ZM940.08 456.178C936.781 456.178 933.661 455.44 932.005 454.187L929.713 452.423C929.713 452.423 929.713 452.423 929.713 452.393L927.781 450.982H927.685C910.166 456.084 897.327 463.593 892.011 472.421L895.683 472.643L910.454 473.51C915.686 465.872 927.973 459.487 944.484 455.697C943.116 456.019 941.556 456.178 940.08 456.178ZM940.08 456.178C936.781 456.178 933.661 455.44 932.005 454.187L929.713 452.423C929.713 452.423 929.713 452.423 929.713 452.393L927.781 450.982H927.685C910.166 456.084 897.327 463.593 892.011 472.421L895.683 472.643L910.454 473.51C915.686 465.872 927.973 459.487 944.484 455.697C943.116 456.019 941.556 456.178 940.08 456.178Z" fill="white"/>
<path d="M891.303 287.58C887.787 287.58 884.427 286.742 882.879 285.326L802.435 211.637C800.323 209.705 802.387 207.427 807.031 206.55C811.675 205.673 817.159 206.53 819.259 208.462L899.702 282.151C901.814 284.082 899.751 286.361 895.107 287.238C893.871 287.471 892.575 287.58 891.303 287.58Z" fill="white"/>
<path d="M1140.16 598.215C1129.12 600.558 1116.69 601.841 1103.49 601.841H1099.4C1054.78 581.69 990.862 567.761 907.802 560.157C901.778 559.612 895.611 559.097 889.275 558.582C874.612 557.458 859.48 556.497 843.725 555.724C828.594 554.986 813.547 554.441 798.8 554.119H798.728C788.312 553.861 778.041 553.668 767.925 553.604C761.673 553.539 755.422 553.51 749.326 553.51C745.462 553.51 741.682 553.51 737.975 553.539C669.038 553.827 611.609 557.195 584.982 558.993C574.951 559.702 569.239 560.148 568.999 560.182C559.04 561.049 549.236 558.384 547.148 554.213C545.06 550.072 551.468 545.995 561.512 545.133C562.675 545.039 569.467 544.46 580.891 543.692C607.373 541.864 658.551 538.912 721.079 538.268C736.367 538.075 752.422 538.045 768.861 538.203C794.336 538.461 820.962 539.135 847.985 540.447C980.446 546.931 1079.09 566.607 1140.16 598.215Z" fill="white"/>
<path d="M396.316 593.242L472.968 601.841H401.956L393.232 600.881L161.344 574.919L155.404 574.245C152.392 573.894 150.004 572.962 149.068 571.774L147.449 569.817L107.995 521.515L58.677 461.151L52.3533 453.384C50.7334 451.363 53.2773 449.179 58.137 448.505C62.9248 447.797 68.1685 448.891 69.8724 450.912L75.5122 457.778L124.062 517.245L160.96 562.461L164.98 567.34L173.547 568.301L396.316 593.242Z" fill="white"/>
<path d="M757.582 578.094C753.262 582.587 747.238 587.174 738.899 591.637C731.795 595.422 723.539 598.859 714.192 601.841C714.036 601.941 713.88 601.97 713.724 602L711.48 601.841H680.138C681.373 601.554 682.609 601.297 683.845 601.009C684.385 600.881 684.925 600.752 685.465 600.593C685.621 600.593 685.777 600.563 685.849 600.529C701.364 596.873 714.108 592.346 724.139 586.986C738.347 579.442 744.826 571.263 747.61 564.264C749.158 560.158 749.542 556.432 749.314 553.515C749.086 549.344 747.85 546.709 747.85 546.615C746.77 544.559 750.01 542.508 754.954 542.092C759.969 541.641 764.829 542.959 765.921 545.044C766.149 545.396 767.697 548.641 767.925 553.614C768.309 559.801 766.617 568.722 757.582 578.094Z" fill="white"/>
<path d="M907.802 551.524V601.841H889.275V551.524C889.275 549.403 893.439 547.704 898.611 547.704C903.638 547.704 907.802 549.403 907.802 551.524Z" fill="white"/>
<path d="M526.317 33.9836L519.01 34.4789L305.325 48.8293L277.282 50.7017H277.234L161.14 58.5036L140.921 59.8608L44.1097 66.3698L25.7147 67.5982L1.46389 69.2379C0.947916 69.2577 0.527937 69.2824 0.0119629 69.2824V61.5252L31.3664 59.4348L266.818 43.6182L285.274 42.3897L511.81 27.1774L523.365 26.3997C528.393 26.0777 533.157 27.4994 533.937 29.5898C534.765 31.6802 531.345 33.6368 526.317 33.9836Z" fill="white"/>
<path d="M140.285 443.759C132.437 443.759 125.166 441.669 122.67 438.39C122.01 437.518 58.5211 350.787 255.419 317.375C452.305 283.973 540.441 353.883 541.305 354.591C545.924 358.375 542.289 362.997 533.193 364.919C524.086 366.841 512.962 365.33 508.342 361.546C505.414 359.188 434.27 303.619 269.386 331.602C199.922 343.391 160.06 364.032 150.892 392.951C143.909 415.009 157.768 433.565 157.912 433.748C160.996 437.79 155.596 442.11 145.877 443.393C144.017 443.646 142.133 443.759 140.285 443.759Z" fill="white"/>
<path d="M279.082 325.727C276.406 325.727 273.754 325.246 271.93 324.32C268.69 322.68 269.266 320.258 273.214 318.911L463.645 254.01L137.609 57.8646C134.705 56.116 135.761 53.7234 139.961 52.5197C144.161 51.316 149.92 51.7519 152.812 53.4956L483.696 252.558C486.431 254.203 485.675 256.447 481.956 257.715L284.938 324.855C283.222 325.439 281.146 325.727 279.082 325.727Z" fill="white"/>
<path d="M310.664 159.05C307.868 159.05 305.109 158.525 303.285 157.525C300.201 155.83 301.005 153.423 305.073 152.14L482.316 96.3683C486.383 95.0903 492.179 95.4222 495.263 97.1113C498.347 98.8055 497.543 101.213 493.475 102.496L316.232 158.273C314.564 158.798 312.596 159.05 310.664 159.05Z" fill="white"/>
<path d="M137.189 105.631C116.418 105.631 97.807 103.705 81.4878 99.8556C33.4303 88.517 24.0467 64.8193 23.6748 63.8138C22.8828 61.7184 26.3386 59.7519 31.3784 59.4249C36.4181 59.098 41.1339 60.5296 41.9258 62.6249C42.0218 62.8627 50.4934 83.7468 90.7394 93.203C119.97 100.069 159.112 99.4693 207.085 91.4198C211.825 90.6223 217.201 91.5733 219.109 93.5448C221.017 95.5114 218.737 97.7553 213.997 98.5479C185.871 103.269 160.204 105.631 137.189 105.631Z" fill="white"/>
<path d="M253.175 123.098L247.055 123.702L159.004 132.232L140.921 134L94.6872 138.483L76.5441 140.227L2.07589 147.469C1.35593 147.553 0.731963 147.578 0 147.578V139.776L80.6479 131.955C80.8519 131.935 81.0079 131.935 81.1639 131.91L235.764 116.916L248.975 115.623C252.863 115.236 256.751 115.945 258.827 117.282C259.403 117.649 259.811 118.06 260.075 118.491C261.215 120.556 258.155 122.627 253.175 123.098Z" fill="white"/>
<path d="M321.452 229.103C302.985 229.103 288.129 219.216 273.694 209.606C261.419 201.438 246.132 191.283 235.032 192.497C194.45 196.975 151.996 147.9 139.949 132.757C138.353 130.741 140.981 128.571 145.817 127.902C150.652 127.244 155.884 128.333 157.492 130.345C181.935 161.081 215.977 186.617 230.292 185.071C254.591 182.396 272.266 194.161 289.365 205.534C300.297 212.811 315.284 222.787 323.804 221.158C354.786 215.273 394.084 205.351 394.48 205.247C398.836 204.147 404.523 204.722 407.175 206.53C409.827 208.343 408.447 210.706 404.092 211.81C402.448 212.226 363.474 222.069 331.483 228.147C328.015 228.801 324.68 229.103 321.452 229.103Z" fill="white"/>
<path d="M141.857 380.904L118.122 382.608L1.55992 390.945C1.04395 390.989 0.527973 391.009 0 391.009V383.272L123.246 374.44L138.737 373.32C143.717 372.973 148.528 374.375 149.416 376.466C150.244 378.556 146.885 380.538 141.857 380.904Z" fill="white"/>
<path d="M170.571 358.643C168.915 359.119 167.104 359.351 165.232 359.351C162.328 359.351 159.484 358.792 157.66 357.717L148.277 352.223L54.0093 296.763C53.6493 296.59 53.3373 296.417 53.0733 296.224L0 265.026V254.51C2.90385 254.51 5.69971 255.089 7.51162 256.149L57.6331 285.603L71.0004 293.469L159.832 345.699L172.731 353.303C175.695 355.027 174.711 357.414 170.571 358.643Z" fill="white"/>
<path d="M242.496 332.112C238.656 332.112 235.08 331.116 233.76 329.526L73.8563 136.968C72.1883 134.961 74.7562 132.772 79.58 132.083C84.4157 131.39 89.6715 132.455 91.3274 134.461L251.231 327.015C252.899 329.021 250.331 331.21 245.508 331.899C244.512 332.043 243.492 332.112 242.496 332.112Z" fill="white"/>
<path d="M61.089 298.121C60.597 298.121 60.105 298.106 59.613 298.071C54.5853 297.734 51.1535 295.778 51.9454 293.682C52.2334 292.939 59.2891 275.344 95.5872 265.457C120.846 258.577 153.412 257.224 192.398 261.435C197.342 261.965 200.306 264.065 199.022 266.121C197.738 268.177 192.686 269.41 187.755 268.875C154.12 265.249 126.558 266.245 105.871 271.847C76.4242 279.817 70.2565 294.747 70.1965 294.896C69.4645 296.778 65.5407 298.121 61.089 298.121Z" fill="white"/>
<path d="M139.049 204.544L130.709 205.47L2.38788 219.716C1.55992 219.8 0.827958 219.845 0 219.845V212.043L124.698 198.188L134.285 197.113C138.737 196.638 143.249 197.564 145.061 199.223C145.265 199.417 145.421 199.635 145.577 199.848C146.933 201.893 143.981 204.009 139.049 204.544Z" fill="white"/>
<path opacity="0.5" d="M562 373C577.464 373 590 360.464 590 345C590 329.536 577.464 317 562 317C546.536 317 534 329.536 534 345C534 360.464 546.536 373 562 373Z" fill="#FF9B85"/>
<path d="M573.246 347.676C574.71 341.474 570.87 335.258 564.667 333.794C558.465 332.329 552.25 336.17 550.785 342.372C549.321 348.575 553.161 354.79 559.364 356.255C565.566 357.719 571.781 353.878 573.246 347.676Z" fill="#FF9B85"/>
<g clip-path="url(#clip1_319_56180)">
<path opacity="0.5" d="M852.946 225.428L844.914 236.694L842.169 234.737L845.476 230.099L841.207 227.056L837.901 231.694L835.156 229.737L843.189 218.471L845.933 220.428L842.787 224.841L847.055 227.885L850.202 223.472L852.946 225.428ZM858.632 239.504C858.449 239.76 858.242 240.016 858.011 240.272L851.801 235.843C851.447 236.43 851.318 236.984 851.415 237.505C851.53 238.023 851.817 238.445 852.277 238.773C852.962 239.262 853.644 239.312 854.324 238.925L857.244 241.008C856.675 241.489 856.025 241.825 855.293 242.013C854.572 242.209 853.822 242.231 853.043 242.079C852.264 241.927 851.511 241.592 850.783 241.073C849.906 240.447 849.258 239.703 848.841 238.841C848.423 237.978 848.269 237.061 848.38 236.091C848.491 235.121 848.878 234.171 849.542 233.24C850.205 232.309 850.972 231.63 851.843 231.201C852.724 230.78 853.64 230.627 854.592 230.741C855.543 230.854 856.463 231.228 857.351 231.861C858.218 232.479 858.859 233.21 859.273 234.054C859.688 234.899 859.842 235.792 859.736 236.733C859.641 237.681 859.272 238.605 858.632 239.504ZM856.338 236.779C856.674 236.308 856.78 235.819 856.658 235.312C856.535 234.805 856.233 234.38 855.752 234.037C855.291 233.709 854.806 233.564 854.294 233.603C853.793 233.649 853.33 233.891 852.904 234.33L856.338 236.779ZM864.849 239.652C865.521 239.389 866.197 239.29 866.877 239.355C867.564 239.409 868.202 239.646 868.79 240.066L866.719 242.97L865.965 242.433C865.28 241.944 864.66 241.728 864.104 241.783C863.556 241.828 863.018 242.22 862.492 242.958L859.528 247.114L856.784 245.158L863.169 236.203L865.913 238.159L864.849 239.652ZM871.874 244.322C872.428 244.087 873.037 244.014 873.702 244.1C874.366 244.187 875.009 244.451 875.63 244.894C876.368 245.42 876.903 246.084 877.235 246.886C877.567 247.687 877.657 248.558 877.503 249.497C877.36 250.445 876.961 251.378 876.305 252.298C875.649 253.218 874.892 253.906 874.036 254.36C873.198 254.811 872.342 255.016 871.468 254.974C870.602 254.921 869.8 254.632 869.061 254.105C868.43 253.655 867.967 253.139 867.672 252.558C867.384 251.965 867.255 251.365 867.285 250.757L866.393 252.009L863.648 250.052L872.116 238.176L874.86 240.133L871.874 244.322ZM873.512 250.307C874.001 249.623 874.189 248.95 874.079 248.291C873.987 247.628 873.662 247.098 873.106 246.701C872.56 246.312 871.954 246.178 871.286 246.3C870.63 246.428 870.057 246.835 869.569 247.52C869.081 248.205 868.883 248.878 868.975 249.541C869.078 250.212 869.402 250.742 869.948 251.131C870.494 251.52 871.1 251.654 871.768 251.532C872.443 251.4 873.024 250.992 873.512 250.307ZM886.278 259.215C886.094 259.472 885.888 259.728 885.657 259.983L879.447 255.555C879.093 256.142 878.964 256.696 879.061 257.217C879.176 257.734 879.463 258.157 879.923 258.485C880.608 258.973 881.29 259.024 881.969 258.637L884.89 260.719C884.321 261.201 883.671 261.536 882.939 261.725C882.218 261.921 881.468 261.943 880.689 261.791C879.91 261.639 879.157 261.303 878.429 260.785C877.552 260.159 876.904 259.415 876.486 258.552C876.069 257.69 875.915 256.773 876.026 255.803C876.137 254.833 876.524 253.883 877.187 252.952C877.851 252.021 878.618 251.341 879.488 250.913C880.369 250.492 881.286 250.339 882.238 250.452C883.189 250.566 884.109 250.94 884.997 251.573C885.864 252.191 886.504 252.922 886.919 253.766C887.334 254.611 887.488 255.503 887.382 256.444C887.286 257.393 886.918 258.317 886.278 259.215ZM883.984 256.491C884.32 256.02 884.426 255.531 884.304 255.024C884.181 254.517 883.879 254.092 883.397 253.749C882.937 253.42 882.451 253.276 881.94 253.314C881.439 253.361 880.975 253.603 880.55 254.042L883.984 256.491ZM892.495 259.364C893.167 259.1 893.843 259.001 894.522 259.066C895.21 259.121 895.848 259.358 896.436 259.777L894.365 262.682L893.611 262.144C892.926 261.656 892.306 261.44 891.75 261.495C891.201 261.54 890.664 261.931 890.138 262.67L887.174 266.826L884.43 264.869L890.815 255.914L893.559 257.871L892.495 259.364ZM897.944 270.995L896.285 273.323L894.889 272.327C893.894 271.618 893.29 270.824 893.077 269.946C892.872 269.057 893.162 268.061 893.947 266.959L896.488 263.397L895.396 262.619L897.021 260.34L898.113 261.118L899.669 258.935L902.413 260.892L900.857 263.074L902.654 264.356L901.029 266.635L899.232 265.353L896.669 268.948C896.478 269.216 896.405 269.454 896.449 269.663C896.494 269.872 896.666 270.084 896.966 270.297L897.944 270.995ZM922.006 274.668L913.973 285.934L911.229 283.977L916.046 277.221L908.709 282.181L906.495 280.602L908.788 272.022L903.959 278.794L901.215 276.837L909.247 265.571L912.489 267.883L910.09 277.936L918.78 272.368L922.006 274.668ZM918.605 282.459C919.261 281.539 920.008 280.853 920.846 280.401C921.695 279.958 922.553 279.762 923.419 279.815C924.285 279.868 925.087 280.157 925.825 280.684C926.457 281.134 926.916 281.655 927.204 282.247C927.502 282.847 927.631 283.448 927.59 284.048L928.494 282.78L931.239 284.737L924.854 293.692L922.109 291.735L923.013 290.467C922.448 290.694 921.833 290.764 921.169 290.677C920.515 290.599 919.873 290.334 919.241 289.884C918.514 289.365 917.984 288.705 917.652 287.903C917.327 287.091 917.236 286.211 917.379 285.264C917.54 284.314 917.949 283.379 918.605 282.459ZM925.302 287.258C925.79 286.573 925.983 285.895 925.88 285.225C925.788 284.562 925.469 284.036 924.923 283.647C924.377 283.258 923.771 283.124 923.103 283.245C922.454 283.363 921.886 283.765 921.397 284.45C920.909 285.134 920.707 285.814 920.792 286.487C920.895 287.158 921.219 287.687 921.765 288.076C922.31 288.465 922.912 288.596 923.568 288.467C924.236 288.345 924.814 287.942 925.302 287.258ZM929.486 290.241C930.149 289.31 930.916 288.63 931.787 288.202C932.668 287.781 933.579 287.624 934.52 287.73C935.471 287.844 936.386 288.213 937.263 288.839C938.387 289.64 939.113 290.602 939.442 291.724C939.783 292.854 939.689 294.038 939.161 295.276L936.241 293.193C936.483 292.333 936.251 291.651 935.545 291.148C935.042 290.789 934.499 290.701 933.918 290.883C933.343 291.055 932.797 291.504 932.278 292.232C931.759 292.959 931.509 293.628 931.526 294.237C931.551 294.836 931.815 295.315 932.318 295.673C933.024 296.177 933.744 296.174 934.478 295.665L937.399 297.747C936.416 298.628 935.331 299.097 934.145 299.154C932.958 299.212 931.808 298.844 930.695 298.051C929.818 297.425 929.17 296.681 928.753 295.818C928.346 294.963 928.197 294.051 928.308 293.081C928.43 292.118 928.822 291.172 929.486 290.241ZM939.214 297.153C939.87 296.233 940.617 295.547 941.455 295.096C942.304 294.652 943.162 294.457 944.028 294.509C944.894 294.562 945.696 294.852 946.434 295.378C947.066 295.828 947.525 296.349 947.813 296.942C948.111 297.542 948.24 298.142 948.199 298.742L949.103 297.475L951.848 299.431L945.463 308.386L942.718 306.43L943.622 305.162C943.057 305.388 942.443 305.458 941.778 305.372C941.124 305.293 940.482 305.028 939.85 304.578C939.123 304.06 938.593 303.399 938.261 302.598C937.936 301.785 937.845 300.906 937.988 299.959C938.149 299.008 938.558 298.073 939.214 297.153ZM945.911 301.952C946.399 301.267 946.592 300.59 946.489 299.919C946.397 299.256 946.078 298.73 945.532 298.341C944.986 297.952 944.38 297.818 943.712 297.94C943.063 298.058 942.495 298.459 942.006 299.144C941.518 299.829 941.316 300.508 941.401 301.181C941.504 301.852 941.828 302.382 942.374 302.771C942.919 303.16 943.521 303.29 944.177 303.161C944.845 303.04 945.423 302.637 945.911 301.952ZM962.676 307.152L956.291 316.107L953.546 314.15L954.416 312.93C953.856 313.128 953.247 313.178 952.59 313.081C951.951 312.981 951.343 312.724 950.765 312.313C950.081 311.824 949.583 311.244 949.272 310.57C948.969 309.886 948.879 309.152 949.002 308.368C949.126 307.585 949.465 306.802 950.022 306.021L953.753 300.79L956.481 302.735L953.014 307.598C952.587 308.197 952.41 308.773 952.484 309.326C952.557 309.878 952.856 310.342 953.381 310.716C953.916 311.097 954.457 311.232 955.003 311.122C955.55 311.012 956.037 310.657 956.464 310.058L959.931 305.195L962.676 307.152ZM969.474 307.593L961.006 319.469L958.262 317.512L966.729 305.636L969.474 307.593ZM974.732 322.284C974.549 322.541 974.342 322.797 974.111 323.052L967.901 318.624C967.547 319.21 967.418 319.764 967.515 320.285C967.63 320.803 967.917 321.226 968.377 321.554C969.062 322.042 969.744 322.092 970.424 321.705L973.344 323.788C972.775 324.27 972.125 324.605 971.393 324.793C970.672 324.989 969.922 325.011 969.143 324.859C968.364 324.707 967.611 324.372 966.883 323.853C966.006 323.227 965.358 322.483 964.941 321.621C964.523 320.758 964.369 319.842 964.48 318.872C964.591 317.902 964.978 316.951 965.642 316.02C966.305 315.09 967.072 314.41 967.943 313.981C968.824 313.561 969.74 313.407 970.692 313.521C971.643 313.635 972.563 314.008 973.451 314.641C974.318 315.259 974.959 315.99 975.373 316.835C975.788 317.679 975.942 318.572 975.836 319.513C975.741 320.461 975.372 321.385 974.732 322.284ZM972.438 319.559C972.774 319.088 972.88 318.599 972.758 318.092C972.635 317.585 972.333 317.16 971.852 316.817C971.392 316.489 970.906 316.344 970.394 316.383C969.893 316.429 969.43 316.672 969.004 317.11L972.438 319.559ZM988.417 325.505L973.382 334.708L970.429 332.603L975.733 329.51L978.258 318.262L981.323 320.448L979.4 327.525L985.448 323.388L988.417 325.505Z" fill="#121212"/>
</g>
</g>
<defs>
<clipPath id="clip0_319_56180">
<rect width="1185" height="622" fill="white" transform="translate(0 -20)"/>
</clipPath>
<clipPath id="clip1_319_56180">
<rect width="158.639" height="120.316" fill="white" transform="translate(833 100)"/>
</clipPath>
</defs>
</svg>
