<svg width="68" height="53" viewBox="0 0 68 53" fill="none" xmlns="http://www.w3.org/2000/svg">
<path d="M0.308752 49.9474L0.408996 49.1374L0.657602 46.3266L0.781904 44.4741C1.27377 44.4794 1.66004 44.4821 1.94073 44.4821C2.17329 44.4821 2.52883 44.4794 3.00732 44.4741C3.04208 44.7039 3.07148 44.879 3.09554 44.9993C3.1196 45.117 3.17841 45.3495 3.27197 45.697C3.3682 46.0419 3.44439 46.3413 3.50053 46.5952C3.55934 46.8465 3.64621 47.2782 3.76116 47.8904C3.87878 47.4707 3.98571 47.1098 4.08194 46.8077C4.17818 46.5057 4.29847 46.1622 4.44282 45.7772C4.58717 45.3923 4.67806 45.141 4.71549 45.0234C4.75558 44.9031 4.80905 44.72 4.87588 44.4741C5.27685 44.4794 5.66981 44.4821 6.05475 44.4821C6.31672 44.4821 6.68027 44.4794 7.1454 44.4741C7.09461 45.3749 7.0612 46.1488 7.04516 46.7957C7.01041 48.0628 6.99303 48.9343 6.99303 49.4101C6.99303 49.509 6.99571 49.6881 7.00105 49.9474C6.64819 49.942 6.40092 49.9394 6.25925 49.9394C6.05341 49.9394 5.8008 49.942 5.5014 49.9474C5.52279 49.7068 5.54952 49.1347 5.58159 48.2312C5.61367 47.325 5.62971 46.7463 5.62971 46.495C5.62971 46.3854 5.62704 46.233 5.62169 46.0379L5.09641 47.6698L4.34258 49.9474C3.99506 49.942 3.75581 49.9394 3.62483 49.9394C3.45909 49.9394 3.20514 49.942 2.86297 49.9474L2.36977 47.742L2.08107 46.5672C2.07038 46.5217 2.05835 46.4656 2.04498 46.3987C2.03162 46.3319 2.01023 46.2143 1.98082 46.0459L1.88058 47.1566L1.74826 49.4341L1.73623 49.9474C1.36733 49.942 1.13209 49.9394 1.03051 49.9394C0.891505 49.9394 0.650919 49.942 0.308752 49.9474ZM8.2922 47.0203C8.34299 46.7556 8.37507 46.5738 8.38843 46.4749C8.4018 46.3733 8.42318 46.2156 8.45259 46.0018C9.22246 45.8334 9.88407 45.7492 10.4374 45.7492C10.7529 45.7492 11.0416 45.7853 11.3035 45.8574C11.5655 45.9269 11.77 46.0405 11.917 46.1983C12.0641 46.356 12.1376 46.5819 12.1376 46.8759C12.1376 47.0256 12.1175 47.3624 12.0774 47.8864C12.0373 48.4103 12.0066 49.0973 11.9852 49.9474C11.7232 49.942 11.4626 49.9394 11.2033 49.9394C10.952 49.9394 10.6847 49.942 10.4013 49.9474C10.4388 49.6533 10.4802 49.0465 10.5256 48.127C10.4241 48.1751 10.3439 48.2098 10.2851 48.2312C10.2289 48.2526 10.1287 48.2847 9.98432 48.3274C9.83997 48.3702 9.72636 48.4063 9.64349 48.4357C9.56329 48.4651 9.49245 48.5025 9.43097 48.548C9.37216 48.5934 9.32939 48.6402 9.30266 48.6883C9.2786 48.7364 9.26657 48.7899 9.26657 48.8487C9.26657 48.9396 9.30266 49.0171 9.37483 49.0813C9.44701 49.1454 9.56196 49.1775 9.71967 49.1775C9.77581 49.1775 9.83596 49.1735 9.90011 49.1655C9.96427 49.1548 10.0525 49.1307 10.1648 49.0933C10.0872 49.2991 9.99501 49.5999 9.88808 49.9955C9.65819 50.0329 9.44033 50.0516 9.23449 50.0516C8.90302 50.0516 8.62634 50.0062 8.40447 49.9153C8.18527 49.8217 8.01552 49.6721 7.89523 49.4662C7.77761 49.2604 7.7188 49.0545 7.7188 48.8487C7.7188 48.7231 7.74019 48.6001 7.78296 48.4798C7.8284 48.3595 7.8979 48.2419 7.99146 48.127C8.08503 48.012 8.19463 47.9144 8.32027 47.8342C8.4459 47.7514 8.61699 47.6739 8.83352 47.6017C9.05272 47.5295 9.32939 47.4613 9.66354 47.3972C9.80254 47.3704 9.92952 47.3424 10.0445 47.313C10.1621 47.2809 10.245 47.2542 10.2931 47.2328C10.3439 47.2087 10.384 47.182 10.4134 47.1526C10.4454 47.1205 10.4682 47.0884 10.4815 47.0563C10.4949 47.0216 10.5016 46.9855 10.5016 46.9481C10.5016 46.8465 10.4588 46.769 10.3733 46.7155C10.2877 46.6594 10.1621 46.6313 9.99635 46.6313C9.53656 46.6313 8.96851 46.761 8.2922 47.0203ZM13.9901 49.9474L13.565 48.6322L12.6067 45.8534C12.9114 45.8588 13.1948 45.8614 13.4568 45.8614C13.7294 45.8614 13.9861 45.8588 14.2267 45.8534C14.2721 46.0379 14.3616 46.3613 14.4953 46.8238C14.629 47.2836 14.776 47.8316 14.9364 48.4678L15.0406 48.135C15.0567 48.0949 15.1195 47.9238 15.2291 47.6217L15.8666 45.8534C16.1553 45.8588 16.428 45.8614 16.6846 45.8614C16.9493 45.8614 17.2246 45.8588 17.5106 45.8534L16.9573 47.0443L15.9268 49.4101L15.7063 49.9474C15.3908 49.942 15.1128 49.9394 14.8722 49.9394C14.6103 49.9394 14.3162 49.942 13.9901 49.9474ZM20.117 45.7492C20.4485 45.7492 20.7666 45.8 21.0713 45.9015C21.3787 46.0031 21.638 46.1501 21.8492 46.3426C22.0604 46.5324 22.2154 46.7556 22.3144 47.0122C22.4159 47.2662 22.4667 47.5402 22.4667 47.8342C22.4667 48.1203 22.4213 48.3929 22.3304 48.6522C22.2422 48.9089 22.0911 49.1508 21.8773 49.378C21.6634 49.6025 21.3908 49.771 21.0593 49.8832C20.7305 49.9955 20.3816 50.0516 20.0127 50.0516C19.6733 50.0516 19.3471 50.0022 19.0344 49.9033C18.7216 49.8044 18.4596 49.66 18.2484 49.4702C18.0399 49.2804 17.8822 49.0532 17.7753 48.7886C17.671 48.5239 17.6189 48.2459 17.6189 47.9545C17.6189 47.6632 17.6697 47.3851 17.7713 47.1205C17.8755 46.8559 18.0386 46.6179 18.2605 46.4068C18.485 46.1956 18.7617 46.0339 19.0905 45.9216C19.4193 45.8066 19.7615 45.7492 20.117 45.7492ZM20.0889 46.928C19.9178 46.928 19.7655 46.9721 19.6318 47.0604C19.4982 47.1486 19.3966 47.2782 19.3271 47.4493C19.2602 47.6177 19.2268 47.8022 19.2268 48.0027C19.2268 48.2967 19.3003 48.5226 19.4474 48.6803C19.5944 48.8353 19.7788 48.9129 20.0007 48.9129C20.1691 48.9129 20.3202 48.8688 20.4538 48.7805C20.5875 48.6897 20.6877 48.5573 20.7546 48.3836C20.8241 48.2071 20.8588 48.0187 20.8588 47.8182C20.8588 47.6525 20.8321 47.5028 20.7786 47.3691C20.7251 47.2354 20.6369 47.1285 20.514 47.0483C20.3937 46.9681 20.252 46.928 20.0889 46.928ZM22.7314 51.7799C22.6485 51.141 22.5924 50.744 22.563 50.589C22.7314 50.6691 22.8797 50.7239 23.008 50.7534C23.139 50.7828 23.2513 50.7975 23.3449 50.7975C23.4438 50.7975 23.536 50.7841 23.6215 50.7574C23.7097 50.7306 23.7793 50.6972 23.83 50.6571C23.8808 50.6197 23.9356 50.5609 23.9944 50.4807C24.0559 50.4005 24.1014 50.331 24.1308 50.2722C24.1602 50.216 24.1896 50.1345 24.219 50.0276L23.4652 47.746L22.8196 45.8534C23.2179 45.8588 23.4972 45.8614 23.6576 45.8614C23.8447 45.8614 24.1 45.8588 24.4235 45.8534C24.4743 46.0593 24.5678 46.4148 24.7042 46.92C24.8432 47.4252 24.9434 47.8209 25.0049 48.1069C25.0397 48.2646 25.0731 48.4651 25.1051 48.7084L25.1894 48.3876C25.2161 48.302 25.2468 48.2045 25.2816 48.0949C25.3163 47.9853 25.3604 47.8543 25.4139 47.7019L25.6745 46.9721L26.1076 45.8534C26.4417 45.8588 26.6944 45.8614 26.8654 45.8614C27.0151 45.8614 27.2825 45.8588 27.6674 45.8534L26.8935 47.6017L25.4941 50.8456C25.4032 51.0274 25.3163 51.1717 25.2335 51.2786C25.1559 51.3749 25.0717 51.4591 24.9808 51.5312C24.8953 51.5981 24.8031 51.6542 24.7042 51.6997C24.5705 51.7611 24.4235 51.8093 24.2631 51.844C24.0867 51.8814 23.9076 51.9001 23.7258 51.9001C23.6429 51.9001 23.5333 51.8935 23.397 51.8801C23.2607 51.8694 23.1497 51.8574 23.0642 51.844C22.9813 51.8333 22.8704 51.8119 22.7314 51.7799ZM31.8937 48.7364C31.8589 48.8968 31.7921 49.2844 31.6932 49.8993C31.3831 49.9608 31.1225 50.0009 30.9113 50.0196C30.7001 50.0409 30.4863 50.0516 30.2697 50.0516C29.9516 50.0516 29.6589 50.0289 29.3916 49.9835C29.1243 49.9407 28.893 49.8632 28.6979 49.7509C28.5054 49.6386 28.3437 49.4996 28.2127 49.3339C28.0817 49.1655 27.9815 48.9663 27.912 48.7364C27.8452 48.5065 27.8117 48.27 27.8117 48.0267C27.8117 47.6845 27.8799 47.3504 28.0162 47.0243C28.1526 46.6955 28.3277 46.4388 28.5415 46.2544C28.758 46.0699 29.0067 45.939 29.2873 45.8614C29.568 45.7839 29.8554 45.7452 30.1494 45.7452C30.4542 45.7452 30.7442 45.7812 31.0196 45.8534C31.2976 45.9229 31.5328 46.0459 31.7253 46.2223C31.9177 46.3987 32.0541 46.5979 32.1343 46.8198C32.2171 47.0416 32.2586 47.2809 32.2586 47.5375C32.2586 47.6899 32.2412 47.8596 32.2064 48.0468L29.3956 48.0508C29.3929 48.0935 29.3916 48.1323 29.3916 48.1671C29.3916 48.4558 29.4945 48.6683 29.7003 48.8046C29.9062 48.9409 30.1575 49.0091 30.4542 49.0091C30.6306 49.0091 30.8311 48.9891 31.0556 48.949C31.2829 48.9062 31.5622 48.8353 31.8937 48.7364ZM29.4277 47.4373H30.7509C30.7536 47.3918 30.7549 47.3531 30.7549 47.321C30.7549 47.182 30.7295 47.063 30.6787 46.9641C30.6306 46.8652 30.5598 46.793 30.4662 46.7476C30.3753 46.7022 30.2724 46.6794 30.1575 46.6794C30.0773 46.6794 29.9997 46.6928 29.9249 46.7195C29.85 46.7436 29.7819 46.781 29.7204 46.8318C29.6616 46.8799 29.6121 46.9361 29.572 47.0002C29.5319 47.0644 29.5025 47.1272 29.4838 47.1887C29.4651 47.2475 29.4464 47.3303 29.4277 47.4373Z" fill="#121212"/>
<path d="M34.1672 49.9474L34.5 49.37L36.5731 45.4645L36.7936 45.0274C36.8578 44.8991 36.9473 44.7146 37.0623 44.4741C37.5328 44.4794 37.8763 44.4821 38.0928 44.4821C38.4697 44.4821 38.8186 44.4794 39.1393 44.4741L39.7248 46.1461L40.9157 49.362L41.1482 49.9474C40.6858 49.942 40.4051 49.9394 40.3062 49.9394C40.0816 49.9394 39.7515 49.942 39.3158 49.9474C39.1981 49.5063 39.0284 48.9877 38.8065 48.3916H36.7856C36.553 48.8621 36.3124 49.3807 36.0638 49.9474C35.5666 49.942 35.2619 49.9394 35.1496 49.9394C34.9465 49.9394 34.619 49.942 34.1672 49.9474ZM37.2708 47.2248H38.5178C38.2077 46.2811 38.038 45.7612 38.0086 45.665C37.8321 46.0579 37.6825 46.38 37.5595 46.6313L37.2708 47.2248ZM41.5211 49.9474L41.6454 48.1671L41.6855 47.1446C41.6882 46.9601 41.6895 46.7717 41.6895 46.5792C41.6895 46.384 41.6869 46.1421 41.6815 45.8534C42.005 45.8588 42.2616 45.8614 42.4514 45.8614C42.6733 45.8614 42.9286 45.8588 43.2173 45.8534L43.2012 46.3065C43.3055 46.1889 43.391 46.102 43.4579 46.0459C43.5247 45.9871 43.6009 45.9349 43.6864 45.8895C43.7719 45.8414 43.8615 45.8066 43.9551 45.7853C44.0486 45.7612 44.1462 45.7492 44.2478 45.7492C44.344 45.7492 44.4509 45.7625 44.5686 45.7893C44.5712 46.0806 44.5779 46.3212 44.5886 46.511L44.6167 47.1285C44.4696 47.0858 44.332 47.0644 44.2037 47.0644C44.0433 47.0644 43.9043 47.0884 43.7867 47.1365C43.6717 47.182 43.5688 47.2528 43.4779 47.3491C43.3897 47.4426 43.3188 47.5602 43.2654 47.7019C43.2119 47.8436 43.1745 48.0681 43.1531 48.3756C43.1317 48.683 43.121 49.0345 43.121 49.4301C43.121 49.5691 43.1264 49.7416 43.1371 49.9474C42.8778 49.942 42.6171 49.9394 42.3552 49.9394C42.0959 49.9394 41.8179 49.942 41.5211 49.9474ZM48.037 48.7685C47.9889 48.9931 47.9475 49.2123 47.9127 49.4261L47.8245 49.9153C47.5598 49.9741 47.3527 50.0115 47.203 50.0276C47.0559 50.0436 46.9129 50.0516 46.7739 50.0516C46.5467 50.0516 46.3449 50.0316 46.1685 49.9915C45.992 49.9541 45.845 49.8846 45.7274 49.783C45.6098 49.6787 45.5296 49.5598 45.4868 49.4261C45.444 49.2925 45.4226 49.1508 45.4226 49.0011C45.4226 48.9744 45.424 48.9276 45.4266 48.8607C45.4293 48.7912 45.4387 48.6389 45.4547 48.4036L45.5429 47.0162H44.9174C44.9308 46.8318 44.9428 46.5885 44.9535 46.2865L44.9655 45.9136H45.6311C45.6472 45.7906 45.6672 45.5219 45.6913 45.1076L46.377 44.9673C46.5026 44.9432 46.7699 44.8817 47.1789 44.7828C47.1602 45.133 47.1468 45.5099 47.1388 45.9136H48.053C48.0317 46.4696 48.021 46.8371 48.021 47.0162H47.0987L47.0506 48.0187C47.0453 48.1684 47.0426 48.2646 47.0426 48.3074C47.0426 48.4357 47.0559 48.5426 47.0827 48.6282C47.1121 48.7137 47.1615 48.7752 47.231 48.8126C47.3032 48.85 47.3821 48.8688 47.4676 48.8688C47.5318 48.8688 47.5986 48.8648 47.6681 48.8567C47.7376 48.846 47.8606 48.8166 48.037 48.7685ZM48.7788 45.3442C48.7948 45.0261 48.8029 44.7748 48.8029 44.5903C48.8029 44.5369 48.8015 44.4647 48.7989 44.3738C49.1223 44.3792 49.3936 44.3818 49.6128 44.3818C49.9149 44.3818 50.1796 44.3792 50.4068 44.3738C50.3988 44.4567 50.3934 44.5262 50.3907 44.5823L50.3667 45.0795C50.3613 45.1544 50.3587 45.2426 50.3587 45.3442C50.094 45.3388 49.8401 45.3362 49.5968 45.3362C49.3455 45.3362 49.0729 45.3388 48.7788 45.3442ZM48.5262 49.9474C48.5636 49.6213 48.5917 49.3526 48.6104 49.1414C48.6291 48.9302 48.6465 48.6603 48.6625 48.3315C48.6812 48.0027 48.6973 47.6391 48.7106 47.2408C48.724 46.8425 48.7347 46.38 48.7427 45.8534C49.0902 45.8588 49.3682 45.8614 49.5768 45.8614C49.7665 45.8614 50.0392 45.8588 50.3947 45.8534C50.3493 46.3586 50.3159 46.8024 50.2945 47.1847C50.2758 47.5669 50.2638 47.9719 50.2584 48.3996C50.2477 49.1588 50.2424 49.6747 50.2424 49.9474C49.9243 49.942 49.6503 49.9394 49.4204 49.9394C49.1932 49.9394 48.8951 49.942 48.5262 49.9474ZM51.0844 49.8712C51.0737 49.7536 51.063 49.6306 51.0523 49.5023C51.0417 49.3713 51.0243 49.1922 51.0002 48.965L50.9681 48.6763C51.2274 48.7779 51.4507 48.8541 51.6378 48.9048C51.8249 48.953 51.9973 48.977 52.155 48.977C52.286 48.977 52.3916 48.965 52.4718 48.9409C52.5547 48.9169 52.6148 48.8821 52.6522 48.8367C52.6897 48.7912 52.7084 48.7445 52.7084 48.6963C52.7084 48.6536 52.6937 48.6121 52.6643 48.572C52.6375 48.5293 52.5747 48.4718 52.4758 48.3996C52.2566 48.2392 52.0628 48.0935 51.8944 47.9626C51.7287 47.8316 51.603 47.7153 51.5175 47.6137C51.4346 47.5121 51.3705 47.4025 51.325 47.2849C51.2822 47.1673 51.2609 47.0457 51.2609 46.92C51.2609 46.6981 51.3237 46.491 51.4493 46.2985C51.5776 46.106 51.7648 45.967 52.0107 45.8815C52.2593 45.7933 52.5614 45.7492 52.9169 45.7492C53.2885 45.7492 53.763 45.7973 54.3404 45.8935L54.4045 47.0203C54.0811 46.8919 53.7696 46.8278 53.4702 46.8278C53.2591 46.8278 53.1053 46.8492 53.0091 46.8919C52.9156 46.9347 52.8688 47.0002 52.8688 47.0884C52.8688 47.1178 52.8741 47.1459 52.8848 47.1726C52.8955 47.1994 52.9142 47.2274 52.9409 47.2568C52.9704 47.2862 53.0051 47.317 53.0452 47.3491C53.088 47.3785 53.1896 47.4493 53.3499 47.5616C53.5103 47.6739 53.636 47.7661 53.7269 47.8383C53.8766 47.9559 53.9902 48.0655 54.0677 48.1671C54.1479 48.266 54.208 48.3729 54.2481 48.4878C54.2909 48.6001 54.3123 48.7191 54.3123 48.8447C54.3123 49.0345 54.2655 49.2096 54.1719 49.37C54.0811 49.5277 53.9421 49.66 53.7549 49.7669C53.5705 49.8739 53.37 49.9474 53.1535 49.9875C52.9369 50.0303 52.7137 50.0516 52.4838 50.0516C52.3288 50.0516 52.1336 50.0383 51.8984 50.0115C51.6658 49.9848 51.3945 49.938 51.0844 49.8712ZM58.0694 48.7685C58.0213 48.9931 57.9799 49.2123 57.9451 49.4261L57.8569 49.9153C57.5923 49.9741 57.3851 50.0115 57.2354 50.0276C57.0884 50.0436 56.9454 50.0516 56.8064 50.0516C56.5791 50.0516 56.3773 50.0316 56.2009 49.9915C56.0245 49.9541 55.8774 49.8846 55.7598 49.783C55.6422 49.6787 55.562 49.5598 55.5192 49.4261C55.4765 49.2925 55.4551 49.1508 55.4551 49.0011C55.4551 48.9744 55.4564 48.9276 55.4591 48.8607C55.4618 48.7912 55.4711 48.6389 55.4872 48.4036L55.5754 47.0162H54.9498C54.9632 46.8318 54.9752 46.5885 54.9859 46.2865L54.998 45.9136H55.6636C55.6796 45.7906 55.6997 45.5219 55.7237 45.1076L56.4094 44.9673C56.535 44.9432 56.8024 44.8817 57.2114 44.7828C57.1926 45.133 57.1793 45.5099 57.1713 45.9136H58.0855C58.0641 46.4696 58.0534 46.8371 58.0534 47.0162H57.1312L57.083 48.0187C57.0777 48.1684 57.075 48.2646 57.075 48.3074C57.075 48.4357 57.0884 48.5426 57.1151 48.6282C57.1445 48.7137 57.194 48.7752 57.2635 48.8126C57.3357 48.85 57.4145 48.8688 57.5001 48.8688C57.5642 48.8688 57.631 48.8648 57.7005 48.8567C57.77 48.846 57.893 48.8166 58.0694 48.7685ZM58.5787 49.9474L58.703 48.1671L58.7431 47.1446C58.7458 46.9601 58.7471 46.7717 58.7471 46.5792C58.7471 46.384 58.7444 46.1421 58.7391 45.8534C59.0625 45.8588 59.3191 45.8614 59.5089 45.8614C59.7308 45.8614 59.9861 45.8588 60.2748 45.8534L60.2588 46.3065C60.363 46.1889 60.4486 46.102 60.5154 46.0459C60.5822 45.9871 60.6584 45.9349 60.744 45.8895C60.8295 45.8414 60.919 45.8066 61.0126 45.7853C61.1062 45.7612 61.2037 45.7492 61.3053 45.7492C61.4016 45.7492 61.5085 45.7625 61.6261 45.7893C61.6288 46.0806 61.6355 46.3212 61.6461 46.511L61.6742 47.1285C61.5272 47.0858 61.3895 47.0644 61.2612 47.0644C61.1008 47.0644 60.9618 47.0884 60.8442 47.1365C60.7292 47.182 60.6263 47.2528 60.5354 47.3491C60.4472 47.4426 60.3764 47.5602 60.3229 47.7019C60.2695 47.8436 60.232 48.0681 60.2107 48.3756C60.1893 48.683 60.1786 49.0345 60.1786 49.4301C60.1786 49.5691 60.1839 49.7416 60.1946 49.9474C59.9353 49.942 59.6747 49.9394 59.4127 49.9394C59.1534 49.9394 58.8754 49.942 58.5787 49.9474ZM61.7785 51.7799C61.6956 51.141 61.6395 50.744 61.6101 50.589C61.7785 50.6691 61.9268 50.7239 62.0551 50.7534C62.1861 50.7828 62.2984 50.7975 62.392 50.7975C62.4909 50.7975 62.5831 50.7841 62.6686 50.7574C62.7569 50.7306 62.8264 50.6972 62.8771 50.6571C62.9279 50.6197 62.9827 50.5609 63.0415 50.4807C63.103 50.4005 63.1485 50.331 63.1779 50.2722C63.2073 50.216 63.2367 50.1345 63.2661 50.0276L62.5123 47.746L61.8667 45.8534C62.265 45.8588 62.5443 45.8614 62.7047 45.8614C62.8919 45.8614 63.1471 45.8588 63.4706 45.8534C63.5214 46.0593 63.6149 46.4148 63.7513 46.92C63.8903 47.4252 63.9905 47.8209 64.052 48.1069C64.0868 48.2646 64.1202 48.4651 64.1523 48.7084L64.2365 48.3876C64.2632 48.302 64.2939 48.2045 64.3287 48.0949C64.3634 47.9853 64.4075 47.8543 64.461 47.7019L64.7216 46.9721L65.1547 45.8534C65.4888 45.8588 65.7415 45.8614 65.9125 45.8614C66.0622 45.8614 66.3296 45.8588 66.7145 45.8534L65.9406 47.6017L64.5412 50.8456C64.4503 51.0274 64.3634 51.1717 64.2806 51.2786C64.203 51.3749 64.1188 51.4591 64.028 51.5312C63.9424 51.5981 63.8502 51.6542 63.7513 51.6997C63.6176 51.7611 63.4706 51.8093 63.3102 51.844C63.1338 51.8814 62.9547 51.9001 62.7729 51.9001C62.69 51.9001 62.5804 51.8935 62.4441 51.8801C62.3078 51.8694 62.1968 51.8574 62.1113 51.844C62.0284 51.8333 61.9175 51.8119 61.7785 51.7799Z" fill="#F49406"/>
<mask id="mask0_708_308" style="mask-type:alpha" maskUnits="userSpaceOnUse" x="12" y="0" width="23" height="45">
<rect width="21.9211" height="44.7368" transform="translate(12.5261)" fill="white"/>
</mask>
<g mask="url(#mask0_708_308)">
<circle cx="33.5529" cy="23.7105" r="19.0132" stroke="#121212" stroke-width="1.34211"/>
</g>
<mask id="mask1_708_308" style="mask-type:alpha" maskUnits="userSpaceOnUse" x="33" y="0" width="23" height="45">
<rect width="21.9211" height="44.7368" transform="matrix(-1 0 0 1 55.4739 0)" fill="white"/>
</mask>
<g mask="url(#mask1_708_308)">
<circle cx="19.6842" cy="19.6842" r="19.0132" transform="matrix(-1 0 0 1 54.1313 4.02625)" stroke="#F49406" stroke-width="1.34211"/>
</g>
<g clip-path="url(#clip0_708_308)">
<path d="M31.0361 10.2894V14.0921L29.1348 15.0427L26.2828 12.1907L22.4802 15.9934L25.3321 18.8453L24.3815 20.7467H20.5789V26.4506H24.3815L25.3321 28.3519L22.4802 31.2039L26.2828 35.0065L29.1348 32.1546L31.0361 33.1052V36.9079H36.74V33.1052L38.6414 32.1546L41.4933 35.0065L45.296 31.2039L42.444 28.3519L43.3946 26.4506H47.1973V20.7467H43.3946L42.444 18.8453L45.296 15.9934L41.4933 12.1907L38.6414 15.0427L36.74 14.0921V10.2894H31.0361Z" fill="#121212" stroke="#121212" stroke-width="1.90132" stroke-linecap="round" stroke-linejoin="round"/>
<path d="M33.8883 27.4013C35.9885 27.4013 37.691 25.6988 37.691 23.5987C37.691 21.4985 35.9885 19.796 33.8883 19.796C31.7882 19.796 30.0857 21.4985 30.0857 23.5987C30.0857 25.6988 31.7882 27.4013 33.8883 27.4013Z" fill="#121212" stroke="#121212" stroke-width="1.90132" stroke-linecap="round" stroke-linejoin="round"/>
<circle cx="34.2236" cy="23.934" r="7.44868" fill="#121212" stroke="#F49406" stroke-width="1.65526"/>
<circle cx="34.2236" cy="23.9342" r="4.63026" fill="white" stroke="#F49406" stroke-width="1.02895"/>
</g>
<defs>
<clipPath id="clip0_708_308">
<rect width="30.4211" height="30.4211" fill="white" transform="translate(18.7893 7.15771)"/>
</clipPath>
</defs>
</svg>
