<svg width="25" height="24" viewBox="0 0 25 24" fill="none" xmlns="http://www.w3.org/2000/svg">
<path d="M18.1673 12.5555C18.158 10.957 18.8822 9.75234 20.3447 8.86406C19.5267 7.69219 18.2892 7.04766 16.658 6.92344C15.1134 6.80156 13.4236 7.82344 12.8048 7.82344C12.1509 7.82344 10.6556 6.96563 9.47905 6.96563C7.05093 7.00313 4.47046 8.90156 4.47046 12.7641C4.47046 13.9055 4.67905 15.0844 5.09624 16.2984C5.65405 17.8969 7.66499 21.8133 9.76265 21.75C10.8595 21.7242 11.6353 20.9719 13.0626 20.9719C14.4478 20.9719 15.165 21.75 16.3884 21.75C18.5048 21.7195 20.3236 18.1594 20.8533 16.5563C18.015 15.218 18.1673 12.6375 18.1673 12.5555ZM15.7041 5.40703C16.8923 3.99609 16.7845 2.71172 16.7494 2.25C15.6994 2.31094 14.4853 2.96484 13.7939 3.76875C13.0322 4.63125 12.5845 5.69766 12.6806 6.9C13.815 6.98672 14.8509 6.40313 15.7041 5.40703Z" fill="white"/>
</svg>
