<svg width="24" height="24" viewBox="0 0 24 24" fill="none" xmlns="http://www.w3.org/2000/svg">
<circle cx="12" cy="12" r="12" fill="white" fill-opacity="0.11"/>
<path d="M12 4.40625C10.4981 4.40625 9.02993 4.85162 7.78114 5.68603C6.53236 6.52044 5.55905 7.70642 4.98429 9.094C4.40954 10.4816 4.25916 12.0084 4.55217 13.4815C4.84517 14.9545 5.56841 16.3076 6.63041 17.3696C7.69242 18.4316 9.04549 19.1548 10.5185 19.4478C11.9916 19.7408 13.5184 19.5905 14.906 19.0157C16.2936 18.441 17.4796 17.4676 18.314 16.2189C19.1484 14.9701 19.5938 13.5019 19.5938 12C19.5915 9.9867 18.7907 8.0565 17.3671 6.63287C15.9435 5.20925 14.0133 4.40848 12 4.40625ZM12.8438 17.8451V13.9688H14.25C14.4738 13.9688 14.6884 13.8799 14.8466 13.7216C15.0049 13.5634 15.0938 13.3488 15.0938 13.125C15.0938 12.9012 15.0049 12.6866 14.8466 12.5284C14.6884 12.3701 14.4738 12.2812 14.25 12.2812H12.8438V10.875C12.8438 10.6512 12.9326 10.4366 13.0909 10.2784C13.2491 10.1201 13.4637 10.0312 13.6875 10.0312H14.8125C15.0363 10.0312 15.2509 9.94236 15.4091 9.78412C15.5674 9.62589 15.6563 9.41128 15.6563 9.1875C15.6563 8.96372 15.5674 8.74911 15.4091 8.59088C15.2509 8.43264 15.0363 8.34375 14.8125 8.34375H13.6875C13.0162 8.34375 12.3723 8.61043 11.8976 9.08514C11.4229 9.55984 11.1563 10.2037 11.1563 10.875V12.2812H9.75C9.52623 12.2812 9.31162 12.3701 9.15338 12.5284C8.99515 12.6866 8.90625 12.9012 8.90625 13.125C8.90625 13.3488 8.99515 13.5634 9.15338 13.7216C9.31162 13.8799 9.52623 13.9688 9.75 13.9688H11.1563V17.8451C9.67835 17.6318 8.3361 16.8666 7.39963 15.7035C6.46316 14.5404 6.00198 13.0658 6.10892 11.5764C6.21585 10.0871 6.88295 8.69346 7.97597 7.6761C9.06899 6.65875 10.5068 6.09316 12 6.09316C13.4932 6.09316 14.931 6.65875 16.024 7.6761C17.1171 8.69346 17.7842 10.0871 17.8911 11.5764C17.998 13.0658 17.5368 14.5404 16.6004 15.7035C15.6639 16.8666 14.3217 17.6318 12.8438 17.8451Z" fill="white"/>
</svg>
