<svg width="24" height="24" viewBox="0 0 24 24" fill="none" xmlns="http://www.w3.org/2000/svg">
<circle cx="12" cy="12" r="12" fill="white" fill-opacity="0.11"/>
<path d="M14.7895 8.24991C14.7895 7.8357 15.1194 7.49991 15.5263 7.49991C15.9332 7.49991 16.2631 7.8357 16.2631 8.24991C16.2631 8.66413 15.9332 8.99991 15.5263 8.99991C15.1194 8.99991 14.7895 8.66413 14.7895 8.24991Z" fill="white"/>
<path fill-rule="evenodd" clip-rule="evenodd" d="M11.8421 8.43741C9.90909 8.43741 8.34209 10.0324 8.34209 11.9999C8.34209 13.9674 9.90909 15.5624 11.8421 15.5624C13.7751 15.5624 15.3421 13.9674 15.3421 11.9999C15.3421 10.0324 13.7751 8.43741 11.8421 8.43741ZM9.44735 11.9999C9.44735 10.6537 10.5195 9.56241 11.8421 9.56241C13.1647 9.56241 14.2368 10.6537 14.2368 11.9999C14.2368 13.3461 13.1647 14.4374 11.8421 14.4374C10.5195 14.4374 9.44735 13.3461 9.44735 11.9999Z" fill="white"/>
<path fill-rule="evenodd" clip-rule="evenodd" d="M15.7166 5.12467C13.1623 4.83409 10.5219 4.83409 7.9676 5.12467C6.48503 5.29333 5.28815 6.48209 5.11385 7.99899C4.8084 10.6572 4.8084 13.3426 5.11385 16.0008C5.28815 17.5177 6.48503 18.7065 7.9676 18.8751C10.5219 19.1657 13.1623 19.1657 15.7166 18.8751C17.1992 18.7065 18.396 17.5177 18.5703 16.0008C18.8758 13.3426 18.8758 10.6572 18.5703 7.99899C18.396 6.48209 17.1992 5.29333 15.7166 5.12467ZM8.09037 6.24271C10.5631 5.96141 13.1211 5.96141 15.5938 6.24271C16.5739 6.35421 17.359 7.14142 17.4726 8.12967C17.768 10.7011 17.768 13.2988 17.4726 15.8701C17.359 16.8584 16.5739 17.6456 15.5938 17.7571C13.1211 18.0384 10.5631 18.0384 8.09037 17.7571C7.11029 17.6456 6.32519 16.8584 6.21163 15.8701C5.91616 13.2988 5.91616 10.7011 6.21163 8.12967C6.32519 7.14142 7.11029 6.35421 8.09037 6.24271Z" fill="white"/>
</svg>
