<svg width="24" height="25" viewBox="0 0 24 25" fill="none" xmlns="http://www.w3.org/2000/svg">
<g clip-path="url(#clip0_605_1519)">
<path d="M11.99 2.30005C6.47 2.30005 2 6.78005 2 12.3C2 17.82 6.47 22.3 11.99 22.3C17.52 22.3 22 17.82 22 12.3C22 6.78005 17.52 2.30005 11.99 2.30005ZM18.92 8.30005H15.97C15.65 7.05005 15.19 5.85005 14.59 4.74005C16.43 5.37005 17.96 6.65005 18.92 8.30005ZM12 4.34005C12.83 5.54005 13.48 6.87005 13.91 8.30005H10.09C10.52 6.87005 11.17 5.54005 12 4.34005ZM4.26 14.3C4.1 13.66 4 12.99 4 12.3C4 11.61 4.1 10.94 4.26 10.3H7.64C7.56 10.96 7.5 11.62 7.5 12.3C7.5 12.98 7.56 13.64 7.64 14.3H4.26ZM5.08 16.3H8.03C8.35 17.55 8.81 18.75 9.41 19.86C7.57 19.23 6.04 17.96 5.08 16.3ZM8.03 8.30005H5.08C6.04 6.64005 7.57 5.37005 9.41 4.74005C8.81 5.85005 8.35 7.05005 8.03 8.30005ZM12 20.26C11.17 19.06 10.52 17.73 10.09 16.3H13.91C13.48 17.73 12.83 19.06 12 20.26ZM14.34 14.3H9.66C9.57 13.64 9.5 12.98 9.5 12.3C9.5 11.62 9.57 10.95 9.66 10.3H14.34C14.43 10.95 14.5 11.62 14.5 12.3C14.5 12.98 14.43 13.64 14.34 14.3ZM14.59 19.86C15.19 18.75 15.65 17.55 15.97 16.3H18.92C17.96 17.95 16.43 19.23 14.59 19.86ZM16.36 14.3C16.44 13.64 16.5 12.98 16.5 12.3C16.5 11.62 16.44 10.96 16.36 10.3H19.74C19.9 10.94 20 11.61 20 12.3C20 12.99 19.9 13.66 19.74 14.3H16.36Z" fill="#121212"/>
</g>
<defs>
<clipPath id="clip0_605_1519">
<rect width="24" height="24" fill="white" transform="translate(0 0.300049)"/>
</clipPath>
</defs>
</svg>
