<svg width="24" height="24" viewBox="0 0 24 24" fill="none" xmlns="http://www.w3.org/2000/svg">
<circle cx="12" cy="12" r="12" fill="white" fill-opacity="0.11"/>
<path d="M15.75 12.8476V15.6204H14.1428V13.0329C14.1428 12.3834 13.9102 11.9401 13.3282 11.9401C12.8842 11.9401 12.6195 12.2386 12.5032 12.5281C12.4612 12.6316 12.45 12.7756 12.45 12.9196V15.6204H10.842C10.842 15.6204 10.8638 11.2389 10.842 10.7851H12.45V11.4699L12.4395 11.4856H12.45V11.4699C12.6638 11.1399 13.0447 10.6711 13.899 10.6711C14.9565 10.6711 15.75 11.3626 15.75 12.8476ZM9.15975 8.45337C8.61 8.45337 8.25 8.81487 8.25 9.28887C8.25 9.75387 8.5995 10.1251 9.13875 10.1251H9.14925C9.71025 10.1251 10.059 9.75312 10.059 9.28887C10.0485 8.81487 9.71025 8.45337 9.15975 8.45337ZM8.34525 15.6204H9.95325V10.7851H8.34525V15.6204Z" fill="white"/>
<path d="M7.5 6C7.10218 6 6.72064 6.15804 6.43934 6.43934C6.15804 6.72064 6 7.10218 6 7.5V16.5C6 16.8978 6.15804 17.2794 6.43934 17.5607C6.72064 17.842 7.10218 18 7.5 18H16.5C16.8978 18 17.2794 17.842 17.5607 17.5607C17.842 17.2794 18 16.8978 18 16.5V7.5C18 7.10218 17.842 6.72064 17.5607 6.43934C17.2794 6.15804 16.8978 6 16.5 6H7.5ZM7.5 4.5H16.5C17.2956 4.5 18.0587 4.81607 18.6213 5.37868C19.1839 5.94129 19.5 6.70435 19.5 7.5V16.5C19.5 17.2956 19.1839 18.0587 18.6213 18.6213C18.0587 19.1839 17.2956 19.5 16.5 19.5H7.5C6.70435 19.5 5.94129 19.1839 5.37868 18.6213C4.81607 18.0587 4.5 17.2956 4.5 16.5V7.5C4.5 6.70435 4.81607 5.94129 5.37868 5.37868C5.94129 4.81607 6.70435 4.5 7.5 4.5Z" fill="white"/>
</svg>
