<svg width="24" height="24" viewBox="0 0 24 24" fill="none" xmlns="http://www.w3.org/2000/svg">
<circle cx="12" cy="12" r="12" fill="white" fill-opacity="0.11"/>
<path fill-rule="evenodd" clip-rule="evenodd" d="M14.0683 5.50773C14.4429 5.44242 14.8624 5.42062 15.2572 5.4886C15.9623 5.61001 16.6135 5.94356 17.1283 6.44362C17.4648 6.45137 17.7955 6.38389 18.0882 6.2877C18.3358 6.20628 18.545 6.10798 18.6916 6.03025C18.7645 5.9916 18.8208 5.95863 18.8574 5.93631C18.8757 5.92517 18.889 5.91674 18.8969 5.91164L18.9039 5.9071C19.1226 5.7588 19.4138 5.78767 19.6001 5.97629C19.7865 6.16497 19.8165 6.46116 19.6719 6.68459C19.5189 6.92106 19.3064 7.34261 19.0684 7.81493C19.0309 7.88919 18.9929 7.96471 18.9543 8.04097C18.8178 8.31094 18.6778 8.5838 18.5473 8.8179C18.4654 8.96489 18.3777 9.11412 18.2894 9.24307V9.44841C18.295 10.2026 18.21 10.9529 18.0375 11.6828C17.929 12.1421 17.7858 12.5933 17.6088 13.0323C17.1502 14.1698 16.4735 15.2029 15.6182 16.0712C14.7629 16.9395 13.7463 17.6257 12.6275 18.0896C11.5098 18.5531 10.3126 18.7854 9.1058 18.7731C7.35631 18.7746 5.64362 18.2616 4.17382 17.2956C3.95734 17.1534 3.86619 16.8777 3.95412 16.6311C4.04206 16.3846 4.28572 16.2326 4.54146 16.2648C4.76278 16.2927 4.98561 16.3063 5.20862 16.3056C6.0099 16.3033 6.79591 16.1231 7.5135 15.7836C7.28541 15.6779 7.06764 15.5476 6.86416 15.394C6.26605 14.9426 5.82107 14.3126 5.59112 13.5918C5.53137 13.4045 5.57222 13.199 5.69882 13.05C5.70109 13.0474 5.70338 13.0447 5.70569 13.0421C5.57046 12.9194 5.44392 12.7857 5.32743 12.642C4.8033 11.9954 4.51469 11.1843 4.51044 10.346L4.51042 10.3431L4.51043 10.3056C4.51043 10.1062 4.61414 9.92168 4.78303 9.82064C4.82584 9.79503 4.87122 9.77575 4.91789 9.76282C4.6686 9.25651 4.53895 8.69742 4.5399 8.13023C4.53961 7.48765 4.70451 6.85618 5.01823 6.29855C5.10879 6.13757 5.27151 6.0324 5.45316 6.01741C5.63482 6.00243 5.81205 6.07957 5.92689 6.22361C6.63614 7.11312 7.5213 7.84081 8.52487 8.35941C9.04076 8.626 9.58201 8.83427 10.1389 8.9816C10.4511 9.0642 10.7683 9.12764 11.0886 9.17146C11.0745 8.62901 11.1798 8.08686 11.4006 7.58591C11.7246 6.85104 12.279 6.24641 12.977 5.86684C13.2726 5.7061 13.665 5.57806 14.0683 5.50773ZM5.7581 11.1684C5.85363 11.442 5.99575 11.6988 6.18 11.9261C6.54203 12.3727 7.04451 12.6784 7.60246 12.7914C7.85099 12.8417 8.03405 13.0576 8.04659 13.3152C8.05914 13.5728 7.89795 13.8061 7.65553 13.8812C7.45475 13.9434 7.24904 13.9867 7.04099 14.0108C7.17847 14.1912 7.34019 14.3528 7.52249 14.4904C7.936 14.8025 8.4348 14.9756 8.94949 14.9857C9.18301 14.9903 9.38849 15.1438 9.46278 15.3692C9.53707 15.5945 9.46414 15.8431 9.28058 15.9901C8.50751 16.6093 7.61357 17.041 6.66633 17.2614C7.45142 17.5174 8.2748 17.6491 9.10765 17.6481L9.11406 17.6481C10.1752 17.6593 11.2278 17.4552 12.2105 17.0477C13.1933 16.6402 14.0864 16.0375 14.8377 15.2747C15.589 14.5119 16.1834 13.6044 16.5863 12.6052C16.7418 12.2195 16.8676 11.8232 16.9629 11.4197C17.1146 10.7779 17.1892 10.1182 17.1841 9.45498L17.1841 9.45058V9.05308C17.1841 8.91669 17.2328 8.78494 17.3211 8.68236C17.3721 8.62308 17.4614 8.48617 17.586 8.26274C17.7043 8.0504 17.8354 7.79547 17.9716 7.52608C17.9798 7.50979 17.9881 7.49341 17.9964 7.47696C17.643 7.55507 17.2425 7.59601 16.8226 7.54982C16.6897 7.53519 16.5664 7.47198 16.4757 7.3719C16.1052 6.9629 15.6118 6.69064 15.0728 6.59783C14.8337 6.55666 14.5446 6.56608 14.255 6.61658C13.9402 6.67146 13.6663 6.76747 13.4979 6.8591C13.0158 7.12127 12.6328 7.53891 12.409 8.0465C12.1852 8.55409 12.1333 9.12292 12.2614 9.66379C12.3022 9.83622 12.2607 10.0182 12.1495 10.1547C12.0382 10.2912 11.8702 10.3663 11.6962 10.3574C11.0747 10.3254 10.4599 10.2289 9.86089 10.0704C9.22728 9.90281 8.61148 9.66585 8.02453 9.36254C7.16037 8.91598 6.37339 8.33316 5.69193 7.63739C5.66084 7.7991 5.64506 7.96412 5.64516 8.13021L5.64516 8.13164C5.64439 8.54468 5.74398 8.95151 5.93505 9.31589C6.12612 9.68028 6.40275 9.99092 6.7403 10.2202C6.94516 10.3593 7.03486 10.6196 6.96025 10.8585C6.88564 11.0974 6.66474 11.2572 6.41856 11.2504C6.19559 11.2442 5.97449 11.2166 5.7581 11.1684Z" fill="white"/>
</svg>
